<mxfile host="app.diagrams.net" modified="2021-01-31T16:24:44.152Z" agent="5.0 (Windows NT 10.0; Win64; x64) AppleWebKit/537.36 (KHTML, like Gecko) Chrome/84.0.4147.135 Safari/537.36" etag="2teBCbBVb4gCjDU0LaV1" version="14.2.9" type="github" pages="2">
  <diagram id="6a731a19-8d31-9384-78a2-239565b7b9f0" name="Page-1">
    <mxGraphModel dx="1422" dy="745" grid="1" gridSize="10" guides="1" tooltips="1" connect="1" arrows="1" fold="1" page="1" pageScale="1" pageWidth="1169" pageHeight="827" background="#003469" math="0" shadow="0">
      <root>
        <mxCell id="0" />
        <mxCell id="1" parent="0" />
        <mxCell id="2019" value="" style="rounded=1;whiteSpace=wrap;html=1;dashed=1;strokeColor=none;strokeWidth=2;fillColor=#E6E6E6;fontFamily=Verdana;fontSize=12;fontColor=#00BEF2" parent="1" vertex="1">
          <mxGeometry x="40" y="120" width="165" height="670" as="geometry" />
        </mxCell>
        <mxCell id="2020" value="" style="rounded=1;whiteSpace=wrap;html=1;dashed=1;strokeColor=none;strokeWidth=2;fillColor=#E6E6E6;fontFamily=Verdana;fontSize=12;fontColor=#00BEF2" parent="1" vertex="1">
          <mxGeometry x="220" y="120" width="165" height="670" as="geometry" />
        </mxCell>
        <mxCell id="2021" value="" style="rounded=1;whiteSpace=wrap;html=1;dashed=1;strokeColor=none;strokeWidth=2;fillColor=#E6E6E6;fontFamily=Verdana;fontSize=12;fontColor=#00BEF2" parent="1" vertex="1">
          <mxGeometry x="400" y="120" width="165" height="670" as="geometry" />
        </mxCell>
        <mxCell id="2022" value="" style="rounded=1;whiteSpace=wrap;html=1;dashed=1;strokeColor=none;strokeWidth=2;fillColor=#E6E6E6;fontFamily=Verdana;fontSize=12;fontColor=#00BEF2" parent="1" vertex="1">
          <mxGeometry x="580" y="120" width="165" height="670" as="geometry" />
        </mxCell>
        <mxCell id="2023" value="" style="rounded=1;whiteSpace=wrap;html=1;dashed=1;strokeColor=none;strokeWidth=2;fillColor=#E6E6E6;fontFamily=Verdana;fontSize=12;fontColor=#00BEF2" parent="1" vertex="1">
          <mxGeometry x="760" y="120" width="165" height="670" as="geometry" />
        </mxCell>
        <mxCell id="2024" value="" style="rounded=1;whiteSpace=wrap;html=1;dashed=1;strokeColor=none;strokeWidth=2;fillColor=#E6E6E6;fontFamily=Verdana;fontSize=12;fontColor=#00BEF2" parent="1" vertex="1">
          <mxGeometry x="940" y="120" width="165" height="670" as="geometry" />
        </mxCell>
        <mxCell id="2025" value="Event" style="whiteSpace=wrap;html=1;dashed=1;strokeColor=none;strokeWidth=2;fillColor=#3399FF;fontFamily=Helvetica;fontSize=18;fontColor=#FFFFFF;fontStyle=1" parent="1" vertex="1">
          <mxGeometry x="40" y="120" width="165" height="60" as="geometry" />
        </mxCell>
        <mxCell id="2026" value="Compute" style="whiteSpace=wrap;html=1;dashed=1;strokeColor=none;strokeWidth=2;fillColor=#3399FF;fontFamily=Helvetica;fontSize=18;fontColor=#FFFFFF;fontStyle=1" parent="1" vertex="1">
          <mxGeometry x="220" y="120" width="165" height="60" as="geometry" />
        </mxCell>
        <mxCell id="2027" value="Data&lt;div&gt;Services&lt;/div&gt;" style="whiteSpace=wrap;html=1;dashed=1;strokeColor=none;strokeWidth=2;fillColor=#3399FF;fontFamily=Helvetica;fontSize=18;fontColor=#FFFFFF;fontStyle=1" parent="1" vertex="1">
          <mxGeometry x="400" y="120" width="165" height="60" as="geometry" />
        </mxCell>
        <mxCell id="2028" value="Data&lt;div&gt;Storage&lt;/div&gt;" style="whiteSpace=wrap;html=1;dashed=1;strokeColor=none;strokeWidth=2;fillColor=#3399FF;fontFamily=Helvetica;fontSize=18;fontColor=#FFFFFF;fontStyle=1" parent="1" vertex="1">
          <mxGeometry x="580" y="120" width="165" height="60" as="geometry" />
        </mxCell>
        <mxCell id="2029" value="App&lt;div&gt;Services&lt;/div&gt;" style="whiteSpace=wrap;html=1;dashed=1;strokeColor=none;strokeWidth=2;fillColor=#3399FF;fontFamily=Helvetica;fontSize=18;fontColor=#FFFFFF;fontStyle=1" parent="1" vertex="1">
          <mxGeometry x="760" y="120" width="165" height="60" as="geometry" />
        </mxCell>
        <mxCell id="2030" value="&amp;nbsp; &amp;nbsp;Presentation" style="whiteSpace=wrap;html=1;dashed=1;strokeColor=none;strokeWidth=2;fillColor=#3399FF;fontFamily=Helvetica;fontSize=18;fontColor=#FFFFFF;fontStyle=1" parent="1" vertex="1">
          <mxGeometry x="940" y="120" width="165" height="60" as="geometry" />
        </mxCell>
        <mxCell id="2031" value="" style="shape=mxgraph.arrows.two_way_arrow_horizontal;html=1;verticalLabelPosition=bottom;verticalAlign=top;strokeWidth=2;strokeColor=none;dashed=1;fillColor=#FFFFFF;fontFamily=Verdana;fontSize=12;fontColor=#00BEF2" parent="1" vertex="1">
          <mxGeometry x="180" y="131" width="67" height="39" as="geometry" />
        </mxCell>
        <mxCell id="2032" value="" style="shape=mxgraph.arrows.two_way_arrow_horizontal;html=1;verticalLabelPosition=bottom;verticalAlign=top;strokeWidth=2;strokeColor=none;dashed=1;fillColor=#FFFFFF;fontFamily=Verdana;fontSize=12;fontColor=#00BEF2" parent="1" vertex="1">
          <mxGeometry x="360" y="131" width="67" height="39" as="geometry" />
        </mxCell>
        <mxCell id="2033" value="" style="shape=mxgraph.arrows.two_way_arrow_horizontal;html=1;verticalLabelPosition=bottom;verticalAlign=top;strokeWidth=2;strokeColor=none;dashed=1;fillColor=#FFFFFF;fontFamily=Verdana;fontSize=12;fontColor=#00BEF2" parent="1" vertex="1">
          <mxGeometry x="540" y="131" width="67" height="39" as="geometry" />
        </mxCell>
        <mxCell id="2034" value="" style="shape=mxgraph.arrows.two_way_arrow_horizontal;html=1;verticalLabelPosition=bottom;verticalAlign=top;strokeWidth=2;strokeColor=none;dashed=1;fillColor=#FFFFFF;fontFamily=Verdana;fontSize=12;fontColor=#00BEF2" parent="1" vertex="1">
          <mxGeometry x="720" y="131" width="67" height="39" as="geometry" />
        </mxCell>
        <mxCell id="2035" value="" style="shape=mxgraph.arrows.two_way_arrow_horizontal;html=1;verticalLabelPosition=bottom;verticalAlign=top;strokeWidth=2;strokeColor=none;dashed=1;fillColor=#FFFFFF;fontFamily=Verdana;fontSize=12;fontColor=#00BEF2" parent="1" vertex="1">
          <mxGeometry x="900" y="131" width="67" height="39" as="geometry" />
        </mxCell>
        <mxCell id="2036" value="" style="verticalLabelPosition=bottom;html=1;verticalAlign=top;strokeColor=none;fillColor=#003366;shape=mxgraph.azure.cloud_service;dashed=1;fontFamily=Helvetica;fontSize=18;fontColor=#FFFFFF;opacity=25" parent="1" vertex="1">
          <mxGeometry x="90" y="180" width="970" height="600" as="geometry" />
        </mxCell>
        <mxCell id="2037" value="" style="verticalLabelPosition=bottom;html=1;verticalAlign=top;strokeColor=none;fillColor=#3399FF;shape=mxgraph.azure.tablet;dashed=1;fontFamily=Helvetica;fontSize=14;fontColor=#004C99" parent="1" vertex="1">
          <mxGeometry x="66" y="401" width="50" height="37.5" as="geometry" />
        </mxCell>
        <mxCell id="2038" value="" style="verticalLabelPosition=bottom;html=1;verticalAlign=top;strokeColor=none;fillColor=#3399FF;shape=mxgraph.azure.mobile;dashed=1;fontFamily=Helvetica;fontSize=14;fontColor=#004C99" parent="1" vertex="1">
          <mxGeometry x="146" y="395" width="35" height="50" as="geometry" />
        </mxCell>
        <mxCell id="2039" value="Devices" style="verticalLabelPosition=bottom;html=1;verticalAlign=top;strokeColor=none;fillColor=#3399FF;shape=mxgraph.azure.laptop;dashed=1;fontFamily=Helvetica;fontSize=14;fontColor=#004C99" parent="1" vertex="1">
          <mxGeometry x="96" y="451" width="50" height="30" as="geometry" />
        </mxCell>
        <mxCell id="2040" value="Applications" style="verticalLabelPosition=bottom;html=1;verticalAlign=top;strokeColor=none;fillColor=#3399FF;shape=mxgraph.azure.mobile_services;dashed=1;fontFamily=Helvetica;fontSize=14;fontColor=#004C99" parent="1" vertex="1">
          <mxGeometry x="107" y="250" width="32.5" height="50" as="geometry" />
        </mxCell>
        <mxCell id="2041" value="Social" style="verticalLabelPosition=bottom;html=1;verticalAlign=top;strokeColor=none;fillColor=#3399FF;shape=mxgraph.azure.user;dashed=1;fontSize=14;fontColor=#004C99" parent="1" vertex="1">
          <mxGeometry x="92" y="680" width="47.5" height="50" as="geometry" />
        </mxCell>
        <mxCell id="2042" value="" style="verticalLabelPosition=bottom;html=1;verticalAlign=top;strokeColor=none;fillColor=#3399FF;shape=mxgraph.azure.github_code;dashed=1;fontSize=14;fontColor=#004C99" parent="1" vertex="1">
          <mxGeometry x="133" y="560" width="50" height="50" as="geometry" />
        </mxCell>
        <mxCell id="2043" value="" style="verticalLabelPosition=bottom;html=1;verticalAlign=top;strokeColor=none;fillColor=#3399FF;shape=mxgraph.azure.dropbox_code_source;dashed=1;fontSize=14;fontColor=#004C99" parent="1" vertex="1">
          <mxGeometry x="73" y="563" width="50" height="47.5" as="geometry" />
        </mxCell>
        <mxCell id="2044" value="Repositories" style="text;html=1;strokeColor=none;fillColor=none;align=center;verticalAlign=middle;whiteSpace=wrap;overflow=hidden;dashed=1;fontSize=14;fontColor=#004C99" parent="1" vertex="1">
          <mxGeometry x="60" y="620" width="120" height="20" as="geometry" />
        </mxCell>
        <mxCell id="2045" value="Azure Website" style="verticalLabelPosition=bottom;html=1;verticalAlign=top;strokeColor=none;fillColor=#3399FF;shape=mxgraph.azure.azure_website;dashed=1;fontSize=14;fontColor=#004C99" parent="1" vertex="1">
          <mxGeometry x="278" y="258" width="50" height="50" as="geometry" />
        </mxCell>
        <mxCell id="2046" value="Mobile Services" style="verticalLabelPosition=bottom;html=1;verticalAlign=top;strokeColor=none;fillColor=#3399FF;shape=mxgraph.azure.mobile_services;dashed=1;fontSize=14;fontColor=#004C99" parent="1" vertex="1">
          <mxGeometry x="287" y="661" width="32.5" height="50" as="geometry" />
        </mxCell>
        <mxCell id="2047" value="Windows Azure Management Portal" style="text;html=1;strokeColor=none;fillColor=none;align=center;verticalAlign=middle;whiteSpace=wrap;overflow=hidden;dashed=1;fontSize=36;fontColor=#FFFFFF;fontFamily=Helvetica;fontStyle=1" parent="1" vertex="1">
          <mxGeometry x="40" y="50" width="1060" height="50" as="geometry" />
        </mxCell>
        <mxCell id="2048" value="Business&amp;nbsp;&lt;div&gt;Analytics&lt;/div&gt;" style="rounded=1;whiteSpace=wrap;html=1;dashed=1;strokeColor=none;strokeWidth=2;fillColor=#FFFFFF;fontFamily=Helvetica;fontSize=14;fontColor=#FFB366;opacity=75;verticalAlign=top;fontStyle=1" parent="1" vertex="1">
          <mxGeometry x="410" y="190" width="140" height="260" as="geometry" />
        </mxCell>
        <mxCell id="2049" value="Data&lt;div&gt;Management&lt;/div&gt;" style="rounded=1;whiteSpace=wrap;html=1;dashed=1;strokeColor=none;strokeWidth=2;fillColor=#FFFFFF;fontFamily=Helvetica;fontSize=14;fontColor=#FFB366;opacity=75;verticalAlign=top;fontStyle=1" parent="1" vertex="1">
          <mxGeometry x="413" y="460" width="140" height="320" as="geometry" />
        </mxCell>
        <mxCell id="2050" value="SQL Reporting" style="verticalLabelPosition=bottom;html=1;verticalAlign=top;strokeColor=none;fillColor=#3399FF;shape=mxgraph.azure.sql_reporting;dashed=1;fontSize=14;fontColor=#004C99" parent="1" vertex="1">
          <mxGeometry x="460" y="258" width="40" height="50" as="geometry" />
        </mxCell>
        <mxCell id="2051" value="HDInsight" style="verticalLabelPosition=bottom;html=1;verticalAlign=top;strokeColor=none;fillColor=#3399FF;shape=mxgraph.azure.hdinsight;dashed=1;fontSize=14;fontColor=#004C99" parent="1" vertex="1">
          <mxGeometry x="458" y="355" width="50" height="50" as="geometry" />
        </mxCell>
        <mxCell id="2052" value="SQL Database" style="verticalLabelPosition=bottom;html=1;verticalAlign=top;strokeColor=none;fillColor=#3399FF;shape=mxgraph.azure.sql_database;dashed=1;fontFamily=Helvetica;fontSize=14;fontColor=#004C99" parent="1" vertex="1">
          <mxGeometry x="464" y="600" width="37.5" height="50" as="geometry" />
        </mxCell>
        <mxCell id="2053" value="Tables" style="verticalLabelPosition=bottom;html=1;verticalAlign=top;strokeColor=none;fillColor=#3399FF;shape=mxgraph.azure.storage_table;dashed=1;fontFamily=Helvetica;fontSize=14;fontColor=#004C99" parent="1" vertex="1">
          <mxGeometry x="458" y="689" width="50" height="45" as="geometry" />
        </mxCell>
        <mxCell id="2054" value="Blobs" style="verticalLabelPosition=bottom;html=1;verticalAlign=top;strokeColor=none;fillColor=#3399FF;shape=mxgraph.azure.storage_blob;dashed=1;fontFamily=Helvetica;fontSize=14;fontColor=#004C99" parent="1" vertex="1">
          <mxGeometry x="457" y="523" width="50" height="45" as="geometry" />
        </mxCell>
        <mxCell id="2055" value="Storage Management" style="rounded=1;whiteSpace=wrap;html=1;dashed=1;strokeColor=none;strokeWidth=2;fillColor=#FFFFFF;fontFamily=Helvetica;fontSize=14;fontColor=#FFB366;opacity=75;verticalAlign=top;fontStyle=1" parent="1" vertex="1">
          <mxGeometry x="594" y="240" width="140" height="280" as="geometry" />
        </mxCell>
        <mxCell id="2056" value="Storage Servers" style="verticalLabelPosition=bottom;html=1;verticalAlign=top;strokeColor=none;fillColor=#3399FF;shape=mxgraph.azure.server_rack;dashed=1;fontFamily=Helvetica;fontSize=14;fontColor=#004C99" parent="1" vertex="1">
          <mxGeometry x="639" y="316" width="50" height="50" as="geometry" />
        </mxCell>
        <mxCell id="2057" value="Database" style="verticalLabelPosition=bottom;html=1;verticalAlign=top;strokeColor=none;fillColor=#3399FF;shape=mxgraph.azure.database;dashed=1;fontFamily=Helvetica;fontSize=14;fontColor=#004C99" parent="1" vertex="1">
          <mxGeometry x="644" y="414" width="37.5" height="50" as="geometry" />
        </mxCell>
        <mxCell id="2058" value="Physical&lt;div&gt;Data Storage&lt;/div&gt;" style="verticalLabelPosition=bottom;html=1;verticalAlign=top;strokeColor=none;fillColor=#3399FF;shape=mxgraph.azure.vhd;dashed=1;fontFamily=Helvetica;fontSize=14;fontColor=#004C99" parent="1" vertex="1">
          <mxGeometry x="643" y="590" width="40" height="50" as="geometry" />
        </mxCell>
        <mxCell id="2059" value="Identity" style="rounded=1;whiteSpace=wrap;html=1;dashed=1;strokeColor=none;strokeWidth=2;fillColor=#FFFFFF;fontFamily=Helvetica;fontSize=14;fontColor=#FFB366;opacity=75;verticalAlign=top;fontStyle=1" parent="1" vertex="1">
          <mxGeometry x="773" y="196" width="140" height="134" as="geometry" />
        </mxCell>
        <mxCell id="2060" value="Windows Azure&amp;nbsp;&lt;div&gt;Active Directorry&lt;/div&gt;" style="verticalLabelPosition=bottom;html=1;verticalAlign=top;strokeColor=none;fillColor=#3399FF;shape=mxgraph.azure.azure_active_directory;dashed=1;fontFamily=Helvetica;fontSize=14;fontColor=#004C99" parent="1" vertex="1">
          <mxGeometry x="819" y="225" width="47.5" height="50" as="geometry" />
        </mxCell>
        <mxCell id="2061" value="Performance" style="rounded=1;whiteSpace=wrap;html=1;dashed=1;strokeColor=none;strokeWidth=2;fillColor=#FFFFFF;fontFamily=Helvetica;fontSize=14;fontColor=#FFB366;opacity=75;verticalAlign=top;fontStyle=1" parent="1" vertex="1">
          <mxGeometry x="774" y="341" width="140" height="199" as="geometry" />
        </mxCell>
        <mxCell id="2062" value="Caching" style="verticalLabelPosition=bottom;html=1;verticalAlign=top;strokeColor=none;fillColor=#3399FF;shape=mxgraph.azure.azure_cache;dashed=1;fontFamily=Helvetica;fontSize=14;fontColor=#004C99" parent="1" vertex="1">
          <mxGeometry x="821" y="376" width="45" height="50" as="geometry" />
        </mxCell>
        <mxCell id="2063" value="Content&amp;nbsp;&lt;div&gt;Delivery Network&lt;/div&gt;" style="verticalLabelPosition=bottom;html=1;verticalAlign=top;strokeColor=none;fillColor=#3399FF;shape=mxgraph.azure.content_delivery_network;dashed=1;fontFamily=Helvetica;fontSize=14;fontColor=#004C99" parent="1" vertex="1">
          <mxGeometry x="819" y="455" width="50" height="32.5" as="geometry" />
        </mxCell>
        <mxCell id="2064" value="Messaging" style="rounded=1;whiteSpace=wrap;html=1;dashed=1;strokeColor=none;strokeWidth=2;fillColor=#FFFFFF;fontFamily=Helvetica;fontSize=14;fontColor=#FFB366;opacity=75;verticalAlign=top;fontStyle=1" parent="1" vertex="1">
          <mxGeometry x="773" y="550" width="140" height="229" as="geometry" />
        </mxCell>
        <mxCell id="2065" value="Queues" style="verticalLabelPosition=bottom;html=1;verticalAlign=top;strokeColor=none;fillColor=#3399FF;shape=mxgraph.azure.queue_generic;dashed=1;fontFamily=Helvetica;fontSize=14;fontColor=#004C99" parent="1" vertex="1">
          <mxGeometry x="820" y="576" width="50" height="15" as="geometry" />
        </mxCell>
        <mxCell id="2066" value="Service Bus" style="verticalLabelPosition=bottom;html=1;verticalAlign=top;strokeColor=none;fillColor=#3399FF;shape=mxgraph.azure.service_bus;dashed=1;fontFamily=Helvetica;fontSize=14;fontColor=#004C99" parent="1" vertex="1">
          <mxGeometry x="824" y="624" width="45" height="50" as="geometry" />
        </mxCell>
        <mxCell id="2067" value="Media Services" style="verticalLabelPosition=bottom;html=1;verticalAlign=top;strokeColor=none;fillColor=#3399FF;shape=mxgraph.azure.media_service;dashed=1;fontFamily=Helvetica;fontSize=14;fontColor=#004C99" parent="1" vertex="1">
          <mxGeometry x="821" y="703" width="45" height="50" as="geometry" />
        </mxCell>
        <mxCell id="2068" value="Cloud&lt;div&gt;Services&lt;/div&gt;" style="rounded=1;whiteSpace=wrap;html=1;dashed=1;strokeColor=none;strokeWidth=2;fillColor=#FFFFFF;fontFamily=Helvetica;fontSize=14;fontColor=#FFB366;opacity=75;verticalAlign=top;fontStyle=1" parent="1" vertex="1">
          <mxGeometry x="233" y="397" width="140" height="223" as="geometry" />
        </mxCell>
        <mxCell id="2069" value="Cloud" style="verticalLabelPosition=bottom;html=1;verticalAlign=top;strokeColor=none;fillColor=#3399FF;shape=mxgraph.azure.cloud;dashed=1;fontSize=14;fontColor=#004C99" parent="1" vertex="1">
          <mxGeometry x="278" y="449" width="50" height="32.5" as="geometry" />
        </mxCell>
        <mxCell id="2070" value="Virtual Machine" style="verticalLabelPosition=bottom;html=1;verticalAlign=top;strokeColor=none;fillColor=#3399FF;shape=mxgraph.azure.virtual_machine;dashed=1;fontSize=14;fontColor=#004C99" parent="1" vertex="1">
          <mxGeometry x="278" y="536" width="50" height="40" as="geometry" />
        </mxCell>
        <mxCell id="2071" value="Web Dashboards" style="verticalLabelPosition=bottom;html=1;verticalAlign=top;strokeColor=none;fillColor=#3399FF;shape=mxgraph.azure.laptop;dashed=1;fontFamily=Helvetica;fontSize=14;fontColor=#004C99" parent="1" vertex="1">
          <mxGeometry x="998" y="301" width="50" height="30" as="geometry" />
        </mxCell>
        <mxCell id="2072" value="Certificates" style="verticalLabelPosition=bottom;html=1;verticalAlign=top;strokeColor=none;fillColor=#3399FF;shape=mxgraph.azure.certificate;dashed=1;fontFamily=Helvetica;fontSize=14;fontColor=#004C99" parent="1" vertex="1">
          <mxGeometry x="998" y="399" width="50" height="40" as="geometry" />
        </mxCell>
        <mxCell id="2073" value="Enterprise&lt;div&gt;Services&lt;/div&gt;" style="verticalLabelPosition=bottom;html=1;verticalAlign=top;strokeColor=none;fillColor=#3399FF;shape=mxgraph.azure.enterprise;dashed=1;fontFamily=Helvetica;fontSize=14;fontColor=#004C99" parent="1" vertex="1">
          <mxGeometry x="1008" y="518" width="30" height="50" as="geometry" />
        </mxCell>
        <mxCell id="2074" value="Seminars" style="verticalLabelPosition=bottom;html=1;verticalAlign=top;strokeColor=none;fillColor=#3399FF;shape=mxgraph.azure.user;dashed=1;fontFamily=Helvetica;fontSize=14;fontColor=#004C99" parent="1" vertex="1">
          <mxGeometry x="1001" y="630" width="47.5" height="50" as="geometry" />
        </mxCell>
        <mxCell id="2075" value="" style="arrow;html=1;endArrow=block;endFill=1;strokeColor=none;strokeWidth=4;fontFamily=Helvetica;fontSize=36;fontColor=#FFB366;fillColor=#FFB366;" parent="1" edge="1">
          <mxGeometry width="100" height="100" relative="1" as="geometry">
            <mxPoint x="167" y="283" as="sourcePoint" />
            <mxPoint x="247" y="283" as="targetPoint" />
          </mxGeometry>
        </mxCell>
        <mxCell id="2076" value="" style="arrow;html=1;endArrow=block;endFill=1;strokeColor=none;strokeWidth=4;fontFamily=Helvetica;fontSize=36;fontColor=#FFB366;fillColor=#FFB366;opacity=100" parent="1" edge="1">
          <mxGeometry width="100" height="100" relative="1" as="geometry">
            <mxPoint x="347" y="283" as="sourcePoint" />
            <mxPoint x="427" y="283" as="targetPoint" />
          </mxGeometry>
        </mxCell>
        <mxCell id="2077" value="" style="arrow;html=1;endArrow=block;endFill=1;strokeColor=none;strokeWidth=4;fontFamily=Helvetica;fontSize=36;fontColor=#FFB366;fillColor=#FFB366;" parent="1" edge="1">
          <mxGeometry width="100" height="100" relative="1" as="geometry">
            <mxPoint x="527" y="360" as="sourcePoint" />
            <mxPoint x="607" y="360" as="targetPoint" />
          </mxGeometry>
        </mxCell>
        <mxCell id="2078" value="" style="arrow;html=1;endArrow=block;endFill=1;strokeColor=none;strokeWidth=4;fontFamily=Helvetica;fontSize=36;fontColor=#FFB366;fillColor=#FFB366;" parent="1" edge="1">
          <mxGeometry width="100" height="100" relative="1" as="geometry">
            <mxPoint x="714" y="426" as="sourcePoint" />
            <mxPoint x="794" y="426" as="targetPoint" />
          </mxGeometry>
        </mxCell>
        <mxCell id="2079" value="" style="arrow;html=1;endArrow=block;endFill=1;strokeColor=none;strokeWidth=4;fontFamily=Helvetica;fontSize=36;fontColor=#FFB366;fillColor=#FFB366;" parent="1" edge="1">
          <mxGeometry width="100" height="100" relative="1" as="geometry">
            <mxPoint x="714" y="270" as="sourcePoint" />
            <mxPoint x="794" y="270" as="targetPoint" />
          </mxGeometry>
        </mxCell>
        <mxCell id="2080" value="" style="arrow;html=1;endArrow=block;endFill=1;strokeColor=none;strokeWidth=4;fontFamily=Helvetica;fontSize=36;fontColor=#FFB366;fillColor=#FFB366;" parent="1" edge="1">
          <mxGeometry width="100" height="100" relative="1" as="geometry">
            <mxPoint x="887" y="438" as="sourcePoint" />
            <mxPoint x="967" y="438" as="targetPoint" />
          </mxGeometry>
        </mxCell>
        <mxCell id="2081" value="" style="arrow;html=1;endArrow=block;endFill=1;strokeColor=none;strokeWidth=4;fontFamily=Helvetica;fontSize=36;fontColor=#FFB366;fillColor=#FFB366;" parent="1" edge="1">
          <mxGeometry width="100" height="100" relative="1" as="geometry">
            <mxPoint x="894" y="664" as="sourcePoint" />
            <mxPoint x="974" y="664" as="targetPoint" />
          </mxGeometry>
        </mxCell>
        <mxCell id="2082" value="" style="arrow;html=1;endArrow=block;endFill=1;strokeColor=none;strokeWidth=4;fontFamily=Helvetica;fontSize=36;fontColor=#FFB366;fillColor=#FFB366;" parent="1" edge="1">
          <mxGeometry width="100" height="100" relative="1" as="geometry">
            <mxPoint x="707" y="639" as="sourcePoint" />
            <mxPoint x="787" y="639" as="targetPoint" />
          </mxGeometry>
        </mxCell>
        <mxCell id="2083" value="" style="arrow;html=1;endArrow=block;endFill=1;strokeColor=none;strokeWidth=4;fontFamily=Helvetica;fontSize=36;fontColor=#FFB366;fillColor=#FFB366;" parent="1" edge="1">
          <mxGeometry width="100" height="100" relative="1" as="geometry">
            <mxPoint x="534" y="624" as="sourcePoint" />
            <mxPoint x="614" y="624" as="targetPoint" />
          </mxGeometry>
        </mxCell>
        <mxCell id="2084" value="" style="arrow;html=1;endArrow=block;endFill=1;strokeColor=none;strokeWidth=4;fontFamily=Helvetica;fontSize=36;fontColor=#FFB366;fillColor=#FFB366;" parent="1" edge="1">
          <mxGeometry width="100" height="100" relative="1" as="geometry">
            <mxPoint x="347" y="536" as="sourcePoint" />
            <mxPoint x="427" y="536" as="targetPoint" />
          </mxGeometry>
        </mxCell>
        <mxCell id="2085" value="" style="arrow;html=1;endArrow=block;endFill=1;strokeColor=none;strokeWidth=4;fontFamily=Helvetica;fontSize=36;fontColor=#FFB366;fillColor=#FFB366;" parent="1" edge="1">
          <mxGeometry width="100" height="100" relative="1" as="geometry">
            <mxPoint x="174" y="688" as="sourcePoint" />
            <mxPoint x="254" y="688" as="targetPoint" />
          </mxGeometry>
        </mxCell>
      </root>
    </mxGraphModel>
  </diagram>
  <diagram id="uHZNyuzqFv1CQXKifO5q" name="Page-2">
    <mxGraphModel dx="1407" dy="745" grid="1" gridSize="10" guides="1" tooltips="1" connect="1" arrows="1" fold="1" page="1" pageScale="1" pageWidth="827" pageHeight="1169" math="0" shadow="0">
      <root>
        <mxCell id="weV_pYgRictKtLWvSeBu-0" />
        <mxCell id="weV_pYgRictKtLWvSeBu-1" parent="weV_pYgRictKtLWvSeBu-0" />
        <mxCell id="weV_pYgRictKtLWvSeBu-36" value="" style="whiteSpace=wrap;html=1;aspect=fixed;" vertex="1" parent="weV_pYgRictKtLWvSeBu-1">
          <mxGeometry x="414" y="585" width="184" height="184" as="geometry" />
        </mxCell>
        <mxCell id="weV_pYgRictKtLWvSeBu-14" value="" style="rounded=0;whiteSpace=wrap;html=1;" vertex="1" parent="weV_pYgRictKtLWvSeBu-1">
          <mxGeometry x="26" y="190" width="784" height="290" as="geometry" />
        </mxCell>
        <mxCell id="weV_pYgRictKtLWvSeBu-4" value="" style="rounded=0;whiteSpace=wrap;html=1;" vertex="1" parent="weV_pYgRictKtLWvSeBu-1">
          <mxGeometry x="36" y="250" width="570" height="220" as="geometry" />
        </mxCell>
        <mxCell id="weV_pYgRictKtLWvSeBu-2" value="&lt;b&gt;&lt;font style=&quot;font-size: 18px&quot;&gt;HDFS&lt;/font&gt;&lt;/b&gt;" style="rounded=0;whiteSpace=wrap;html=1;" vertex="1" parent="weV_pYgRictKtLWvSeBu-1">
          <mxGeometry x="46" y="400" width="550" height="60" as="geometry" />
        </mxCell>
        <mxCell id="weV_pYgRictKtLWvSeBu-3" value="" style="rounded=0;whiteSpace=wrap;html=1;" vertex="1" parent="weV_pYgRictKtLWvSeBu-1">
          <mxGeometry x="666" y="250" width="130" height="220" as="geometry" />
        </mxCell>
        <mxCell id="weV_pYgRictKtLWvSeBu-5" value="&lt;b&gt;&lt;font style=&quot;font-size: 14px&quot;&gt;Hadoop Map/Reduce&lt;/font&gt;&lt;/b&gt;" style="rounded=0;whiteSpace=wrap;html=1;" vertex="1" parent="weV_pYgRictKtLWvSeBu-1">
          <mxGeometry x="366" y="260" width="130" height="130" as="geometry" />
        </mxCell>
        <mxCell id="weV_pYgRictKtLWvSeBu-6" value="&lt;span style=&quot;font-size: 14px&quot;&gt;&lt;b&gt;Kafaka&lt;/b&gt;&lt;/span&gt;" style="rounded=0;whiteSpace=wrap;html=1;" vertex="1" parent="weV_pYgRictKtLWvSeBu-1">
          <mxGeometry x="676" y="370" width="110" height="90" as="geometry" />
        </mxCell>
        <mxCell id="weV_pYgRictKtLWvSeBu-8" value="&lt;b&gt;&lt;font style=&quot;font-size: 18px&quot;&gt;Hive&lt;/font&gt;&lt;/b&gt;" style="rounded=0;whiteSpace=wrap;html=1;" vertex="1" parent="weV_pYgRictKtLWvSeBu-1">
          <mxGeometry x="46" y="330" width="310" height="60" as="geometry" />
        </mxCell>
        <mxCell id="weV_pYgRictKtLWvSeBu-9" value="&lt;b&gt;&lt;font style=&quot;font-size: 18px&quot;&gt;Greenplum&lt;/font&gt;&lt;/b&gt;" style="rounded=0;whiteSpace=wrap;html=1;" vertex="1" parent="weV_pYgRictKtLWvSeBu-1">
          <mxGeometry x="46" y="260" width="180" height="60" as="geometry" />
        </mxCell>
        <mxCell id="weV_pYgRictKtLWvSeBu-10" value="&lt;b&gt;&lt;font style=&quot;font-size: 18px&quot;&gt;MongoDB&lt;/font&gt;&lt;/b&gt;" style="rounded=0;whiteSpace=wrap;html=1;" vertex="1" parent="weV_pYgRictKtLWvSeBu-1">
          <mxGeometry x="240" y="260" width="116" height="60" as="geometry" />
        </mxCell>
        <mxCell id="weV_pYgRictKtLWvSeBu-11" value="&lt;b&gt;&lt;font style=&quot;font-size: 14px&quot;&gt;Spark&lt;/font&gt;&lt;/b&gt;" style="rounded=0;whiteSpace=wrap;html=1;" vertex="1" parent="weV_pYgRictKtLWvSeBu-1">
          <mxGeometry x="506" y="260" width="90" height="130" as="geometry" />
        </mxCell>
        <mxCell id="weV_pYgRictKtLWvSeBu-12" value="&lt;span style=&quot;font-size: 14px&quot;&gt;&lt;b&gt;Spark Streaming&lt;/b&gt;&lt;/span&gt;" style="rounded=0;whiteSpace=wrap;html=1;" vertex="1" parent="weV_pYgRictKtLWvSeBu-1">
          <mxGeometry x="676" y="260" width="110" height="90" as="geometry" />
        </mxCell>
        <mxCell id="weV_pYgRictKtLWvSeBu-13" value="" style="shape=flexArrow;endArrow=classic;startArrow=classic;html=1;exitX=1;exitY=0.5;exitDx=0;exitDy=0;" edge="1" parent="weV_pYgRictKtLWvSeBu-1" source="weV_pYgRictKtLWvSeBu-4" target="weV_pYgRictKtLWvSeBu-3">
          <mxGeometry width="50" height="50" relative="1" as="geometry">
            <mxPoint x="606" y="380" as="sourcePoint" />
            <mxPoint x="656" y="380" as="targetPoint" />
          </mxGeometry>
        </mxCell>
        <mxCell id="weV_pYgRictKtLWvSeBu-15" value="&lt;span style=&quot;font-size: 24px&quot;&gt;&lt;b&gt;领事大数据平台基础架构&lt;/b&gt;&lt;/span&gt;" style="text;html=1;resizable=0;autosize=1;align=center;verticalAlign=middle;points=[];fillColor=none;strokeColor=none;rounded=0;" vertex="1" parent="weV_pYgRictKtLWvSeBu-1">
          <mxGeometry x="274" y="210" width="280" height="20" as="geometry" />
        </mxCell>
        <mxCell id="weV_pYgRictKtLWvSeBu-16" value="" style="shape=image;verticalLabelPosition=bottom;labelBackgroundColor=#ffffff;verticalAlign=top;aspect=fixed;imageAspect=0;image=data:image/svg+xml,PHN2ZyB4bWxuczpjYz0iaHR0cDovL2NyZWF0aXZlY29tbW9ucy5vcmcvbnMjIiB4bWxuczpkYz0iaHR0cDovL3B1cmwub3JnL2RjL2VsZW1lbnRzLzEuMS8iIHhtbG5zOmlua3NjYXBlPSJodHRwOi8vd3d3Lmlua3NjYXBlLm9yZy9uYW1lc3BhY2VzL2lua3NjYXBlIiB4bWxuczpyZGY9Imh0dHA6Ly93d3cudzMub3JnLzE5OTkvMDIvMjItcmRmLXN5bnRheC1ucyMiIHhtbG5zOnNvZGlwb2RpPSJodHRwOi8vc29kaXBvZGkuc291cmNlZm9yZ2UubmV0L0RURC9zb2RpcG9kaS0wLmR0ZCIgeG1sbnM6c3ZnPSJodHRwOi8vd3d3LnczLm9yZy8yMDAwL3N2ZyIgeG1sbnM9Imh0dHA6Ly93d3cudzMub3JnLzIwMDAvc3ZnIiB4bWxuczp4bGluaz0iaHR0cDovL3d3dy53My5vcmcvMTk5OS94bGluayIgdmVyc2lvbj0iMS4xIiBpZD0ic3ZnMjkxMyIgaW5rc2NhcGU6dmVyc2lvbj0iMC45Mi4zICgyNDA1NTQ2LCAyMDE4LTAzLTExKSIgc29kaXBvZGk6ZG9jbmFtZT0iZGV2aWNlX2Rlc2t0b3Auc3ZnIiB4PSIwcHgiIHk9IjBweCIgdmlld0JveD0iMCAwIDcyLjk5IDU1IiBzdHlsZT0iZW5hYmxlLWJhY2tncm91bmQ6bmV3IDAgMCA3Mi45OSA1NTsiIHhtbDpzcGFjZT0icHJlc2VydmUiPiYjeGE7PHNvZGlwb2RpOm5hbWVkdmlldyBib3JkZXJjb2xvcj0iIzY2NjY2NiIgYm9yZGVyb3BhY2l0eT0iMSIgZml0LW1hcmdpbi1ib3R0b209IjAiIGZpdC1tYXJnaW4tbGVmdD0iMCIgZml0LW1hcmdpbi1yaWdodD0iMCIgZml0LW1hcmdpbi10b3A9IjAiIGdyaWR0b2xlcmFuY2U9IjEwIiBndWlkZXRvbGVyYW5jZT0iMTAiIGlkPSJuYW1lZHZpZXcyOTE1IiBpbmtzY2FwZTpjdXJyZW50LWxheWVyPSJzdmcyOTEzIiBpbmtzY2FwZTpjeD0iNDguNjYyNDAxIiBpbmtzY2FwZTpjeT0iMzYuNjY1ODMxIiBpbmtzY2FwZTpwYWdlb3BhY2l0eT0iMCIgaW5rc2NhcGU6cGFnZXNoYWRvdz0iMiIgaW5rc2NhcGU6d2luZG93LWhlaWdodD0iMTAxNyIgaW5rc2NhcGU6d2luZG93LW1heGltaXplZD0iMSIgaW5rc2NhcGU6d2luZG93LXdpZHRoPSIxOTIwIiBpbmtzY2FwZTp3aW5kb3cteD0iLTgiIGlua3NjYXBlOndpbmRvdy15PSItOCIgaW5rc2NhcGU6em9vbT0iMTEuODIyNDc4IiBvYmplY3R0b2xlcmFuY2U9IjEwIiBwYWdlY29sb3I9IiNmZmZmZmYiIHNob3dncmlkPSJmYWxzZSI+JiN4YTsJPC9zb2RpcG9kaTpuYW1lZHZpZXc+JiN4YTs8ZyBpZD0iZzI5MTEiIHRyYW5zZm9ybT0idHJhbnNsYXRlKDAsLTEuMDQ2MzEwOWUtNCkiPiYjeGE7CTx0aXRsZSBpZD0idGl0bGUyODkxIj5QYWdlLTE8L3RpdGxlPiYjeGE7CTxnIGlkPSJncm91cDM1MDUtMSI+JiN4YTsJCTx0aXRsZSBpZD0idGl0bGUyODkzIj5EZXZpY2U6IERlc2t0b3A8L3RpdGxlPiYjeGE7CQk8ZyBpZD0ic2hhcGUzNTA2LTIiPiYjeGE7CQkJPHRpdGxlIGlkPSJ0aXRsZTI4OTUiPlNoZWV0LjM1MDY8L3RpdGxlPiYjeGE7CQkJPHBhdGggaWQ9InBhdGgyODk3IiBpbmtzY2FwZTpjb25uZWN0b3ItY3VydmF0dXJlPSIwIiBzdHlsZT0iZmlsbDojM0Y1NzY1OyIgZD0iTTcxLDBDMi4wMSwwLDIuMDEsMCwyLjAxLDBDMC45MywwLDAsMC45LDAsMi4wMSAgICAgYzAsNDAuOCwwLDQwLjgsMCw0MC44YzAsMS4xMSwwLjkzLDIuMDEsMi4wMSwyLjAxYzI2Ljk3LDAsMjYuOTcsMCwyNi45NywwYzAsNS43LDAsNS43LDAsNS43Yy03LjY0LDAtNy42NCwwLTcuNjQsMCAgICAgYy0wLjk5LDAtMC45OSwwLTAuOTksMGMtMC41NiwyLjAxLTAuNTYsMi4wMS0wLjU2LDIuMDFjLTAuMzMsMS4wOC0wLjMzLDEuMDgtMC4zMywxLjA4bDAsMEMxOS4wNyw1NSwxOS4wNyw1NSwxOS4wNyw1NSAgICAgYzEuMDQsMCwxLjA0LDAsMS4wNCwwYzM0LjQ0LDAsMzQuNDQsMCwzNC40NCwwYzEuMDQsMCwxLjA0LDAsMS4wNCwwYy0wLjM5LTEuMzktMC4zOS0xLjM5LTAuMzktMS4zOWwwLDAgICAgIGMtMC4zNS0xLjA4LTAuMzUtMS4wOC0wLjM1LTEuMDhjLTAuNTUtMi4wMS0wLjU1LTIuMDEtMC41NS0yLjAxYy0wLjk4LDAtMC45OCwwLTAuOTgsMGMtOC4xOCwwLTguMTgsMC04LjE4LDBjMC01LjcsMC01LjcsMC01LjcgICAgIGMyNS44NiwwLDI1Ljg2LDAsMjUuODYsMGMxLjExLDAsMS45OS0wLjksMS45OS0yLjAxYzAtNDAuOCwwLTQwLjgsMC00MC44QzcyLjk5LDAuOSw3Mi4xMSwwLDcxLDB6Ii8+JiN4YTsJCTwvZz4mI3hhOwkJPGcgaWQ9InNoYXBlMzUwNy00IiB0cmFuc2Zvcm09InRyYW5zbGF0ZSgyLjc2MTI4LC0xMy45MDAxKSI+JiN4YTsJCQk8dGl0bGUgaWQ9InRpdGxlMjkwMCI+U2hlZXQuMzUwNzwvdGl0bGU+JiN4YTsJCQk8cGF0aCBpZD0icGF0aDI5MDIiIGlua3NjYXBlOmNvbm5lY3Rvci1jdXJ2YXR1cmU9IjAiIHN0eWxlPSJmaWxsOiM4RDlGQjA7IiBkPSJNMCwxNy4xNFY1NWg2Ny4yM1YxNy4xNEgweiIvPiYjeGE7CQk8L2c+JiN4YTsJCTxnIGlkPSJzaGFwZTM1MDgtNiIgdHJhbnNmb3JtPSJ0cmFuc2xhdGUoMzAuNjE0MiwtMjQuODA0NCkiPiYjeGE7CQkJPHRpdGxlIGlkPSJ0aXRsZTI5MDUiPlNoZWV0LjM1MDg8L3RpdGxlPiYjeGE7CQkJPHBhdGggaWQ9InBhdGgyOTA3IiBpbmtzY2FwZTpjb25uZWN0b3ItY3VydmF0dXJlPSIwIiBzdHlsZT0iZmlsbDojRkZGRkZGOyIgZD0iTTUuMjQsNDQuMjhjNi41My0wLjksNi41My0wLjksNi41My0wLjkgICAgIGMwLDUuNjcsMCw1LjY3LDAsNS42N2MtNi41MywwLTYuNTMsMC02LjUzLDBDNS4yNCw0NC4yOCw1LjI0LDQ0LjI4LDUuMjQsNDQuMjhDNS4yNCw0NC4yOCw1LjI0LDQ0LjI4LDUuMjQsNDQuMjh6IE01LjA0LDQ5LjA1ICAgICBjMC00Ljc3LDAtNC43NywwLTQuNzdDMCw0NC45OCwwLDQ0Ljk4LDAsNDQuOThjMCw0LjA3LDAsNC4wNywwLDQuMDdDNS4wNCw0OS4wNSw1LjA0LDQ5LjA1LDUuMDQsNDkuMDVMNS4wNCw0OS4wNXogTTUuMjQsNDkuMjUgICAgIGMwLDQuODcsMCw0Ljg3LDAsNC44N0MxMS43Nyw1NSwxMS43Nyw1NSwxMS43Nyw1NWMwLTUuNzUsMC01Ljc1LDAtNS43NUM1LjI0LDQ5LjI1LDUuMjQsNDkuMjUsNS4yNCw0OS4yNSAgICAgQzUuMjQsNDkuMjUsNS4yNCw0OS4yNSw1LjI0LDQ5LjI1eiBNNS4wNCw0OS4yNWMtNS4wNCwwLTUuMDQsMC01LjA0LDBjMCw0LjA3LDAsNC4wNywwLDQuMDdjNS4wNCwwLjY5LDUuMDQsMC42OSw1LjA0LDAuNjkgICAgIEM1LjA0LDQ5LjI1LDUuMDQsNDkuMjUsNS4wNCw0OS4yNUw1LjA0LDQ5LjI1eiIvPiYjeGE7CQk8L2c+JiN4YTsJPC9nPiYjeGE7PC9nPiYjeGE7PC9zdmc+;" vertex="1" parent="weV_pYgRictKtLWvSeBu-1">
          <mxGeometry x="8.94" y="704.54" width="73" height="55" as="geometry" />
        </mxCell>
        <mxCell id="weV_pYgRictKtLWvSeBu-17" value="" style="shape=image;verticalLabelPosition=bottom;labelBackgroundColor=#ffffff;verticalAlign=top;aspect=fixed;imageAspect=0;image=data:image/svg+xml,PHN2ZyB4bWxuczpjYz0iaHR0cDovL2NyZWF0aXZlY29tbW9ucy5vcmcvbnMjIiB4bWxuczpkYz0iaHR0cDovL3B1cmwub3JnL2RjL2VsZW1lbnRzLzEuMS8iIHhtbG5zOmlua3NjYXBlPSJodHRwOi8vd3d3Lmlua3NjYXBlLm9yZy9uYW1lc3BhY2VzL2lua3NjYXBlIiB4bWxuczpyZGY9Imh0dHA6Ly93d3cudzMub3JnLzE5OTkvMDIvMjItcmRmLXN5bnRheC1ucyMiIHhtbG5zOnNvZGlwb2RpPSJodHRwOi8vc29kaXBvZGkuc291cmNlZm9yZ2UubmV0L0RURC9zb2RpcG9kaS0wLmR0ZCIgeG1sbnM6c3ZnPSJodHRwOi8vd3d3LnczLm9yZy8yMDAwL3N2ZyIgeG1sbnM9Imh0dHA6Ly93d3cudzMub3JnLzIwMDAvc3ZnIiB4bWxuczp4bGluaz0iaHR0cDovL3d3dy53My5vcmcvMTk5OS94bGluayIgdmVyc2lvbj0iMS4xIiBpZD0ic3ZnMjY3OCIgaW5rc2NhcGU6dmVyc2lvbj0iMC45Mi4zICgyNDA1NTQ2LCAyMDE4LTAzLTExKSIgc29kaXBvZGk6ZG9jbmFtZT0iZGV2aWNlX2FuZHJvaWRfMS5zdmciIHg9IjBweCIgeT0iMHB4IiB2aWV3Qm94PSIwIDAgMzUuMTggNjcuODUiIHN0eWxlPSJlbmFibGUtYmFja2dyb3VuZDpuZXcgMCAwIDM1LjE4IDY3Ljg1OyIgeG1sOnNwYWNlPSJwcmVzZXJ2ZSI+JiN4YTs8c29kaXBvZGk6bmFtZWR2aWV3IGJvcmRlcmNvbG9yPSIjNjY2NjY2IiBib3JkZXJvcGFjaXR5PSIxIiBmaXQtbWFyZ2luLWJvdHRvbT0iMCIgZml0LW1hcmdpbi1sZWZ0PSIwIiBmaXQtbWFyZ2luLXJpZ2h0PSIwIiBmaXQtbWFyZ2luLXRvcD0iMCIgZ3JpZHRvbGVyYW5jZT0iMTAiIGd1aWRldG9sZXJhbmNlPSIxMCIgaWQ9Im5hbWVkdmlldzI2ODAiIGlua3NjYXBlOmN1cnJlbnQtbGF5ZXI9InN2ZzI2NzgiIGlua3NjYXBlOmN4PSIyMy40NTA4OCIgaW5rc2NhcGU6Y3k9IjQ1LjI0MDkyOCIgaW5rc2NhcGU6cGFnZW9wYWNpdHk9IjAiIGlua3NjYXBlOnBhZ2VzaGFkb3c9IjIiIGlua3NjYXBlOndpbmRvdy1oZWlnaHQ9IjEwMTciIGlua3NjYXBlOndpbmRvdy1tYXhpbWl6ZWQ9IjEiIGlua3NjYXBlOndpbmRvdy13aWR0aD0iMTkyMCIgaW5rc2NhcGU6d2luZG93LXg9Ii04IiBpbmtzY2FwZTp3aW5kb3cteT0iLTgiIGlua3NjYXBlOnpvb209IjkuNTg1MzcwNiIgb2JqZWN0dG9sZXJhbmNlPSIxMCIgcGFnZWNvbG9yPSIjZmZmZmZmIiBzaG93Z3JpZD0iZmFsc2UiPiYjeGE7CTwvc29kaXBvZGk6bmFtZWR2aWV3PiYjeGE7PGcgaWQ9ImcyNjc2Ij4mI3hhOwk8dGl0bGUgaWQ9InRpdGxlMjYzNiI+UGFnZS0xPC90aXRsZT4mI3hhOwk8ZyBpZD0iZ3JvdXAzNDkxLTEiPiYjeGE7CQk8dGl0bGUgaWQ9InRpdGxlMjYzOCI+RGV2aWNlOiBBbmRyb2lkICMxPC90aXRsZT4mI3hhOwkJPGcgaWQ9InNoYXBlMzQ5Mi0yIj4mI3hhOwkJCTx0aXRsZSBpZD0idGl0bGUyNjQwIj5TaGVldC4zNDkyPC90aXRsZT4mI3hhOwkJCTxwYXRoIGlkPSJwYXRoMjY0MiIgaW5rc2NhcGU6Y29ubmVjdG9yLWN1cnZhdHVyZT0iMCIgc3R5bGU9ImZpbGw6IzNGNTc2NTsiIGQ9Ik0zNC42OCw4LjdjLTAuMDYsMC0wLjA2LDAtMC4wNiwwICAgICBjMC00Ljc2LDAtNC43NiwwLTQuNzZjMC0xLjgzLTEuNDgtMi44OC0zLjMyLTIuODhjMCwwLTMuMjItMS4wNi0xMy4yNi0xLjA2QzcuOTQsMCwzLjg5LDEuMDYsMy44OSwxLjA2ICAgICBjLTEuODMsMC0zLjMzLDEuMDUtMy4zMywyLjg4YzAsOS41NywwLDkuNTcsMCw5LjU3QzAuMjMsMTMuOCwwLDE0LjE4LDAsMTQuNjhjMCw4LjI1LDAsOC4yNSwwLDguMjVjMCwwLjUsMC4yMywwLjg5LDAuNTYsMS4xNyAgICAgYzAsNDAuNDEsMCw0MC40MSwwLDQwLjQxYzAsMS44MywxLjUsMi43MSwzLjMzLDIuNzFjMCwwLDUuMSwwLjcyLDEzLjg4LDAuNjJjOC44MS0wLjExLDEzLjUzLTAuNjIsMTMuNTMtMC42MiAgICAgYzEuODQsMCwzLjMyLTAuODgsMy4zMi0yLjcxYzAtNTEuMzMsMC01MS4zMywwLTUxLjMzczAsMCwwLjA2LDBjMC4yOSwwLDAuNS0wLjIxLDAuNS0wLjQ5YzAtMy40OSwwLTMuNDksMC0zLjQ5ICAgICBDMzUuMTgsOC45MywzNC45Nyw4LjcsMzQuNjgsOC43eiIvPiYjeGE7CQk8L2c+JiN4YTsJCTxnIGlkPSJzaGFwZTM0OTMtNCIgdHJhbnNmb3JtPSJ0cmFuc2xhdGUoMy4wMDEzOSwtNy44MDM4MSkiPiYjeGE7CQkJPHRpdGxlIGlkPSJ0aXRsZTI2NDUiPlNoZWV0LjM0OTM8L3RpdGxlPiYjeGE7CQkJPHBhdGggaWQ9InBhdGgyNjQ3IiBpbmtzY2FwZTpjb25uZWN0b3ItY3VydmF0dXJlPSIwIiBzdHlsZT0iZmlsbDojOEQ5RkIwOyIgZD0iTTAsMTMuNTZ2NTQuMjhoMjkuMTdWMTMuNTZIMHoiLz4mI3hhOwkJPC9nPiYjeGE7CQk8ZyBpZD0ic2hhcGUzNDk0LTYiIHRyYW5zZm9ybT0idHJhbnNsYXRlKDE2LjY4NzcsLTYzLjQwNDEpIj4mI3hhOwkJCTx0aXRsZSBpZD0idGl0bGUyNjUwIj5TaGVldC4zNDk0PC90aXRsZT4mI3hhOwkJCTxwYXRoIGlkPSJwYXRoMjY1MiIgaW5rc2NhcGU6Y29ubmVjdG9yLWN1cnZhdHVyZT0iMCIgc3R5bGU9ImZpbGw6IzhFOUZCMDsiIGQ9Ik0wLDY2Ljk0YzAtMC41LDAuMzktMC45LDAuODQtMC45ICAgICBjMC40NywwLDAuODQsMC40LDAuODQsMC45YzAsMC41MS0wLjM3LDAuOS0wLjg0LDAuOUMwLjM5LDY3Ljg0LDAsNjcuNDUsMCw2Ni45NHoiLz4mI3hhOwkJPC9nPiYjeGE7CQk8ZyBpZD0ic2hhcGUzNDk1LTgiIHRyYW5zZm9ybT0idHJhbnNsYXRlKDUuNjQyNjEsLTYzLjg4MzQpIj4mI3hhOwkJCTx0aXRsZSBpZD0idGl0bGUyNjU1Ij5TaGVldC4zNDk1PC90aXRsZT4mI3hhOwkJCTxwYXRoIGlkPSJwYXRoMjY1NyIgaW5rc2NhcGU6Y29ubmVjdG9yLWN1cnZhdHVyZT0iMCIgc3R5bGU9ImZpbGw6IzhFOUZCMDsiIGQ9Ik0wLDY3LjQyQzAsNjcuMTksMC4yLDY3LDAuNDIsNjcgICAgIGMwLjI0LDAsMC40MiwwLjE5LDAuNDIsMC40MmMwLDAuMjQtMC4xOCwwLjQyLTAuNDIsMC40MkMwLjIsNjcuODQsMCw2Ny42NiwwLDY3LjQyeiIvPiYjeGE7CQk8L2c+JiN4YTsJCTxnIGlkPSJzaGFwZTM0OTYtMTAiIHRyYW5zZm9ybT0idHJhbnNsYXRlKDEwLjIwNDcsLTMwLjgxMDgpIj4mI3hhOwkJCTx0aXRsZSBpZD0idGl0bGUyNjYwIj5TaGVldC4zNDk2PC90aXRsZT4mI3hhOwkJCTxwYXRoIGlkPSJwYXRoMjY2MiIgaW5rc2NhcGU6Y29ubmVjdG9yLWN1cnZhdHVyZT0iMCIgc3R5bGU9ImZpbGw6I0ZGRkZGRjsiIGQ9Ik0xMy43Miw2MS40OWMtMC41NywwLTEuMDUsMC40OS0xLjA1LDEuMDkgICAgIGMwLDQuMTgsMCw0LjE4LDAsNC4xOGMwLDAuNiwwLjQ4LDEuMDgsMS4wNSwxLjA4YzAuNTgsMCwxLjA1LTAuNDgsMS4wNS0xLjA4YzAtNC4xOCwwLTQuMTgsMC00LjE4ICAgICBDMTQuNzcsNjEuOTgsMTQuMyw2MS40OSwxMy43Miw2MS40OXogTTEuMDcsNjEuNDlDMC40OCw2MS40OSwwLDYxLjk4LDAsNjIuNThjMCw0LjE4LDAsNC4xOCwwLDQuMThjMCwwLjYsMC40OCwxLjA4LDEuMDcsMS4wOCAgICAgYzAuNTcsMCwxLjA1LTAuNDgsMS4wNS0xLjA4YzAtNC4xOCwwLTQuMTgsMC00LjE4QzIuMTIsNjEuOTgsMS42NCw2MS40OSwxLjA3LDYxLjQ5eiIvPiYjeGE7CQk8L2c+JiN4YTsJCTxnIGlkPSJzaGFwZTM0OTctMTIiIHRyYW5zZm9ybT0idHJhbnNsYXRlKDEyLjk2NiwtMjUuMjk4NykiPiYjeGE7CQkJPHRpdGxlIGlkPSJ0aXRsZTI2NjUiPlNoZWV0LjM0OTc8L3RpdGxlPiYjeGE7CQkJPHBhdGggaWQ9InBhdGgyNjY3IiBpbmtzY2FwZTpjb25uZWN0b3ItY3VydmF0dXJlPSIwIiBzdHlsZT0iZmlsbDojRkZGRkZGOyIgZD0iTTAsNTYuMDljMCw3LjU4LDAsNy41OCwwLDcuNTggICAgIGMwLDAuNDUsMC4zNiwwLjgxLDAuODEsMC44MWMwLjkzLDAsMC45MywwLDAuOTMsMGMwLDIuMjksMCwyLjI5LDAsMi4yOWMwLDAuNiwwLjQ3LDEuMDcsMS4wNCwxLjA3czEuMDUtMC40NywxLjA1LTEuMDcgICAgIGMwLTIuMjksMC0yLjI5LDAtMi4yOWMxLjYsMCwxLjYsMCwxLjYsMGMwLDIuMjksMCwyLjI5LDAsMi4yOWMwLDAuNiwwLjQ4LDEuMDcsMS4wNSwxLjA3czEuMDQtMC40NywxLjA0LTEuMDcgICAgIGMwLTIuMjksMC0yLjI5LDAtMi4yOWMwLjkzLDAsMC45MywwLDAuOTMsMGMwLjQ1LDAsMC43OS0wLjM2LDAuNzktMC44MWMwLTcuNTgsMC03LjU4LDAtNy41OEwwLDU2LjA5eiIvPiYjeGE7CQk8L2c+JiN4YTsJCTxnIGlkPSJzaGFwZTM0OTgtMTQiIHRyYW5zZm9ybT0idHJhbnNsYXRlKDEyLjk2NiwtMzcuNzYwOSkiPiYjeGE7CQkJPHRpdGxlIGlkPSJ0aXRsZTI2NzAiPlNoZWV0LjM0OTg8L3RpdGxlPiYjeGE7CQkJPHBhdGggaWQ9InBhdGgyNjcyIiBpbmtzY2FwZTpjb25uZWN0b3ItY3VydmF0dXJlPSIwIiBzdHlsZT0iZmlsbDojRkZGRkZGOyIgZD0iTTYuODMsNjQuNTZjMC44NS0xLjI1LDAuODUtMS4yNSwwLjg1LTEuMjUgICAgIGMwLjA1LTAuMDcsMC4wMy0wLjE2LTAuMDEtMC4yMWMtMC4wOC0wLjA2LTAuMTctMC4wMy0wLjIzLDAuMDVjLTAuOSwxLjMyLTAuOSwxLjMyLTAuOSwxLjMyYy0wLjU4LTAuMjQtMS4yMy0wLjM5LTEuOTItMC4zOSAgICAgYy0wLjY3LDAtMS4zMiwwLjE1LTEuOSwwLjM5Yy0wLjktMS4zMi0wLjktMS4zMi0wLjktMS4zMmMtMC4wNi0wLjA4LTAuMTUtMC4xMS0wLjIzLTAuMDVjLTAuMDQsMC4wNS0wLjA2LDAuMTQtMC4wMSwwLjIxICAgICBjMC44NSwxLjI1LDAuODUsMS4yNSwwLjg1LDEuMjVDMS4wOCw2NS4yLDAuMTIsNjYuNDMsMCw2Ny44NGM5LjI0LDAsOS4yNCwwLDkuMjQsMEM5LjE0LDY2LjQzLDguMTgsNjUuMiw2LjgzLDY0LjU2eiAgICAgIE0yLjY5LDY2LjU1Yy0wLjI5LDAtMC41My0wLjI0LTAuNTMtMC41MmMwLTAuMjcsMC4yNC0wLjUxLDAuNTMtMC41MWMwLjI4LDAsMC40OSwwLjI0LDAuNDksMC41MSAgICAgQzMuMTgsNjYuMzEsMi45Nyw2Ni41NSwyLjY5LDY2LjU1eiBNNi42NSw2Ni41NWMtMC4yOSwwLTAuNS0wLjI0LTAuNS0wLjUyYzAtMC4yNywwLjIxLTAuNTEsMC41LTAuNTEgICAgIGMwLjI4LDAsMC41MSwwLjI0LDAuNTEsMC41MUM3LjE2LDY2LjMxLDYuOTMsNjYuNTUsNi42NSw2Ni41NXoiLz4mI3hhOwkJPC9nPiYjeGE7CTwvZz4mI3hhOzwvZz4mI3hhOzwvc3ZnPg==;" vertex="1" parent="weV_pYgRictKtLWvSeBu-1">
          <mxGeometry x="27.939999999999998" y="604.29" width="35" height="68" as="geometry" />
        </mxCell>
        <mxCell id="weV_pYgRictKtLWvSeBu-19" value="" style="shape=image;verticalLabelPosition=bottom;labelBackgroundColor=#ffffff;verticalAlign=top;aspect=fixed;imageAspect=0;image=data:image/svg+xml,PHN2ZyB4bWxuczpjYz0iaHR0cDovL2NyZWF0aXZlY29tbW9ucy5vcmcvbnMjIiB4bWxuczpkYz0iaHR0cDovL3B1cmwub3JnL2RjL2VsZW1lbnRzLzEuMS8iIHhtbG5zOmlua3NjYXBlPSJodHRwOi8vd3d3Lmlua3NjYXBlLm9yZy9uYW1lc3BhY2VzL2lua3NjYXBlIiB4bWxuczpyZGY9Imh0dHA6Ly93d3cudzMub3JnLzE5OTkvMDIvMjItcmRmLXN5bnRheC1ucyMiIHhtbG5zOnNvZGlwb2RpPSJodHRwOi8vc29kaXBvZGkuc291cmNlZm9yZ2UubmV0L0RURC9zb2RpcG9kaS0wLmR0ZCIgeG1sbnM6c3ZnPSJodHRwOi8vd3d3LnczLm9yZy8yMDAwL3N2ZyIgeG1sbnM9Imh0dHA6Ly93d3cudzMub3JnLzIwMDAvc3ZnIiB4bWxuczp4bGluaz0iaHR0cDovL3d3dy53My5vcmcvMTk5OS94bGluayIgdmVyc2lvbj0iMS4xIiBpZD0ic3ZnOTA4MDciIGlua3NjYXBlOnZlcnNpb249IjAuOTIuMyAoMjQwNTU0NiwgMjAxOC0wMy0xMSkiIHNvZGlwb2RpOmRvY25hbWU9InBvc3RncmVzcWwuc3ZnIiB4PSIwcHgiIHk9IjBweCIgdmlld0JveD0iMCAwIDI4LjUxIDM3LjQ1IiBzdHlsZT0iZW5hYmxlLWJhY2tncm91bmQ6bmV3IDAgMCAyOC41MSAzNy40NTsiIHhtbDpzcGFjZT0icHJlc2VydmUiPiYjeGE7PHNvZGlwb2RpOm5hbWVkdmlldyBib3JkZXJjb2xvcj0iIzY2NjY2NiIgYm9yZGVyb3BhY2l0eT0iMSIgZml0LW1hcmdpbi1ib3R0b209IjAiIGZpdC1tYXJnaW4tbGVmdD0iMCIgZml0LW1hcmdpbi1yaWdodD0iMCIgZml0LW1hcmdpbi10b3A9IjAiIGdyaWR0b2xlcmFuY2U9IjEwIiBndWlkZXRvbGVyYW5jZT0iMTAiIGlkPSJuYW1lZHZpZXc5MDgwOSIgaW5rc2NhcGU6Y3VycmVudC1sYXllcj0ic3ZnOTA4MDciIGlua3NjYXBlOmN4PSIzMy4wMjY1OTYiIGlua3NjYXBlOmN5PSIyMi4yNDk0MjciIGlua3NjYXBlOnBhZ2VvcGFjaXR5PSIwIiBpbmtzY2FwZTpwYWdlc2hhZG93PSIyIiBpbmtzY2FwZTp3aW5kb3ctaGVpZ2h0PSIxMDE3IiBpbmtzY2FwZTp3aW5kb3ctbWF4aW1pemVkPSIxIiBpbmtzY2FwZTp3aW5kb3ctd2lkdGg9IjE5MjAiIGlua3NjYXBlOndpbmRvdy14PSItOCIgaW5rc2NhcGU6d2luZG93LXk9Ii04IiBpbmtzY2FwZTp6b29tPSIxMS44MDQ2MzIiIG9iamVjdHRvbGVyYW5jZT0iMTAiIHBhZ2Vjb2xvcj0iI2ZmZmZmZiIgc2hvd2dyaWQ9ImZhbHNlIj4mI3hhOwk8L3NvZGlwb2RpOm5hbWVkdmlldz4mI3hhOzxnIGlkPSJnOTA4MDUiIHRyYW5zZm9ybT0idHJhbnNsYXRlKC0wLjc1LC0wLjc1MTkpIj4mI3hhOwk8dGl0bGUgaWQ9InRpdGxlOTA3MDUiPlBhZ2UtMTwvdGl0bGU+JiN4YTsJPGcgaWQ9Imdyb3VwNDk0Ni0xIiB0cmFuc2Zvcm09InRyYW5zbGF0ZSgwLjc1LC0wLjc1KSI+JiN4YTsJCTx0aXRsZSBpZD0idGl0bGU5MDcwNyI+UG9zdGdyZVNRTC40OTA8L3RpdGxlPiYjeGE7CQk8ZyBpZD0iZ3JvdXA0OTQ3LTIiPiYjeGE7CQkJPHRpdGxlIGlkPSJ0aXRsZTkwNzA5Ij5DSGVja21hcmtfMjwvdGl0bGU+JiN4YTsJCQk8ZyBpZD0ic2hhcGU0OTQ4LTMiPiYjeGE7CQkJCTx0aXRsZSBpZD0idGl0bGU5MDcxMSI+cGF0aDM2ODY8L3RpdGxlPiYjeGE7CQkJCTxwYXRoIGlkPSJwYXRoOTA3MTMiIGlua3NjYXBlOmNvbm5lY3Rvci1jdXJ2YXR1cmU9IjAiIHN0eWxlPSJmaWxsOiMzOTk4QzU7IiBkPSJNMCw2LjQ4djI3LjQ1YzAsMi44OCw2LjM2LDUuMDIsMTQuMTcsNS4wMiAgICAgIFY2LjQ4SDB6Ii8+JiN4YTsJCQk8L2c+JiN4YTsJCQk8ZyBpZD0ic2hhcGU0OTQ5LTUiIHRyYW5zZm9ybT0idHJhbnNsYXRlKDE0LjE3MDEpIj4mI3hhOwkJCQk8dGl0bGUgaWQ9InRpdGxlOTA3MTYiPnBhdGgzNjg4PC90aXRsZT4mI3hhOwkJCQk8cGF0aCBpZD0icGF0aDkwNzE4IiBpbmtzY2FwZTpjb25uZWN0b3ItY3VydmF0dXJlPSIwIiBzdHlsZT0iZmlsbDojNTlCM0Q4OyIgZD0iTTAsMzguOTVoMC4wOGM3Ljc1LDAsMTQuMDktMi4yNywxNC4wOS01LjE1ICAgICAgVjYuNDhIMFYzOC45NXoiLz4mI3hhOwkJCTwvZz4mI3hhOwkJCTxnIGlkPSJzaGFwZTQ5NTAtNyIgdHJhbnNmb3JtPSJ0cmFuc2xhdGUoMCwtMjcuMTE4MSkiPiYjeGE7CQkJCTx0aXRsZSBpZD0idGl0bGU5MDcyMSI+cGF0aDM2OTA8L3RpdGxlPiYjeGE7CQkJCTxwYXRoIGlkPSJwYXRoOTA3MjMiIGlua3NjYXBlOmNvbm5lY3Rvci1jdXJ2YXR1cmU9IjAiIHN0eWxlPSJmaWxsOiNGRkZGRkY7IiBkPSJNMjguNTEsMzMuNzljMCwyLjgtNi4zOSw1LjE2LTE0LjIyLDUuMTYgICAgICBDNi40NywzOC45NSwwLDM2LjU5LDAsMzMuNzlzNi4zOS01LjE3LDE0LjIyLTUuMTdTMjguNTEsMzAuOTgsMjguNTEsMzMuNzl6Ii8+JiN4YTsJCQk8L2c+JiN4YTsJCQk8ZyBpZD0ic2hhcGU0OTUxLTkiIHRyYW5zZm9ybT0idHJhbnNsYXRlKDIuODg3MTcsLTI5LjE2NjkpIj4mI3hhOwkJCQk8dGl0bGUgaWQ9InRpdGxlOTA3MjYiPnBhdGgzNjkyPC90aXRsZT4mI3hhOwkJCQk8cGF0aCBpZD0icGF0aDkwNzI4IiBpbmtzY2FwZTpjb25uZWN0b3ItY3VydmF0dXJlPSIwIiBzdHlsZT0iZmlsbDojN0ZCOTAwOyIgZD0iTTIyLjc0LDM1LjUzYzAsMS45LTUuMSwzLjQyLTExLjMzLDMuNDIgICAgICBDNS4xNywzOC45NSwwLDM3LjQ2LDAsMzUuNTNjMC0xLjkyLDUuMS0zLjQyLDExLjMzLTMuNDJDMTcuNTcsMzIuMTEsMjIuNzQsMzMuNjMsMjIuNzQsMzUuNTN6Ii8+JiN4YTsJCQk8L2c+JiN4YTsJCQk8ZyBpZD0ic2hhcGU0OTUyLTExIiB0cmFuc2Zvcm09InRyYW5zbGF0ZSgyLjg4NzE3LC0zMC41MzA3KSI+JiN4YTsJCQkJPHRpdGxlIGlkPSJ0aXRsZTkwNzMxIj5wYXRoMzY5NDwvdGl0bGU+JiN4YTsJCQkJPHBhdGggaWQ9InBhdGg5MDczMyIgaW5rc2NhcGU6Y29ubmVjdG9yLWN1cnZhdHVyZT0iMCIgc3R5bGU9ImZpbGw6I0I3RDMzMjsiIGQ9Ik0yMC4zLDM4Ljk1YzEuNTMtMC41OSwyLjM3LTEuMjksMi4zNy0yLjA1ICAgICAgYzAtMS45MS01LjEtMy40Mi0xMS4zMy0zLjQyQzUuMSwzMy40OCwwLDM0Ljk5LDAsMzYuOWMwLDAuNzYsMC45MiwxLjUyLDIuMzYsMi4wNWMyLjA2LTAuODQsNS4zMi0xLjI5LDguOTgtMS4yOSAgICAgIGMzLjA0LTAuMDcsNi4wNywwLjM3LDguOTcsMS4yOUgyMC4zeiIvPiYjeGE7CQkJCTxwYXRoIGlkPSJwYXRoOTA3MzUiIGlua3NjYXBlOmNvbm5lY3Rvci1jdXJ2YXR1cmU9IjAiIHN0eWxlPSJmaWxsOm5vbmU7IiBkPSJNMjAuMywzOC45NWMxLjUzLTAuNTksMi4zNy0xLjI5LDIuMzctMi4wNSAgICAgIGMwLTEuOTEtNS4xLTMuNDItMTEuMzMtMy40MkM1LjEsMzMuNDgsMCwzNC45OSwwLDM2LjljMCwwLjc2LDAuOTIsMS41MiwyLjM2LDIuMDVjMi4wNi0wLjg0LDUuMzItMS4yOSw4Ljk4LTEuMjkgICAgICBjMy4wNC0wLjA3LDYuMDcsMC4zNyw4Ljk3LDEuMjkiLz4mI3hhOwkJCTwvZz4mI3hhOwkJCTxnIGlkPSJncm91cDQ5NTMtMTQiIHRyYW5zZm9ybT0idHJhbnNsYXRlKDQuNjg3OTUsLTQuNjIzMDEpIj4mI3hhOwkJCQk8dGl0bGUgaWQ9InRpdGxlOTA3MzgiPkxheWVyXzM8L3RpdGxlPiYjeGE7CQkJCTxnIGlkPSJzaGFwZTQ5NTQtMTUiIHRyYW5zZm9ybT0idHJhbnNsYXRlKDAuMDM1NDI1NCkiPiYjeGE7CQkJCQk8dGl0bGUgaWQ9InRpdGxlOTA3NDAiPnBhdGgzNjk2PC90aXRsZT4mI3hhOwkJCQkJPHBhdGggaWQ9InBhdGg5MDc0MiIgaW5rc2NhcGU6Y29ubmVjdG9yLWN1cnZhdHVyZT0iMCIgc3R5bGU9ImZpbGw6IzMzNjc5MDsiIGQ9Ik0xNy41NCwzMS42OGMtMi4yNiwwLjQ3LTIuNDItMC4zLTIuNDItMC4zICAgICAgIGMyLjM2LTMuNTQsMy4zOS04LjA1LDIuNTMtOS4xNGMtMi4zNi0zLjAxLTYuNDMtMS41OS02LjUtMS41NWMtMC41LTAuMS0xLTAuMTUtMS41MS0wLjE2Yy0wLjg0LTAuMDQtMS42OCwwLjIxLTIuMzYsMC43MSAgICAgICBjMCwwLTcuMjgtMi45OC02Ljk2LDMuNzdjMC4wNywxLjQ0LDIuMDQsMTAuODcsNC40LDguMDJjMC44Ny0xLjAzLDEuNy0xLjkyLDEuNy0xLjkyYzAuNDIsMC4yOSwwLjkzLDAuNDIsMS40NCwwLjM3bDAuMDQtMC4wNCAgICAgICBjLTAuMDIsMC4xNC0wLjAyLDAuMjcsMCwwLjQxYy0wLjU5LDAuNjgtMC40MywwLjgtMS42NSwxLjA1Yy0xLjIzLDAuMjUtMC41MSwwLjcxLTAuMDQsMC44M2MxLjAzLDAuMzMsMi4xNi0wLjAzLDIuOC0wLjkxICAgICAgIGwtMC4wNCwwLjE0YzAuMjUsMC4xOSwwLjQxLDEuMjQsMC4zOCwyLjJjLTAuMDgsMC43MS0wLjAzLDEuNDMsMC4xNCwyLjEzYzAuMTksMC41MSwwLjM4LDEuNjYsMS45OSwxLjMyICAgICAgIGMxLjM0LTAuMjksMi4wMy0xLjA0LDIuMTMtMi4yOGMwLjA2LTAuODcsMC4yMi0wLjc0LDAuMjQtMS41NGwwLjEyLTAuMzdjMC4xNC0xLjE4LDAtMS41OCwwLjg1LTEuNGgwLjIgICAgICAgYzAuNjQsMC4wMywxLjI4LTAuMDgsMS44Ny0wLjMyYzEuMDEtMC40NiwxLjYtMS4yNCwwLjU5LTEuMDRMMTcuNTQsMzEuNjh6Ii8+JiN4YTsJCQkJPC9nPiYjeGE7CQkJCTxnIGlkPSJzaGFwZTQ5NTUtMTciIHRyYW5zZm9ybT0idHJhbnNsYXRlKDkuMTIyMDMsLTAuMzA3MDIpIj4mI3hhOwkJCQkJPHRpdGxlIGlkPSJ0aXRsZTkwNzQ1Ij5wYXRoMzY5ODwvdGl0bGU+JiN4YTsJCQkJCTxwYXRoIGlkPSJwYXRoOTA3NDciIGlua3NjYXBlOmNvbm5lY3Rvci1jdXJ2YXR1cmU9IjAiIHN0eWxlPSJmaWxsOm5vbmU7IiBkPSJNMC4wNiwzMi42N2MtMC4wNiwyLjIzLDAsNC40NywwLjI0LDUuMDIgICAgICAgYzAuMjMsMC45NSwxLjE5LDEuNTMsMi4xNCwxLjNjMC4wNS0wLjAxLDAuMS0wLjAzLDAuMTUtMC4wNGMxLjM0LTAuMjksMS44My0wLjg0LDIuMDQtMi4wN2MwLjE2LTAuOTEsMC40Ni0zLjQxLDAuNS0zLjkzICAgICAgIEwwLjA2LDMyLjY3eiIvPiYjeGE7CQkJCQkmI3hhOwkJCQkJCTxwYXRoIGlkPSJwYXRoOTA3NDkiIGlua3NjYXBlOmNvbm5lY3Rvci1jdXJ2YXR1cmU9IjAiIHN0eWxlPSJmaWxsOm5vbmU7c3Ryb2tlOiNGRkZGRkY7c3Ryb2tlLXdpZHRoOjAuNzY1O3N0cm9rZS1saW5lY2FwOnJvdW5kO3N0cm9rZS1saW5lam9pbjpyb3VuZDtzdHJva2UtbWl0ZXJsaW1pdDozOyIgZD0iICAgICAgIE0wLjA2LDMyLjY3Yy0wLjA2LDIuMjMsMCw0LjQ3LDAuMjQsNS4wMmMwLjIzLDAuOTUsMS4xOSwxLjUzLDIuMTQsMS4zYzAuMDUtMC4wMSwwLjEtMC4wMywwLjE1LTAuMDQgICAgICAgYzEuMzQtMC4yOSwxLjgzLTAuODQsMi4wNC0yLjA3YzAuMTYtMC45MSwwLjQ2LTMuNDEsMC41LTMuOTMiLz4mI3hhOwkJCQk8L2c+JiN4YTsJCQkJPGcgaWQ9InNoYXBlNDk1Ni0yMCIgdHJhbnNmb3JtPSJ0cmFuc2xhdGUoMCwtMy4wOTM4MSkiPiYjeGE7CQkJCQk8dGl0bGUgaWQ9InRpdGxlOTA3NTIiPnBhdGgzNzAwPC90aXRsZT4mI3hhOwkJCQkJPHBhdGggaWQ9InBhdGg5MDc1NCIgaW5rc2NhcGU6Y29ubmVjdG9yLWN1cnZhdHVyZT0iMCIgc3R5bGU9ImZpbGw6bm9uZTsiIGQ9Ik03LjI3LDI0LjI3YzAsMC03LjI3LTIuOTUtNi45MywzLjc5ICAgICAgIGMwLjA3LDEuNDYsMi4wNiwxMC44OSw0LjQyLDguMDJjMC44Ny0xLjA0LDEuNjUtMS44NiwxLjY1LTEuODZMNy4yNywyNC4yN3oiLz4mI3hhOwkJCQkJJiN4YTsJCQkJCQk8cGF0aCBpZD0icGF0aDkwNzU2IiBpbmtzY2FwZTpjb25uZWN0b3ItY3VydmF0dXJlPSIwIiBzdHlsZT0iZmlsbDpub25lO3N0cm9rZTojRkZGRkZGO3N0cm9rZS13aWR0aDowLjc2NTtzdHJva2UtbGluZWNhcDpyb3VuZDtzdHJva2UtbGluZWpvaW46cm91bmQ7c3Ryb2tlLW1pdGVybGltaXQ6MzsiIGQ9IiAgICAgICBNNy4yNywyNC4yN2MwLDAtNy4yNy0yLjk1LTYuOTMsMy43OWMwLjA3LDEuNDYsMi4wNiwxMC44OSw0LjQyLDguMDJjMC44Ny0xLjA0LDEuNjUtMS44NiwxLjY1LTEuODYiLz4mI3hhOwkJCQk8L2c+JiN4YTsJCQkJPGcgaWQ9InNoYXBlNDk1Ny0yMyIgdHJhbnNmb3JtPSJ0cmFuc2xhdGUoMTAuOTM0NiwtNy41OTg3NCkiPiYjeGE7CQkJCQk8dGl0bGUgaWQ9InRpdGxlOTA3NTkiPnBhdGgzNzAyPC90aXRsZT4mI3hhOwkJCQkJPHBhdGggaWQ9InBhdGg5MDc2MSIgaW5rc2NhcGU6Y29ubmVjdG9yLWN1cnZhdHVyZT0iMCIgc3R5bGU9ImZpbGw6bm9uZTsiIGQ9Ik0wLjI1LDI4LjI2QzAsMjguMzMsNC4yOSwyNi42OSw2Ljc1LDI5LjggICAgICAgYzAuODYsMS4xMS0wLjE0LDUuNjEtMi41Myw5LjE1TDAuMjUsMjguMjZ6Ii8+JiN4YTsJCQkJCSYjeGE7CQkJCQkJPHBhdGggaWQ9InBhdGg5MDc2MyIgaW5rc2NhcGU6Y29ubmVjdG9yLWN1cnZhdHVyZT0iMCIgc3R5bGU9ImZpbGw6bm9uZTtzdHJva2U6I0ZGRkZGRjtzdHJva2Utd2lkdGg6MC43NjU7c3Ryb2tlLWxpbmVjYXA6cm91bmQ7c3Ryb2tlLWxpbmVqb2luOnJvdW5kO3N0cm9rZS1taXRlcmxpbWl0OjM7IiBkPSIgICAgICAgTTAuMjUsMjguMjZDMCwyOC4zMyw0LjI5LDI2LjY5LDYuNzUsMjkuOGMwLjg2LDEuMTEtMC4xNCw1LjYxLTIuNTMsOS4xNSIvPiYjeGE7CQkJCTwvZz4mI3hhOwkJCQk8ZyBpZD0ic2hhcGU0OTU4LTI2IiB0cmFuc2Zvcm09InRyYW5zbGF0ZSg1LjI5MDE5LC01Ljc4MDI0KSI+JiN4YTsJCQkJCTx0aXRsZSBpZD0idGl0bGU5MDc2NiI+cGF0aDM3MDQ8L3RpdGxlPiYjeGE7CQkJCQk8cGF0aCBpZD0icGF0aDkwNzY4IiBpbmtzY2FwZTpjb25uZWN0b3ItY3VydmF0dXJlPSIwIiBzdHlsZT0iZmlsbDpub25lOyIgZD0iTTkuODUsMzcuMTNjMCwwLDAuMTYsMC43NywyLjQyLDAuMyAgICAgICBjMS0wLjIsMC40LDAuNTktMC41OSwxLjA0Yy0wLjgyLDAuMzktMi42NywwLjQ4LTIuNy0wLjA0Yy0wLjA4LTEuMzcsMC45Ny0wLjk2LDAuOS0xLjNjLTAuMDgtMC4zNC0wLjU0LTAuNTktMC44NS0xLjM2ICAgICAgIGMtMC4yNy0wLjY2LTMuNzMtNS43MSwwLjk1LTQuOTZjMC4xOC0wLjAzLTEuMjItNC40NS01LjYtNC41MkMwLDI2LjIyLDAuMTIsMzEuNjgsMC4xMiwzMS42OEw5Ljg1LDM3LjEzeiIvPiYjeGE7CQkJCQkmI3hhOwkJCQkJCTxwYXRoIGlkPSJwYXRoOTA3NzAiIGlua3NjYXBlOmNvbm5lY3Rvci1jdXJ2YXR1cmU9IjAiIHN0eWxlPSJmaWxsOm5vbmU7c3Ryb2tlOiNGRkZGRkY7c3Ryb2tlLXdpZHRoOjAuNzY1O3N0cm9rZS1saW5lY2FwOnJvdW5kO3N0cm9rZS1saW5lam9pbjpyb3VuZDtzdHJva2UtbWl0ZXJsaW1pdDozOyIgZD0iICAgICAgIE05Ljg1LDM3LjEzYzAsMCwwLjE2LDAuNzcsMi40MiwwLjNjMS0wLjIsMC40LDAuNTktMC41OSwxLjA0Yy0wLjgyLDAuMzktMi42NywwLjQ4LTIuNy0wLjA0Yy0wLjA4LTEuMzcsMC45Ny0wLjk2LDAuOS0xLjMgICAgICAgYy0wLjA4LTAuMzQtMC41NC0wLjU5LTAuODUtMS4zNmMtMC4yNy0wLjY2LTMuNzMtNS43MSwwLjk1LTQuOTZjMC4xOC0wLjAzLTEuMjItNC40NS01LjYtNC41MkMwLDI2LjIyLDAuMTIsMzEuNjgsMC4xMiwzMS42OCIvPiYjeGE7CQkJCTwvZz4mI3hhOwkJCQk8ZyBpZD0ic2hhcGU0OTU5LTI5IiB0cmFuc2Zvcm09InRyYW5zbGF0ZSg1LjA4OTQ0LC01LjI2NjU3KSI+JiN4YTsJCQkJCTx0aXRsZSBpZD0idGl0bGU5MDc3MyI+cGF0aDM3MDY8L3RpdGxlPiYjeGE7CQkJCQkmI3hhOwkJCQkJCTxwYXRoIGlkPSJwYXRoOTA3NzUiIGlua3NjYXBlOmNvbm5lY3Rvci1jdXJ2YXR1cmU9IjAiIHN0eWxlPSJmaWxsOm5vbmU7c3Ryb2tlOiNGRkZGRkY7c3Ryb2tlLXdpZHRoOjAuNzY1O3N0cm9rZS1saW5lY2FwOnJvdW5kO3N0cm9rZS1saW5lam9pbjpyb3VuZDtzdHJva2UtbWl0ZXJsaW1pdDozOyIgZD0iICAgICAgIE0yLjg4LDM3LjA3Yy0wLjYsMC42OS0wLjQ0LDAuODEtMS42NiwxLjA1QzAsMzguMzcsMC43MSwzOC44MywxLjE5LDM4Ljk1YzEuMDMsMC4zMywyLjE2LTAuMDMsMi44LTAuOTEgICAgICAgYzAuMjItMC40MSwwLjA2LTAuOTItMC4zNS0xLjEzYzAsMCwwLDAsMCwwbC0wLjAzLDBjLTAuMjUtMC4xNC0wLjU4LTAuMDctMC43NCwwLjE4TDIuODgsMzcuMDd6Ii8+JiN4YTsJCQkJPC9nPiYjeGE7CQkJCTxnIGlkPSJzaGFwZTQ5NjAtMzEiIHRyYW5zZm9ybT0idHJhbnNsYXRlKDUuMzQ5MjMsLTcuMTQ0MTEpIj4mI3hhOwkJCQkJPHRpdGxlIGlkPSJ0aXRsZTkwNzc4Ij5wYXRoMzcwODwvdGl0bGU+JiN4YTsJCQkJCTxwYXRoIGlkPSJwYXRoOTA3ODAiIGlua3NjYXBlOmNvbm5lY3Rvci1jdXJ2YXR1cmU9IjAiIHN0eWxlPSJmaWxsOm5vbmU7IiBkPSJNMi41NywzOC45NWMwLTAuNSwwLjEyLTAuOTksMC4zNC0xLjQzICAgICAgIGMwLjMxLTAuODQsMS4wMy0xLjY4LDAuNDYtNC4zNGMtMC40NC0xLjk4LTMuMzEtMC40MS0zLjMxLTAuMTRDMC4xMywzMy45MiwwLjExLDM0LjgsMCwzNS42N2MtMC4yNSwxLjM1LDAuNjQsMi42NCwxLjk5LDIuODkgICAgICAgYzAuMTgsMC4wMywwLjM3LDAuMDUsMC41NSwwLjA0TDIuNTcsMzguOTV6Ii8+JiN4YTsJCQkJCSYjeGE7CQkJCQkJPHBhdGggaWQ9InBhdGg5MDc4MiIgaW5rc2NhcGU6Y29ubmVjdG9yLWN1cnZhdHVyZT0iMCIgc3R5bGU9ImZpbGw6bm9uZTtzdHJva2U6I0ZGRkZGRjtzdHJva2Utd2lkdGg6MC43NjU7c3Ryb2tlLWxpbmVjYXA6cm91bmQ7c3Ryb2tlLWxpbmVqb2luOnJvdW5kO3N0cm9rZS1taXRlcmxpbWl0OjM7IiBkPSIgICAgICAgTTIuNTcsMzguOTVjMC0wLjUsMC4xMi0wLjk5LDAuMzQtMS40M2MwLjMxLTAuODQsMS4wMy0xLjY4LDAuNDYtNC4zNGMtMC40NC0xLjk4LTMuMzEtMC40MS0zLjMxLTAuMTQgICAgICAgQzAuMTMsMzMuOTIsMC4xMSwzNC44LDAsMzUuNjdjLTAuMjUsMS4zNSwwLjY0LDIuNjQsMS45OSwyLjg5YzAuMTgsMC4wMywwLjM3LDAuMDUsMC41NSwwLjA0Ii8+JiN4YTsJCQkJPC9nPiYjeGE7CQkJCTxnIGlkPSJzaGFwZTQ5NjEtMzQiIHRyYW5zZm9ybT0idHJhbnNsYXRlKDcuMjM4NTgsLTEyLjcyMzYpIj4mI3hhOwkJCQkJPHRpdGxlIGlkPSJ0aXRsZTkwNzg1Ij5wYXRoMzcxMDwvdGl0bGU+JiN4YTsJCQkJCSYjeGE7CQkJCQkJPHBhdGggaWQ9InBhdGg5MDc4NyIgaW5rc2NhcGU6Y29ubmVjdG9yLWN1cnZhdHVyZT0iMCIgc3R5bGU9ImZpbGw6I0ZGRkZGRjtzdHJva2U6I0ZGRkZGRjtzdHJva2Utd2lkdGg6MC40MTI1O3N0cm9rZS1saW5lY2FwOnNxdWFyZTtzdHJva2UtbWl0ZXJsaW1pdDozOyIgZD0iICAgICAgIE0wLDM4LjU4YzAsMC4wOSwwLjE3LDAuMzQsMC40LDAuMzdjMC4xOSwwLjAyLDAuMzctMC4wOCwwLjQ1LTAuMjVjMC0wLjA5LTAuMTctMC4xOS0wLjQtMC4yMlMwLjAxLDM4LjQ4LDAsMzguNTh6Ii8+JiN4YTsJCQkJPC9nPiYjeGE7CQkJCTxnIGlkPSJzaGFwZTQ5NjItMzYiIHRyYW5zZm9ybT0idHJhbnNsYXRlKDEzLjU2MiwtMTIuOTEyNSkiPiYjeGE7CQkJCQk8dGl0bGUgaWQ9InRpdGxlOTA3OTAiPnBhdGgzNzEyPC90aXRsZT4mI3hhOwkJCQkJJiN4YTsJCQkJCQk8cGF0aCBpZD0icGF0aDkwNzkyIiBpbmtzY2FwZTpjb25uZWN0b3ItY3VydmF0dXJlPSIwIiBzdHlsZT0iZmlsbDojRkZGRkZGO3N0cm9rZTojRkZGRkZGO3N0cm9rZS13aWR0aDowLjIxO3N0cm9rZS1saW5lY2FwOnNxdWFyZTtzdHJva2UtbWl0ZXJsaW1pdDozOyIgZD0iICAgICAgIE0wLjg1LDM4LjU4YzAsMC4wOS0wLjE3LDAuMzQtMC40LDAuMzdDMC4yNiwzOC45NywwLjA4LDM4Ljg3LDAsMzguN2MwLTAuMDksMC4xNy0wLjE5LDAuNC0wLjIyUzAuODQsMzguNDgsMC44NSwzOC41OHoiLz4mI3hhOwkJCQk8L2c+JiN4YTsJCQkJPGcgaWQ9InNoYXBlNDk2My0zOCIgdHJhbnNmb3JtPSJ0cmFuc2xhdGUoMTQuNzQ4OCwtOC4yNzc3MikiPiYjeGE7CQkJCQk8dGl0bGUgaWQ9InRpdGxlOTA3OTUiPnBhdGgzNzE0PC90aXRsZT4mI3hhOwkJCQkJPHBhdGggaWQ9InBhdGg5MDc5NyIgaW5rc2NhcGU6Y29ubmVjdG9yLWN1cnZhdHVyZT0iMCIgc3R5bGU9ImZpbGw6bm9uZTsiIGQ9Ik0wLjUsMzMuMzFjMC4wNCwwLjcyLTAuMTUsMS4xOC0wLjE4LDEuOTggICAgICAgQzAuMjksMzYuNDEsMC44NiwzNy42NSwwLDM4Ljk1TDAuNSwzMy4zMXoiLz4mI3hhOwkJCQkJJiN4YTsJCQkJCQk8cGF0aCBpZD0icGF0aDkwNzk5IiBpbmtzY2FwZTpjb25uZWN0b3ItY3VydmF0dXJlPSIwIiBzdHlsZT0iZmlsbDpub25lO3N0cm9rZTojRkZGRkZGO3N0cm9rZS13aWR0aDowLjc2NTtzdHJva2UtbGluZWNhcDpyb3VuZDtzdHJva2UtbGluZWpvaW46cm91bmQ7c3Ryb2tlLW1pdGVybGltaXQ6MzsiIGQ9IiAgICAgICBNMC41LDMzLjMxYzAuMDQsMC43Mi0wLjE1LDEuMTgtMC4xOCwxLjk4QzAuMjksMzYuNDEsMC44NiwzNy42NSwwLDM4Ljk1Ii8+JiN4YTsJCQkJPC9nPiYjeGE7CQkJPC9nPiYjeGE7CQk8L2c+JiN4YTsJPC9nPiYjeGE7PC9nPiYjeGE7PC9zdmc+;" vertex="1" parent="weV_pYgRictKtLWvSeBu-1">
          <mxGeometry x="527.48" y="596.79" width="47.03" height="60" as="geometry" />
        </mxCell>
        <mxCell id="weV_pYgRictKtLWvSeBu-20" value="" style="shape=image;verticalLabelPosition=bottom;labelBackgroundColor=#ffffff;verticalAlign=top;aspect=fixed;imageAspect=0;image=data:image/svg+xml,PHN2ZyB4bWxuczpkYz0iaHR0cDovL3B1cmwub3JnL2RjL2VsZW1lbnRzLzEuMS8iIHhtbG5zOmNjPSJodHRwOi8vY3JlYXRpdmVjb21tb25zLm9yZy9ucyMiIHhtbG5zOnJkZj0iaHR0cDovL3d3dy53My5vcmcvMTk5OS8wMi8yMi1yZGYtc3ludGF4LW5zIyIgeG1sbnM6c3ZnPSJodHRwOi8vd3d3LnczLm9yZy8yMDAwL3N2ZyIgeG1sbnM9Imh0dHA6Ly93d3cudzMub3JnLzIwMDAvc3ZnIiB4bWxuczpzb2RpcG9kaT0iaHR0cDovL3NvZGlwb2RpLnNvdXJjZWZvcmdlLm5ldC9EVEQvc29kaXBvZGktMC5kdGQiIHhtbG5zOmlua3NjYXBlPSJodHRwOi8vd3d3Lmlua3NjYXBlLm9yZy9uYW1lc3BhY2VzL2lua3NjYXBlIiB2ZXJzaW9uPSIxLjEiIGlkPSJzdmc4MDY5OSIgaW5rc2NhcGU6dmVyc2lvbj0iMC45Mi4zICgyNDA1NTQ2LCAyMDE4LTAzLTExKSIgc29kaXBvZGk6ZG9jbmFtZT0iaGRpbnNpZ2h0X2hhZG9vcC5zdmciIHg9IjBweCIgeT0iMHB4IiB2aWV3Qm94PSIwIDAgOTUuNDcgNzMuNzU0MzQxIiB4bWw6c3BhY2U9InByZXNlcnZlIiB3aWR0aD0iOTUuNDcwMDAxIiBoZWlnaHQ9IjczLjc1NDM0MSI+PG1ldGFkYXRhIGlkPSJtZXRhZGF0YTE2OTYiPjxyZGY6UkRGPjxjYzpXb3JrIHJkZjphYm91dD0iIj48ZGM6Zm9ybWF0PmltYWdlL3N2Zyt4bWw8L2RjOmZvcm1hdD48ZGM6dHlwZSByZGY6cmVzb3VyY2U9Imh0dHA6Ly9wdXJsLm9yZy9kYy9kY21pdHlwZS9TdGlsbEltYWdlIi8+PGRjOnRpdGxlLz48L2NjOldvcms+PC9yZGY6UkRGPjwvbWV0YWRhdGE+PGRlZnMgaWQ9ImRlZnMxNjk0Ii8+JiN4YTs8ZmlsdGVyIGlkPSJmaWx0ZXJfMiI+JiN4YTsJPGZlR2F1c3NpYW5CbHVyIGlkPSJmZUdhdXNzaWFuQmx1cjgwNjA4IiBzdGREZXZpYXRpb249IjIiLz4mI3hhOzwvZmlsdGVyPiYjeGE7PHNvZGlwb2RpOm5hbWVkdmlldyBib3JkZXJjb2xvcj0iIzY2NjY2NiIgYm9yZGVyb3BhY2l0eT0iMSIgZml0LW1hcmdpbi1ib3R0b209IjAiIGZpdC1tYXJnaW4tbGVmdD0iMCIgZml0LW1hcmdpbi1yaWdodD0iMCIgZml0LW1hcmdpbi10b3A9IjAiIGdyaWR0b2xlcmFuY2U9IjEwIiBndWlkZXRvbGVyYW5jZT0iMTAiIGlkPSJuYW1lZHZpZXc4MDcwMSIgaW5rc2NhcGU6Y3VycmVudC1sYXllcj0ic3ZnODA2OTkiIGlua3NjYXBlOmN4PSIxOC4xNzAzMTgiIGlua3NjYXBlOmN5PSIzMy42OTMzNzciIGlua3NjYXBlOnBhZ2VvcGFjaXR5PSIwIiBpbmtzY2FwZTpwYWdlc2hhZG93PSIyIiBpbmtzY2FwZTp3aW5kb3ctaGVpZ2h0PSIxMDE3IiBpbmtzY2FwZTp3aW5kb3ctbWF4aW1pemVkPSIxIiBpbmtzY2FwZTp3aW5kb3ctd2lkdGg9IjE5MjAiIGlua3NjYXBlOndpbmRvdy14PSItOCIgaW5rc2NhcGU6d2luZG93LXk9Ii04IiBpbmtzY2FwZTp6b29tPSI2LjYxOTg4OTQiIG9iamVjdHRvbGVyYW5jZT0iMTAiIHBhZ2Vjb2xvcj0iI2ZmZmZmZiIgc2hvd2dyaWQ9ImZhbHNlIj4mI3hhOwk8L3NvZGlwb2RpOm5hbWVkdmlldz4mI3hhOyYjeGE7PHBhdGggaWQ9InBhdGg4MDYyMSIgaW5rc2NhcGU6Y29ubmVjdG9yLWN1cnZhdHVyZT0iMCIgc3R5bGU9ImZpbGw6I2ZjZDExNiIgZD0ibSAzMi43MSwxNi4xOTM5NjkgLTYuNjYsMS4xNCAtNS44OSwyLjY2IC01LjE0LDMuMjQgLTQuOTQsNS44OSAtMi42NiwyLjg2IC0yLjY3LDAuOTUgLTAuNzYsLTEuNzEgMS4zMywtMS43MiAwLjE5LC0yLjQ3IGggMC45NiBsIDAuNzYsMC43NiAtMC4xOSwtMi40NyAtMC45NiwtMC43NiB2IC0wLjk1IGwgLTIuMjgsMS4zMyAtMi4yOCwyLjQ3IC0wLjM4LDIuMjggMC45NSwxLjkxIDAuNzYsMy4wNCAxLjcxLDAuNzYgaCAxLjkxIGwgMS43MSwtMS4xNCAtMS4xNCw1Ljg5IDEuMTQsNi40NyAtMS4zMywzLjA0IC00LDQuMzggMC41NywyLjg1IDIuMDksMy4wNCAzLjYyLDIuNDggMi4wOSwwLjM4IGggMi4wOSBsIC0xLjMzLDUuNyA0Ljk1LDIuMDkgNi4yNywwLjc3IDIuMDksLTEuNTMgMC4xOSwtMy42MSAyLjQ4LC0zLjk5IDAuMTksLTMuMjQgNS43LDAuNTcgNS4zMywtMC41NyAtNS4zMywzLjI0IDAuOTUsMy44IDMuMjQsNS4zMyAzLjQyLDEuMzMgMi40NywtMC45NSAxLjE0LC0yLjI5IDUuNTIsLTQuMTggMS4xNCwwLjk1IDguNTYsMC4zOCAxLjcxLC0xLjUyIDAuMTksLTIuNDcgLTAuNTcsLTAuOTUgLTAuMzgsLTYuNjYgLTIuODUsLTUuNzEgMC4zOCwtMi42NiAxLjcxLDAuOTUgNC45NCw0LjU3IDIuMjksMC4xOSAyLjY2LC0xLjE0IDIuNjYsLTEuOTEgMS4zMywtNC4zNyA3LjYxLDAuNTcgNC43NSwtMS45IDMuODEsLTMuNDMgMi42NiwtNS4xMyAwLjc2LC02LjA5IC0wLjU3LC02Ljg0IC0xLjUyLC02LjI4IC0xLjUyLC0yLjA5IC0yLjA5LC0wLjU3IC0zLjYyLDMuOTkgLTMuMjMsMS4xNCAtMi44NSwtNC43NSAtMi44NiwtMi42NiAtMS43MSwtMC45NTAwMDA0IC02LjA4LC01LjMzIC01LjE0LC0yLjY2IC00Ljk0LC0wLjM4IC01LjksMC45NSAtNS4xNCwxLjkgLTMuNDIsMi44NSAtMi44NSwzLjQzMDAwMDQgLTIuODUsMC43NiB6Ii8+JiN4YTsmI3hhOzxwYXRoIGlkPSJwYXRoODA2MjkiIGlua3NjYXBlOmNvbm5lY3Rvci1jdXJ2YXR1cmU9IjAiIHN0eWxlPSJmaWxsOiMxZTFlMWUiIGQ9Im0gNy4wNCwyOS4xMzM5NjkgMC43NiwwLjk1IDAuMTksLTEuMTQgSCA3LjQyIFoiLz4mI3hhOyYjeGE7PHBhdGggaWQ9InBhdGg4MDYzNyIgaW5rc2NhcGU6Y29ubmVjdG9yLWN1cnZhdHVyZT0iMCIgc3R5bGU9ImZpbGw6IzFlMWUxZSIgZD0ibSA5NC41MiwyMS43MTM5NjkgYyAtMC4zOCwtMi44NiAtMS4xNCwtNS43MSAtMi4yOCwtNy42MSAtMC4xOSwtMC4xOSAtMC4zOCwtMC41NyAtMC41NywtMC43NiAtMC41NywtMC41NyAtMS4zMywtMC45NSAtMi4wOSwtMS4zMyAtMC43NiwtMC4zOCAtMS43MSwtMC4zOCAtMi40NywwIC0wLjE5LDAuMTkgLTAuMzksMC4xOSAtMC41OCwwLjM4IC0wLjM4LDAuMzggLTAuNzYsMC45NSAtMS4xNCwxLjUyIC0wLjM4LDAuNTcgLTAuOTUsMS4zMyAtMS4zMywxLjcxIC0wLjU3LDAuNTcgLTEuMzMsMC43NiAtMi4wOSwxLjE0IC0wLjM4LC0wLjc2IC0wLjU3LC0xLjUyIC0xLjE0LC0yLjA5IC0wLjU3LC0wLjc2IC0wLjk1LC0xLjUyIC0xLjcxLC0yLjI4IC0wLjU3LC0wLjU3IC0wLjk1LC0wLjk1IC0xLjUyLC0xLjUzIC0wLjU3LC0wLjM4IC0xLjE1LC0wLjc2IC0xLjcyLC0xLjE0MDAwMDQgLTEuNzEsLTEuMTQgLTMuMDQsLTIuMjggLTQuNTYsLTMuNjEgLTAuNTcsLTAuNTcgLTEuMzMsLTEuMTQgLTEuOSwtMS43MSAtMy40MywtMi44NSAtNi42NiwtNC4xOTAwMDAwMSAtMTAuMDgsLTQuMzgwMDAwMDEgLTMuNDMsLTAuMTkgLTcuMDQsMC43NiAtMTEuNDEsMi40ODAwMDAwMSAtMi4xLDAuOTUgLTMuNjIsMS45IC00Ljk1LDMuMDQgLTEuMzMsMS4xNCAtMi4yOCwyLjQ3IC0zLjYxLDQuMTggLTAuNzYsMCAtMS4zMywwLjE5IC0xLjksMC4zODAwMDA0IC0wLjc2LDAuMTkgLTEuMzMsMC43NiAtMi4yOSwxLjUzIC0wLjU3LDAuNTcgLTEuMTQsMS4xNCAtMS43MSwxLjUyIC0wLjU3LDAuNTcgLTAuOTUsMC45NSAtMS41MiwxLjUyIC0zLjk5LDAuNTcgLTcuMDQsMS4zMyAtOS44OSwyLjQ3IC0yLjg1LDEuMTQgLTUuNTEsMi42NiAtOC4xOCw0Ljk1IC0xLjE0LDAuOTUgLTIuMDksMS45IC0yLjg1LDMuMDQgLTAuNzYsMS4xNCAtMS41MiwyLjA5IC0yLjA5LDMuMjMgLTAuNTcsMC41NyAtMS4xNCwxLjE0IC0xLjcxLDEuNzEgLTAuNTcsMC41NyAtMS4xNCwwLjk1IC0xLjksMS4xNCAtMC4zOSwwLjE5IC0wLjU4LDAuMTkgLTAuNTgsMC4xOSB2IC0wLjE5IGMgMC45NiwtMC45NSAxLjE1LC0yLjI4IDEuMTUsLTMuNjEgMC4xOSwwLjE5IDAuMTksMC4zOCAwLjM4LDAuNTcgMC4xOSwwLjE5IDAuMTksMC4zOCAwLjM4LDAuNTcgbCAwLjM4LC0wLjM4IDAuNTcsMC4xOSBjIDAuMTksLTAuOTUgMC4zOCwtMS45IDAuMTksLTMuMDQgLTAuMTksLTAuNTcgLTAuMzgsLTEuMTQgLTAuOTUsLTEuNTIgMCwtMC4xOSAwLjE5LC0wLjE5IDAuMTksLTAuMzggMC4xOSwtMC4zOCAwLjM4LC0wLjc2IDAuMzgsLTEuMzMgbCAtMC4zOCwtMC4xOSAwLjM4LDAuMTkgMC41NywtMC4zOCAtMC43NiwwLjE5IGMgLTEuMTQsMC4xOSAtMy40MywxLjUyIC01LjE0LDMuMjMgLTAuNTcsMC41NyAtMS4xNCwxLjMzIC0xLjUyLDIuMDkgLTAuNTcsMC45NSAtMC41NywxLjcxIC0wLjU3LDIuNDcgMC4xOSwwLjc2IDAuNTcsMS4zMyAxLjE0LDIuMSAwLjE5LDAuNTcgMC4xOSwwLjk1IDAuMzgsMS4zMyAwLjE5LDAuMzggMC4zOCwwLjc2IDAuMzgsMS4xNCAwLjU3LDAuOTUgMS4zMywxLjcxIDIuMDksMS45IDAuNzYsMC4xOSAxLjUzLDAuMTkgMi4yOSwwIC0wLjE5LDAuOTUgLTAuMTksMS45IC0wLjM4LDIuODUgMCwxLjMzIDAsMi44NiAwLjE5LDQuNTcgMCwwLjM4IDAsMC43NiAwLjE5LDEuMTQgMCwwLjM4IDAuMTksMC43NiAwLjE5LDEuMTQgLTAuMTksMC4zOCAtMC4zOCwwLjc2IC0wLjM4LDEuMTQgLTAuMTksMC41NyAtMC4zOCwxLjMzIC0wLjc2LDEuOSAtMC41OCwwLjU3IC0wLjk2LDAuOTUgLTEuNTMsMS41MiAtMC4zOCwwLjM4IC0wLjk1LDAuOTUgLTEuMzMsMS4zMyAwLDAgLTAuMTksMC4yIC0wLjM4LDAuMzkgLTAuOTUsMC45NSAtMS4xNCwxLjE0IC0wLjk1LDIuNjYgMC4xOSwwLjk1IDAuNTcsMS45IDAuOTUsMy4wNCAwLjM4LDAuOTUgMS4xNCwxLjcxIDEuOSwyLjY2IDEuMzQsMS4xNCAzLjA1LDIuMjkgNC43NiwzLjA1IDAuOTUsMC4zOCAyLjA5LDAuNTcgMy4wNCwwLjM4IDAsMC4xOSAwLDAuMzggLTAuMTksMC4zOCAtMC4xOSwwLjM4IC0wLjM4LDAuNzYgLTAuNTcsMS4zMyAtMS4xNCwyLjY2IDAsMy45OSAxLjksNC43NSAwLjk1LDAuMzggMi4wOSwwLjc2IDMuMDUsMC45NSAwLjE5LDAgMC4zOCwwLjE5IDAuNzYsMC4xOSAxLjE0LDAuMzggMy40MiwwLjk2IDUuMzIsMS4xNSAyLjA5LDAuMTkgNCwtMC4zOCA0LjU3LC0yLjI5IDAuMTksLTAuNzYgMC4zOCwtMS4zMyAwLjM4LC0xLjkgMCwtMC41NyAwLC0xLjE0IDAsLTEuNzEgMC41NywtMS4zMyAwLjk1LC0xLjcxIDEuMzMsLTIuMjggMCwtMC4xOSAwLjE5LC0wLjE5IDAuMTksLTAuMzggMC4zOCwtMC43NiAwLjc2LC0xLjE0IDAuNzYsLTEuNzEgMCwtMC41OCAwLC0xLjE1IDAsLTEuOTEgMCwwIDAsLTAuMTkgMCwtMC4zOCAxLjE0LDAuMTkgMi40NywwLjE5IDMuNjEsMC4xOSAwLjU3LDAgMS4xNCwwIDEuOSwwIC0wLjE5LDAgLTAuMzgsMC4xOSAtMC41NywwLjE5IDAsMCAtMC4xOSwwIC0wLjE5LDAuMTkgLTEuNzEsMC43NiAtMS43MSwyLjQ4IC0xLjE0LDQgMC4zOCwxLjUyIDEuMzMsMy4wNCAyLjA5LDMuOCAxLjM0LDEuOSAyLjQ4LDMuNjEgMy44MSw0LjM4IDEuNTIsMC45NSAzLjIzLDAuOTUgNS41MSwtMC4xOSAxLjE0LC0wLjU4IDEuNTIsLTEuMzQgMS45MSwtMi4xIDAuMTksLTAuMTkgMC4zOCwtMC41NyAwLjU3LC0wLjc2IDAuMzgsLTAuMzggMS41MiwtMS4zMyAyLjg1LC0yLjI4IDAuMzgsLTAuMzggMC43NiwtMC41NyAxLjMzLC0wLjk1IDAuMzgsMC4xOSAwLjU3LDAuMzggMS4xNCwwLjU3IDAuNTcsMC4xOSAxLjMzLDAuMTkgMi4wOSwwLjE5IDAuNTcsMCAyLjY3LDAgNCwwIDAuMzgsMCAwLjc2LDAgMC45NSwwIDEuMzMsMCAyLjQ3LDAgMy4yMywtMC41NyAwLjk1LC0wLjU3IDEuMzMsLTEuMzMgMS41MiwtMi44NSAwLC0wLjc2IDAsLTEuMTQgMCwtMS41MiAwLC0wLjM4IC0wLjE5LC0wLjc3IC0wLjU3LC0xLjM0IDAsLTAuNzYgMCwtMS4zMyAwLC0yLjA5IDAsLTAuNzYgMCwtMS41MiAwLC0yLjA5IDAsLTAuNzYgLTAuMTksLTEuNTIgLTAuMzgsLTIuMjggLTAuMTksLTAuNzYgLTAuMzgsLTEuMzMgLTAuNzYsLTIuMDkgLTAuMTksLTAuNTcgLTAuMzgsLTAuOTYgLTAuNTcsLTEuNTMgbCAtMC4zOCwwLjE5IDAuMzgsLTAuMTkgYyAtMC4xOSwtMC43NiAtMC41NywtMS41MiAtMC45NSwtMi4yOCAwLC0wLjE5IDAsLTAuMzggMCwtMC41NyAwLjE5LDAuMTkgMC41NywwLjU3IDAuNzYsMC43NiBsIDEuMTQsMS4xNCBjIDAuNzYsMC43NiAxLjUyLDEuNTIgMi40NywyLjEgMC45NSwwLjU3IDEuOTEsMC45NSAzLjI0LDAuNzYgMS4zMywwIDIuODUsLTAuNTcgNC4xOCwtMS41MyAxLjE0LC0wLjk1IDIuMDksLTIuMDkgMi42NiwtMy40MiAwLjE5LC0wLjM4IDAuMTksLTAuNzYgMC4zOCwtMS4xNCAwLC0wLjM4IDAuMTksLTAuNTcgMC4xOSwtMC45NSAxLjkxLDAuMzggNC4xOSwwLjM4IDYuMDksMC4xOSAxLjksLTAuMTkgMy45OSwtMC43NiA1LjUyLC0xLjUyIDIuNDcsLTEuMzMgNC4xOCwtMy4yNCA1LjUxLC01LjUyIDEuNTIsLTIuNDcgMi4yOCwtNS41MSAyLjY2LC04LjU2IC0wLjE5LC0yLjI4IC0wLjM4LC01LjcgLTAuOTUsLTguOTMgeiBtIC0yOC41MywyMy4wMSBjIC0wLjU3LDEuOSAtMS41Miw1LjEzIDEuMTUsNS43IDAuOTUsMC4xOSAxLjUyLDAuMTkgMi44NSwtMC41NyAtMS4xNCwwLjE5IC0xLjcxLDAuMTkgLTIuNDcsMCAtMC43NiwtMC4xOSAtMS4xNCwtMC41NyAtMS4zNCwtMS4xNCAwLjIsMC4xOSAwLjU4LDAuMTkgMS4zNCwwLjM4IDEuOSwwLjM4IDMuOCwtMC4zOCA0LjE4LC0xLjkgMC4xOSwtMC43NiAwLjE5LC0xLjE0IDAuNTcsLTIuMjggMC4zOCwwLjE5IDAuNzYsMC4xOSAxLjMzLDAuMzggLTAuMTksMC43NiAtMC41NywxLjUyIC0wLjc2LDIuNDcgLTAuNTcsMi4wOSAtMy4wNCwzLjggLTUuMzIsMy42MSAtMi4xLDAgLTMuMjQsLTEuMzMgLTQuNzYsLTIuNDcgLTAuOTUsLTAuNzYgLTEuOSwtMS43MSAtMi44NSwtMi40NyAtMi40NywtMC43NiAtNC41NywtMS43MSAtNi44NSwtMy40MiAxLjcxLDEuOSAyLjg1LDMuMDQgNS4xNCwzLjk5IC0wLjM4LDMuNDIgLTEuNTIsNS45IC0yLjQ4LDkuMTMgLTAuMzgsMS41MiAtMy45OSw3LjQyIC01LjEzLDcuOTkgLTAuNzYsMC4zOCAtNS4xNCw0LjE4IC02LjA5LDQuNzUgLTAuNTcsMC43NiAtMS4xNCwxLjkgLTIuMDksMi40NyAtMi44NSwxLjUzIC00Ljc1LC0xLjMzIC02LjI3LC0zLjggLTAuNzcsLTEuMTQgLTIuNjcsLTQuMzcgLTAuOTYsLTUuMzIgMS41MywtMC43NyAyLjQ4LC0xLjUzIDQuMTksLTIuNDggMC4xOSwwLjM4IDAuNTcsMC45NSAwLjk1LDEuMzMgMCwtMC41NyAtMC4xOSwtMC45NSAtMC4xOSwtMS41MiAtMC4xOSwtMC45NSAtMC4xOSwtMS41MiAwLC0yLjQ3IDAsLTAuNzYgMC4xOSwtMS43MSAwLjE5LC0yLjQ3IC0wLjE5LDAuOTUgLTAuNzYsMS43MSAtMC45NSwyLjY2IC0wLjE5LDAuMzggLTAuMTksMC41NyAtMC4xOSwwLjk1IC0zLjYyLDAuNzYgLTcuNDIsMC43NiAtMTEuMDMsMC4xOSAtMC4xOSwtMS4zMyAtMC41NywtMi44NSAtMC43NiwtMy44IDAsMS4xNCAwLDQuMzcgMCw2LjA4IDAsMS4zMyAwLDEuOTEgLTAuNzYsMy4wNSAtMC41NywxLjE0IC0wLjk1LDEuMzMgLTEuOTEsMy4yMyAwLDEuMTQgMCwxLjkgLTAuMTksMy4wNCAtMC41NywxLjkgLTUuNywwLjM4IC03LjAzLDAgLTEuNzEsLTAuMzggLTUuMTQsLTEuMTQgLTQuMzgsLTMuNDIgMC43NiwtMS45IDEuMzMsLTMuOTkgMS43MSwtNi44NSAtMy4wNCwtNC4zNyAtNS44OSwtMTAuNDYgLTYuNDYsLTE1Ljk3IC0wLjM4LC00LjE5IC0wLjE5LC02Ljg1IDAuNzYsLTkuMzIgMS41MiwtNCAzLjQyLC03LjYxIDYuNjYsLTEwLjQ2IDQuMzcsLTMuODEgOC4zNiwtNS4zMyAxNC44MywtNi4yOCAtMS41MiwxLjcxIC0zLjA0LDMuNjEgLTQuNzUsNS41MiAtMS43MiwxLjkgLTIuNjcsMy45OSAtMy44MSw2LjA4IC0xLjUyLDMuMDUgLTEuNTIsNC4xOSAwLjU3LDYuNjYgMS43MSwyLjI4IDIuNjYsMy4yMyAzLjI0LDUuNTEgLTAuNTgsMS4zNCAtMC43NywyLjI5IC0wLjk2LDQgMi4xLDIuMjggMy42MiwzLjggNS41Miw0LjE4IDEuOSwwLjM4IDMuNjEsMC4zOCA1LjMzLC0wLjU3IDMuOCwtMS45IDcuNDEsLTQuNTYgMTEuNzksLTQuNzUgMi4wOSwtNC45NSAxLjksLTkuMTMgMC43NiwtMTQuMDggLTAuNTcsLTMuMjMgLTAuOTUsLTYuNDYgLTEuMTQsLTkuNyAtMC43NiwzLjQzIC0wLjk1LDYuNDcgLTAuMzgsOS44OSAwLjc2LDQuMTkgMS4zMyw4Ljc1IC0wLjc2LDEyLjM3IC00LDAuMzggLTcuNDIsMi42NiAtMTEuMDQsNC41NiAtMS41MiwwLjc2IC0yLjg1LDAuNzYgLTQuNTYsMC4zOCAtMS4xNCwtMC4xOSAtMi4wOSwtMS4xNCAtMy44LC0zLjA0IDAsLTEuOSAwLjM4LC0yLjY2IDEuMTQsLTQuMzggMS4zMywtMi42NiAyLjg1LC01LjEzIDQuNTYsLTcuNzkgLTEuOSwyLjQ3IC0zLjgsNC41NiAtNS4zMiw2Ljg0IC0wLjU3LC0xLjcxIC0xLjUzLC0yLjY2IC0yLjg2LC00LjU2IC0xLjMzLC0xLjkgLTEuNTIsLTIuNjYgLTAuNTcsLTQuOTUgMS4xNCwtMi4yOCAxLjksLTQuMTggMy44MSwtNi4wOCAzLjA0LC0zLjQzIDUuODksLTcuMDQgOS4zMiwtMTAuNDYgMS45LC0xLjcxIDIuNjYsLTEuNzEgNC45NCwtMi4wOSAyLjI4LC0wLjM5IDQuMzgsLTAuNzcgNi42NiwtMS4zNDAwMDA0IC0yLjI4LDAuMzgwMDAwNCAtNC4zOCwwLjU3MDAwMDQgLTYuNDcsMC41NzAwMDA0IHYgMCBjIDIuMDksLTIuNjYwMDAwNCAzLjIzLC00LjE4MDAwMDQgNi42NiwtNS43MDAwMDA0IDguMzcsLTMuNjEgMTMuNjksLTQuMDAwMDAwMDEgMjAuMTYsMS41MiAxLjcxLDEuNTIgMy4yMywyLjg1IDQuOTQsMy45OTAwMDA0IC0wLjU3LDAgLTEuMTQsMC4xOSAtMS45LDAuMzggMC45NSwtMC4xOSAxLjksMCAyLjg1LDAuMTkgMC4xOSwwLjE5IDAuNTcsMC4zOSAwLjc2LDAuNTggMS4xNCwwLjc2IDEuOTEsMS4xNCAyLjY3LDIuMjggMC45NSwxLjE0IDEuNTIsMi40NyAyLjI4LDMuOCAtMC4zOCwtMC4xOSAtMC43NiwtMC4xOSAtMS4xNCwtMC4zOCAtMC4xOSwtMC4xOSAtMC41NywtMC4xOSAtMC43NiwtMC4xOSAtMC41NywwIC0wLjk1LDAgLTEuNTIsMC4zOCB2IDAgYyAtMC43NywwLjM4IC0xLjcyLDAuNzYgLTIuNDgsMC43NiAwLjM4LDAuMTkgMS4xNCwwLjE5IDEuNTIsMCBoIDAuMTkgYyAtMC4xOSwwLjE5IC0wLjE5LDAuNTcgLTAuMzgsMC45NSAwLDAuMzggMCwwLjk1IDAuMTksMS4zMyB2IDAgYyAwLDAuMTkgMC4xOSwwLjE5IDAuMTksMC4zOCAtMC4zOCwwLjE5IC0wLjU3LDAuMTkgLTAuOTUsMC4zOCAxLjUzLC0wLjE5IDMuMDUsLTAuMTkgNC41NywwIDAuMTksMC41OCAwLjE5LDAuOTYgMC4zOCwxLjUzIC0wLjE5LDAgLTAuMzgsMCAtMC41NywwIHYgMCBjIC0wLjc2LC0wLjU3IC0xLjUyLC0wLjU3IC0yLjY2LC0wLjE5IC0zLjI0LDAuNzYgLTIuNDgsMi42NiAtNCw1LjUxIDEuNTIsLTEuOSAxLjUyLC0zLjk5IDQsLTQuNTYgMC41NywtMC4xOSAwLjk1LC0wLjM4IDEuMzMsLTAuMTkgLTAuNzYsMC4zOCAtMS4zMywwLjk1IC0xLjcyLDEuNzEgLTAuNzYsMi4wOSAtMC4xOSwzLjYxIC0xLjE0LDUuNTEgMC45NSwtMS43MSAwLjk1LC0zLjIzIDEuOTEsLTUuMTMgMC4zOCwtMC41NyAxLjUyLC0xLjcxIDIuMDksLTEuNzEgMC4xOSwwIDAuMzgsMCAwLjU3LDAgMC4xOSwxLjE0IDAuMTksMi4yOCAwLjE5LDMuMDQgLTAuMTksMS43MSAtMC41Nyw0LjE4IC0wLjc2LDUuMTQgMC45NSwtMS4xNSAxLjMzLC0zLjQzIDEuNzEsLTUuMTQgMC4zOCwtMS43MSAwLjM4LC0zLjggMCwtNS43MSAtMC41NywtMi42NiAyLjA5LC0yLjA5IDMuNjEsLTMuNDIgMS4xNCwtMC45NSAxLjksLTIuMjggMi44NiwtMy4yMyAwLjk1LC0wLjk1IDIuNjYsMC4zOCAzLjA0LDEuNTIgMS43MSw0LjE4IDIuNDcsMTAuODQgMi4wOSwxNS4yMSAtMC41Nyw0Ljc2IC0yLjg1LDEwLjA4IC03LjA0LDEyLjM3IC01LjMyLDMuMDQgLTExLjc5LDEuMTQgLTE3LjExLC0wLjU3IC0xLjE0LC0wLjM4IC0xLjksLTAuOTUgLTIuODYsLTEuNTMgMC41NywwLjk2IDAuNzcsMi4yOSAwLjM4LDMuNDMgeiBtIC00Ljc1LDE5LjIxIGMgLTAuMTksMS45IC0wLjc2LDIuMDkgLTIuNjYsMi4wOSAtMC43NiwwIC00LDAgLTQuNzYsLTAuMTkgLTEuMTQsLTAuMTkgLTEuNzEsLTAuMTkgLTIuMDksLTAuMzggMS43MSwtMS4zMyA0Ljc2LC02LjY2IDUuMzMsLTguNTYgMC41NywtMS45IDEuMzMsLTMuNjEgMS43MSwtNS41MiAwLjE5LDAuNzcgMC4zOCwxLjUzIDAuNzYsMi4yOSAwLjU3LDEuMzMgMC43NiwyLjA5IDAuOTUsMy42MSAwLDEuNTIgMCwzLjA0IDAuMTksNC41NiAwLjU3LDAuOTYgMC41NywxLjE1IDAuNTcsMi4xIHogbSAtNTUuNTMsLTM5LjU2IGMgLTAuMzgsMC41NyAtMC41NywxLjE0IC0wLjU3LDEuNTIgLTAuNTgsMi4wOSAwLjE5LDMuOTkgLTEuNzIsNS41MSAwLjk1LDEuNzIgMC43NiwyLjQ4IDIuODYsMS43MiAwLjc2LC0wLjM4IDEuNTIsLTAuNzYgMi4wOSwtMS4zMyAtMC4xOSwwLjc2IC0wLjU3LDEuNTIgLTAuNzYsMi4yOCAwLDAuMTkgMCwwLjE5IC0wLjE5LDAuMzggLTEuNTIsMC41NyAtMy40MywwLjk1IC00LjE5LC0wLjU3IC0wLjM4LC0wLjc2IC0wLjU3LC0xLjUyIC0wLjc2LC0yLjQ4IC0yLjQ3LC0yLjQ3IDEuMTQsLTUuODkgMy4yNCwtNy4wMyB6IG0gMC4xOSwyLjI4IGMgMCwtMC4xOSAwLC0wLjU3IDAuMTksLTAuNzYgMCwtMC4xOSAwLC0wLjE5IDAuMTksLTAuMzggMC41NywwLjM4IDAuNTcsMC43NiAwLjc2LDEuNTIgLTAuMzgsLTAuMzggLTAuNzYsLTAuNTcgLTEuMTQsLTAuMzggeiBtIDEuOSwyMi4yNSBjIDEuMTQsMy44MSAzLjA0LDcuOCA1LjEzLDExLjAzIHYgMCBjIC0wLjE5LDAuNTcgLTAuMzgsMS4xNCAtMC41NywxLjUyIC0xLjUyLDIuMSAtNS4zMiwtMC45NSAtNi40NiwtMi4wOSAtMS4zNCwtMS4zMyAtMi4xLC0yLjg1IC0yLjI5LC00LjE4IC0wLjE5LC0wLjk1IDAsLTAuOTUgMC43NiwtMS43MSAwLjk2LC0wLjk1IDEuOTEsLTEuOTEgMi44NiwtMi44NiAwLjE5LC0wLjU3IDAuMzgsLTEuMTQgMC41NywtMS43MSB6IG0gNzIuNDYsLTMxLjM4IGMgMCwwLjE5IDAuMTksMC4zOCAwLjE5LDAuNTcgbCAtMC4xOSwwLjE5IGMgLTAuMTksLTAuMTkgLTAuMzgsLTAuNTcgLTAuNTcsLTAuNzYgMC4xOSwwIDAuMzgsMCAwLjU3LDAgeiIvPiYjeGE7JiN4YTs8cGF0aCBpZD0icGF0aDgwNjQ1IiBpbmtzY2FwZTpjb25uZWN0b3ItY3VydmF0dXJlPSIwIiBzdHlsZT0iZmlsbDojMWUxZTFlIiBkPSJtIDg1LjAxLDE5LjgxMzk2OSBjIDIuNjcsLTAuOTUgNCwtMy4wNSA0LjU3LC01LjcxIC0xLjE0LDIuMDkgLTIuNjYsMy45OSAtNC45NSw0Ljk1IC0xLjE0LDAuNTcgLTEuOSwwLjM4IC0zLjIzLDAuMTkgMS4zMywwLjU3IDIuMjgsMC45NSAzLjYxLDAuNTcgeiIvPiYjeGE7JiN4YTs8cGF0aCBpZD0icGF0aDgwNjUzIiBpbmtzY2FwZTpjb25uZWN0b3ItY3VydmF0dXJlPSIwIiBzdHlsZT0iZmlsbDojMWUxZTFlIiBkPSJtIDY5LjgsMjIuNDczOTY5IGMgLTAuNzYsMCAtMS43MSwwLjE5IC0yLjg1LDAuMzggMCwtMC4zOCAtMC4xOSwtMC41NyAtMC4xOSwtMC45NSAtMC4zOCwtMC43NiAtMC45NSwtMS4zMyAtMS43MSwtMS41MiAwLjU3LC0wLjM4IDEuMzMsLTAuNzYgMS45LC0xLjE0IC0xLjUyLDAuNzYgLTMuMjMsMC41NyAtNC41NywxLjMzIC0xLjE0LDAuNzYgLTIuNjYsMy4yMyAtMy44LDQuMTggMC43NiwtMC4zOCAxLjUyLC0wLjk1IDIuMjgsLTEuNTIgMCwwLjM4IDAuMTksMC45NSAwLjM4LDEuMzMgMC4zOCwwLjU3IDAuNzYsMS4xNCAxLjMzLDEuMzMgLTAuMzgsMC41OCAtMC43NiwxLjE1IC0wLjk1LDEuOTEgMi4xLC0yLjQ4IDUuMTQsLTQuNTcgOC4xOCwtNS4zMyB6Ii8+JiN4YTsmI3hhOzxwYXRoIGlkPSJwYXRoODA2NjEiIGlua3NjYXBlOmNvbm5lY3Rvci1jdXJ2YXR1cmU9IjAiIHN0eWxlPSJmaWxsOiMxZTFlMWUiIGQ9Im0gNTYuMSwxOS42MjM5NjkgYyAwLjU3LC0yLjI5IDEuMzMsLTQuMzggNC43NiwtNS45IC00LjU3LDEuMTQgLTUuMzMsMy4wNCAtNC43Niw1LjkgeiIvPiYjeGE7JiN4YTs8cGF0aCBpZD0icGF0aDgwNjY5IiBpbmtzY2FwZTpjb25uZWN0b3ItY3VydmF0dXJlPSIwIiBzdHlsZT0iZmlsbDojMWUxZTFlIiBkPSJtIDYzLjUyLDQxLjI5Mzk2OSBjIC0wLjE5LDAuNTggLTAuMTksMS41MyAtMC4zOCwyLjEgMC4xOSwtMC43NiAwLjU3LC0xLjcyIDAuOTUsLTIuMjkgMC4zOCwtMC43NiAwLjU3LC0wLjc2IDEuMzMsLTEuMTQgMC41NywtMC4xOSAxLjUyLC0wLjc2IDEuOSwtMC45NSAtMC41NywwIC0xLjUyLDAuMzggLTIuMDksMC4zOCAtMS4zMywwLjE5IC0xLjUyLDAuNTcgLTEuNzEsMS45IHoiLz4mI3hhOyYjeGE7PHBhdGggaWQ9InBhdGg4MDY3NyIgaW5rc2NhcGU6Y29ubmVjdG9yLWN1cnZhdHVyZT0iMCIgc3R5bGU9ImZpbGw6IzFlMWUxZSIgZD0ibSAzOS4xNywxNS42MzM5NjkgYyAtMS43MSwxLjcxIC0zLjIzLDcuMjIgLTMuOCw5LjUxIDAuNzYsLTEuOTEgMi44NSwtNy4wNCA0LjM3LC04LjM3IDAuMzgsLTAuMzggMC43NywtMC41NyAxLjE1LC0wLjc2IC0xLjE1LDEuOSAtMC45NiwyLjI4IC0wLjU4LDQuNzUgMC4zOSwtMi40NyAxLjE1LC0zLjYxIDIuNjcsLTUuNTEgMS41MiwtMC4zOCAzLjA0LC0wLjk1IDQuNzUsLTEuNTIgLTEuOSwwLjE5IC0zLjYxLDAuMzggLTUuNTEsMC41NyAtMS43MSwwLjM4IC0yLjEsMC4zOCAtMy4wNSwxLjMzIHoiLz4mI3hhOyYjeGE7PHBhdGggaWQ9InBhdGg4MDY4NSIgaW5rc2NhcGU6Y29ubmVjdG9yLWN1cnZhdHVyZT0iMCIgc3R5bGU9ImZpbGw6I2ZmZmFjYiIgZD0ibSA2MS44MSwyNS4zMzM5NjkgYyAtMC4zOCwtMC41NyAwLC0xLjM0IDAuNTcsLTEuNzIgMC41NywtMC4zOCAxLjMzLDAgMS43MSwwLjU3IHYgMC4yIGMgLTAuNTcsMC4zOCAtMS4xNCwwLjk1IC0xLjcxLDEuNTIgLTAuMTksMCAtMC41NywtMC4xOSAtMC41NywtMC41NyB6Ii8+JiN4YTsmI3hhOzxwYXRoIGlkPSJwYXRoODA2OTMiIGlua3NjYXBlOmNvbm5lY3Rvci1jdXJ2YXR1cmU9IjAiIHN0eWxlPSJmaWxsOiNmZmZhY2IiIGQ9Im0gNzUuODgsMTkuODEzOTY5IGMgMCwtMC41NyAwLjU3LC0wLjk2IDAuOTUsLTAuOTYgMC41NywwIDAuOTUsMC41OCAwLjk1LDAuOTYgMCwwLjE5IDAsMC4xOSAwLDAuMzggLTAuNTcsMCAtMC45NSwwLjE5IC0xLjUyLDAuMzggLTAuMTksMCAtMC4zOCwtMC4zOCAtMC4zOCwtMC43NiB6Ii8+JiN4YTs8L3N2Zz4=;" vertex="1" parent="weV_pYgRictKtLWvSeBu-1">
          <mxGeometry x="423.05999999999995" y="651.54" width="71.89" height="56" as="geometry" />
        </mxCell>
        <mxCell id="weV_pYgRictKtLWvSeBu-22" value="" style="shape=image;verticalLabelPosition=bottom;labelBackgroundColor=#ffffff;verticalAlign=top;aspect=fixed;imageAspect=0;image=data:image/svg+xml,PHN2ZyB4bWxuczpjYz0iaHR0cDovL2NyZWF0aXZlY29tbW9ucy5vcmcvbnMjIiB4bWxuczpkYz0iaHR0cDovL3B1cmwub3JnL2RjL2VsZW1lbnRzLzEuMS8iIHhtbG5zOmlua3NjYXBlPSJodHRwOi8vd3d3Lmlua3NjYXBlLm9yZy9uYW1lc3BhY2VzL2lua3NjYXBlIiB4bWxuczpyZGY9Imh0dHA6Ly93d3cudzMub3JnLzE5OTkvMDIvMjItcmRmLXN5bnRheC1ucyMiIHhtbG5zOnNvZGlwb2RpPSJodHRwOi8vc29kaXBvZGkuc291cmNlZm9yZ2UubmV0L0RURC9zb2RpcG9kaS0wLmR0ZCIgeG1sbnM6c3ZnPSJodHRwOi8vd3d3LnczLm9yZy8yMDAwL3N2ZyIgeG1sbnM9Imh0dHA6Ly93d3cudzMub3JnLzIwMDAvc3ZnIiB4bWxuczp4bGluaz0iaHR0cDovL3d3dy53My5vcmcvMTk5OS94bGluayIgdmVyc2lvbj0iMS4xIiBpZD0ic3ZnMTAzNjgwIiBpbmtzY2FwZTp2ZXJzaW9uPSIwLjkyLjMgKDI0MDU1NDYsIDIwMTgtMDMtMTEpIiBzb2RpcG9kaTpkb2NuYW1lPSJ2c19vbmxpbmVfdmlzdWFsaXplX3Byb2dyZXNzLnN2ZyIgeD0iMHB4IiB5PSIwcHgiIHZpZXdCb3g9IjAgMCA0NS43NSAzMC4zNyIgc3R5bGU9ImVuYWJsZS1iYWNrZ3JvdW5kOm5ldyAwIDAgNDUuNzUgMzAuMzc7IiB4bWw6c3BhY2U9InByZXNlcnZlIj4mI3hhOzxzb2RpcG9kaTpuYW1lZHZpZXcgYm9yZGVyY29sb3I9IiM2NjY2NjYiIGJvcmRlcm9wYWNpdHk9IjEiIGZpdC1tYXJnaW4tYm90dG9tPSIwIiBmaXQtbWFyZ2luLWxlZnQ9IjAiIGZpdC1tYXJnaW4tcmlnaHQ9IjAiIGZpdC1tYXJnaW4tdG9wPSIwIiBncmlkdG9sZXJhbmNlPSIxMCIgZ3VpZGV0b2xlcmFuY2U9IjEwIiBpZD0ibmFtZWR2aWV3MTAzNjgyIiBpbmtzY2FwZTpjdXJyZW50LWxheWVyPSJzdmcxMDM2ODAiIGlua3NjYXBlOmN4PSIzNy4zOTEyNDYiIGlua3NjYXBlOmN5PSIxMy40NzQxNDQiIGlua3NjYXBlOnBhZ2VvcGFjaXR5PSIwIiBpbmtzY2FwZTpwYWdlc2hhZG93PSIyIiBpbmtzY2FwZTp3aW5kb3ctaGVpZ2h0PSIxMDE3IiBpbmtzY2FwZTp3aW5kb3ctbWF4aW1pemVkPSIxIiBpbmtzY2FwZTp3aW5kb3ctd2lkdGg9IjE5MjAiIGlua3NjYXBlOndpbmRvdy14PSItOCIgaW5rc2NhcGU6d2luZG93LXk9Ii04IiBpbmtzY2FwZTp6b29tPSIxMC4yMDAwMDgiIG9iamVjdHRvbGVyYW5jZT0iMTAiIHBhZ2Vjb2xvcj0iI2ZmZmZmZiIgc2hvd2dyaWQ9ImZhbHNlIj4mI3hhOwk8L3NvZGlwb2RpOm5hbWVkdmlldz4mI3hhOzxnIGlkPSJnMTAzNjc4IiB0cmFuc2Zvcm09InRyYW5zbGF0ZSgtMC43NSwtMC43NSkiPiYjeGE7CTx0aXRsZSBpZD0idGl0bGUxMDM2MzgiPlBhZ2UtMTwvdGl0bGU+JiN4YTsJPGcgaWQ9Imdyb3VwNDI2Mi0xIiB0cmFuc2Zvcm09InRyYW5zbGF0ZSgwLjc1LC0wLjc1KSI+JiN4YTsJCTx0aXRsZSBpZD0idGl0bGUxMDM2NDAiPlZTIE9ubGluZSAtIFZpc3VhbGl6ZSBQcm9ncmVzczwvdGl0bGU+JiN4YTsJCTxnIGlkPSJzaGFwZTQyNjMtMiI+JiN4YTsJCQk8dGl0bGUgaWQ9InRpdGxlMTAzNjQyIj5TaGVldC40MjYzPC90aXRsZT4mI3hhOwkJCTxyZWN0IGlkPSJyZWN0MTAzNjQ0IiB4PSIwIiB5PSIyMi40NSIgc3R5bGU9ImZpbGw6IzE2NzNCQTsiIHdpZHRoPSI1LjI1IiBoZWlnaHQ9IjkuNDIiLz4mI3hhOwkJPC9nPiYjeGE7CQk8ZyBpZD0ic2hhcGU0MjY0LTQiIHRyYW5zZm9ybT0idHJhbnNsYXRlKDYuNzUpIj4mI3hhOwkJCTx0aXRsZSBpZD0idGl0bGUxMDM2NDciPlNoZWV0LjQyNjQ8L3RpdGxlPiYjeGE7CQkJPHJlY3QgaWQ9InJlY3QxMDM2NDkiIHg9IjAiIHk9IjQuODgiIHN0eWxlPSJmaWxsOiM2OTJBN0I7IiB3aWR0aD0iNS4yNSIgaGVpZ2h0PSIyNyIvPiYjeGE7CQk8L2c+JiN4YTsJCTxnIGlkPSJzaGFwZTQyNjUtNiIgdHJhbnNmb3JtPSJ0cmFuc2xhdGUoMjAuMjUpIj4mI3hhOwkJCTx0aXRsZSBpZD0idGl0bGUxMDM2NTIiPlNoZWV0LjQyNjU8L3RpdGxlPiYjeGE7CQkJPHJlY3QgaWQ9InJlY3QxMDM2NTQiIHg9IjAiIHk9IjExLjYzIiBzdHlsZT0iZmlsbDojMUE1MDlCOyIgd2lkdGg9IjUuMjUiIGhlaWdodD0iMjAuMjUiLz4mI3hhOwkJPC9nPiYjeGE7CQk8ZyBpZD0ic2hhcGU0MjY2LTgiIHRyYW5zZm9ybT0idHJhbnNsYXRlKDI3KSI+JiN4YTsJCQk8dGl0bGUgaWQ9InRpdGxlMTAzNjU3Ij5TaGVldC40MjY2PC90aXRsZT4mI3hhOwkJCTxyZWN0IGlkPSJyZWN0MTAzNjU5IiB4PSIwIiB5PSIxLjUiIHN0eWxlPSJmaWxsOiM5QzUwOTg7IiB3aWR0aD0iNS4yNSIgaGVpZ2h0PSIzMC4zOCIvPiYjeGE7CQk8L2c+JiN4YTsJCTxnIGlkPSJzaGFwZTQyNjctMTAiIHRyYW5zZm9ybT0idHJhbnNsYXRlKDEzLjUpIj4mI3hhOwkJCTx0aXRsZSBpZD0idGl0bGUxMDM2NjIiPlNoZWV0LjQyNjc8L3RpdGxlPiYjeGE7CQkJPHJlY3QgaWQ9InJlY3QxMDM2NjQiIHg9IjAiIHk9IjIxLjM4IiBzdHlsZT0iZmlsbDojMzZDNkYzOyIgd2lkdGg9IjUuMjUiIGhlaWdodD0iMTAuNSIvPiYjeGE7CQk8L2c+JiN4YTsJCTxnIGlkPSJzaGFwZTQyNjgtMTIiIHRyYW5zZm9ybT0idHJhbnNsYXRlKDMzLjc1KSI+JiN4YTsJCQk8dGl0bGUgaWQ9InRpdGxlMTAzNjY3Ij5TaGVldC40MjY4PC90aXRsZT4mI3hhOwkJCTxyZWN0IGlkPSJyZWN0MTAzNjY5IiB4PSIwIiB5PSIxOS44OCIgc3R5bGU9ImZpbGw6IzE2MjQ0RTsiIHdpZHRoPSI1LjI1IiBoZWlnaHQ9IjEyIi8+JiN4YTsJCTwvZz4mI3hhOwkJPGcgaWQ9InNoYXBlNDI2OS0xNCIgdHJhbnNmb3JtPSJ0cmFuc2xhdGUoNDAuNSkiPiYjeGE7CQkJPHRpdGxlIGlkPSJ0aXRsZTEwMzY3MiI+U2hlZXQuNDI2OTwvdGl0bGU+JiN4YTsJCQk8cmVjdCBpZD0icmVjdDEwMzY3NCIgeD0iMCIgeT0iMTEuNjMiIHN0eWxlPSJmaWxsOiM5QzUwOTg7IiB3aWR0aD0iNS4yNSIgaGVpZ2h0PSIyMC4yNSIvPiYjeGE7CQk8L2c+JiN4YTsJPC9nPiYjeGE7PC9nPiYjeGE7PC9zdmc+;" vertex="1" parent="weV_pYgRictKtLWvSeBu-1">
          <mxGeometry x="742" y="605.04" width="46" height="30" as="geometry" />
        </mxCell>
        <mxCell id="weV_pYgRictKtLWvSeBu-23" value="" style="shape=image;verticalLabelPosition=bottom;labelBackgroundColor=#ffffff;verticalAlign=top;aspect=fixed;imageAspect=0;image=data:image/svg+xml,PHN2ZyB4bWxuczpjYz0iaHR0cDovL2NyZWF0aXZlY29tbW9ucy5vcmcvbnMjIiB4bWxuczpkYz0iaHR0cDovL3B1cmwub3JnL2RjL2VsZW1lbnRzLzEuMS8iIHhtbG5zOmlua3NjYXBlPSJodHRwOi8vd3d3Lmlua3NjYXBlLm9yZy9uYW1lc3BhY2VzL2lua3NjYXBlIiB4bWxuczpyZGY9Imh0dHA6Ly93d3cudzMub3JnLzE5OTkvMDIvMjItcmRmLXN5bnRheC1ucyMiIHhtbG5zOnNvZGlwb2RpPSJodHRwOi8vc29kaXBvZGkuc291cmNlZm9yZ2UubmV0L0RURC9zb2RpcG9kaS0wLmR0ZCIgeG1sbnM6c3ZnPSJodHRwOi8vd3d3LnczLm9yZy8yMDAwL3N2ZyIgeG1sbnM9Imh0dHA6Ly93d3cudzMub3JnLzIwMDAvc3ZnIiB4bWxuczp4bGluaz0iaHR0cDovL3d3dy53My5vcmcvMTk5OS94bGluayIgdmVyc2lvbj0iMS4xIiBpZD0ic3ZnMTAwNzM2IiBpbmtzY2FwZTp2ZXJzaW9uPSIwLjkyLjMgKDI0MDU1NDYsIDIwMTgtMDMtMTEpIiBzb2RpcG9kaTpkb2NuYW1lPSJ1c2Vycy5zdmciIHg9IjBweCIgeT0iMHB4IiB2aWV3Qm94PSIwIDAgMTkyLjEyIDIyNC45MSIgc3R5bGU9ImVuYWJsZS1iYWNrZ3JvdW5kOm5ldyAwIDAgMTkyLjEyIDIyNC45MTsiIHhtbDpzcGFjZT0icHJlc2VydmUiPiYjeGE7PHNvZGlwb2RpOm5hbWVkdmlldyBib3JkZXJjb2xvcj0iIzY2NjY2NiIgYm9yZGVyb3BhY2l0eT0iMSIgZml0LW1hcmdpbi1ib3R0b209IjAiIGZpdC1tYXJnaW4tbGVmdD0iMCIgZml0LW1hcmdpbi1yaWdodD0iMCIgZml0LW1hcmdpbi10b3A9IjAiIGdyaWR0b2xlcmFuY2U9IjEwIiBndWlkZXRvbGVyYW5jZT0iMTAiIGlkPSJuYW1lZHZpZXcxMDA3MzgiIGlua3NjYXBlOmN1cnJlbnQtbGF5ZXI9InN2ZzEwMDczNiIgaW5rc2NhcGU6Y3g9IjIwMS40NDcwNiIgaW5rc2NhcGU6Y3k9IjczLjk2NDI1MyIgaW5rc2NhcGU6cGFnZW9wYWNpdHk9IjAiIGlua3NjYXBlOnBhZ2VzaGFkb3c9IjIiIGlua3NjYXBlOndpbmRvdy1oZWlnaHQ9IjEwMTciIGlua3NjYXBlOndpbmRvdy1tYXhpbWl6ZWQ9IjEiIGlua3NjYXBlOndpbmRvdy13aWR0aD0iMTkyMCIgaW5rc2NhcGU6d2luZG93LXg9Ii04IiBpbmtzY2FwZTp3aW5kb3cteT0iLTgiIGlua3NjYXBlOnpvb209IjEuNDQ1NTY5IiBvYmplY3R0b2xlcmFuY2U9IjEwIiBwYWdlY29sb3I9IiNmZmZmZmYiIHNob3dncmlkPSJmYWxzZSI+JiN4YTsJPC9zb2RpcG9kaTpuYW1lZHZpZXc+JiN4YTs8ZyBpZD0iZzEwMDczNCIgdHJhbnNmb3JtPSJ0cmFuc2xhdGUoLTQuOTkwNTY4MWUtNywwLjAwNDQ1NzEzKSI+JiN4YTsJPHRpdGxlIGlkPSJ0aXRsZTEwMDU4NCI+UGFnZS0xPC90aXRsZT4mI3hhOwk8ZyBpZD0iZ3JvdXA1NTkzLTEiIHRyYW5zZm9ybT0idHJhbnNsYXRlKDAuMTQ5OTk5LC0wLjE0OTk5OSkiPiYjeGE7CQk8dGl0bGUgaWQ9InRpdGxlMTAwNTg2Ij5Vc2VyczwvdGl0bGU+JiN4YTsJCTxnIGlkPSJzaGFwZTU1OTQtMiIgdHJhbnNmb3JtPSJ0cmFuc2xhdGUoMjguNDk5MiwtMTM2LjY4MSkiPiYjeGE7CQkJPHRpdGxlIGlkPSJ0aXRsZTEwMDU4OCI+U2hlZXQuNTU5NDwvdGl0bGU+JiN4YTsJCQk8cGF0aCBpZD0icGF0aDEwMDU5MCIgaW5rc2NhcGU6Y29ubmVjdG9yLWN1cnZhdHVyZT0iMCIgc3R5bGU9ImZpbGw6IzZENDgyOTsiIGQ9Ik0wLDIyNC45MXYtMjguNDRoNDcuMzR2MjguNDRIMHoiLz4mI3hhOwkJPC9nPiYjeGE7CQk8ZyBpZD0ic2hhcGU1NTk1LTQiIHRyYW5zZm9ybT0idHJhbnNsYXRlKDAuMTE5OTk3LC0zMC42MDAyKSI+JiN4YTsJCQk8dGl0bGUgaWQ9InRpdGxlMTAwNTkzIj5TaGVldC41NTk1PC90aXRsZT4mI3hhOwkJCTxwYXRoIGlkPSJwYXRoMTAwNTk1IiBpbmtzY2FwZTpjb25uZWN0b3ItY3VydmF0dXJlPSIwIiBzdHlsZT0iZmlsbDojNDBDNUFGOyIgZD0iTTIyLjAyLDExMC4zMWg2MC4yNCAgICAgYzEyLjEyLDAsMjIuMDIsMTAuOCwyMi4wMiwyMy41MnYxOS42Mkg4Mi4zMnY3MS40NkgyMi4wOHYtNzEuNDZIMHYtMTkuNTZsMCwwYzAtMTIuNzgsOS45LTIzLjUyLDIyLjAyLTIzLjUyVjExMC4zMXoiLz4mI3hhOwkJPC9nPiYjeGE7CQk8ZyBpZD0ic2hhcGU1NTk2LTYiIHRyYW5zZm9ybT0idHJhbnNsYXRlKDg3LjE3NzYsLTQzLjA4MDMpIj4mI3hhOwkJCTx0aXRsZSBpZD0idGl0bGUxMDA1OTgiPlNoZWV0LjU1OTY8L3RpdGxlPiYjeGE7CQkJPHBhdGggaWQ9InBhdGgxMDA2MDAiIGlua3NjYXBlOmNvbm5lY3Rvci1jdXJ2YXR1cmU9IjAiIHN0eWxlPSJmaWxsOiNFMEJCOEQ7IiBkPSJNMTQuODIsMjI0Ljg1aDI0LjY2di0xOC44NEgxNy4yMnYtNDAuMDhIMCAgICAgdjQ0LjE2bDAsMGMwLjA2LDguMTYsNi42NiwxNC43NiwxNC44MiwxNC44MlYyMjQuODV6Ii8+JiN4YTsJCTwvZz4mI3hhOwkJPGcgaWQ9InNoYXBlNTU5Ny04Ij4mI3hhOwkJCTx0aXRsZSBpZD0idGl0bGUxMDA2MDMiPlNoZWV0LjU1OTc8L3RpdGxlPiYjeGE7CQkJPHBhdGggaWQ9InBhdGgxMDA2MDUiIGlua3NjYXBlOmNvbm5lY3Rvci1jdXJ2YXR1cmU9IjAiIHN0eWxlPSJmaWxsOiNFMEJCOEQ7IiBkPSJNMCwxMjIuODVoMTcuMjJ2MTAyLjA2SDBWMTIyLjg1eiIvPiYjeGE7CQk8L2c+JiN4YTsJCTxnIGlkPSJzaGFwZTU1OTgtMTAiPiYjeGE7CQkJPHRpdGxlIGlkPSJ0aXRsZTEwMDYwOCI+U2hlZXQuNTU5ODwvdGl0bGU+JiN4YTsJCQkmI3hhOwkJCQk8cGF0aCBpZD0icGF0aDEwMDYxMCIgaW5rc2NhcGU6Y29ubmVjdG9yLWN1cnZhdHVyZT0iMCIgc3R5bGU9ImZpbGw6bm9uZTtzdHJva2U6I0ZGRkZGRjtzdHJva2Utd2lkdGg6MC4zO3N0cm9rZS1saW5lY2FwOnJvdW5kO3N0cm9rZS1saW5lam9pbjpyb3VuZDtzdHJva2UtbWl0ZXJsaW1pdDozOyIgZD0iICAgICBNMCwxMjIuODVoMTcuMjJ2MTAyLjA2SDBWMTIyLjg1eiIvPiYjeGE7CQk8L2c+JiN4YTsJCTxnIGlkPSJzaGFwZTU1OTktMTIiIHRyYW5zZm9ybT0idHJhbnNsYXRlKDExMi40OTcsLTY4LjQwMDUpIj4mI3hhOwkJCTx0aXRsZSBpZD0idGl0bGUxMDA2MTMiPlNoZWV0LjU1OTk8L3RpdGxlPiYjeGE7CQkJPHBhdGggaWQ9InBhdGgxMDA2MTUiIGlua3NjYXBlOmNvbm5lY3Rvci1jdXJ2YXR1cmU9IjAiIHN0eWxlPSJmaWxsOiMzRjU3NjU7IiBkPSJNNzkuMzIsMTg2LjUxbC0yMC44OCwzOC40SDBsMjAuNTgtMzguNCAgICAgTDc5LjMyLDE4Ni41MXoiLz4mI3hhOwkJPC9nPiYjeGE7CQk8ZyBpZD0ic2hhcGU1NjAwLTE0IiB0cmFuc2Zvcm09InRyYW5zbGF0ZSgxMTIuNDk3LC02OC40MDA1KSI+JiN4YTsJCQk8dGl0bGUgaWQ9InRpdGxlMTAwNjE4Ij5TaGVldC41NjAwPC90aXRsZT4mI3hhOwkJCSYjeGE7CQkJCTxwYXRoIGlkPSJwYXRoMTAwNjIwIiBpbmtzY2FwZTpjb25uZWN0b3ItY3VydmF0dXJlPSIwIiBzdHlsZT0iZmlsbDpub25lO3N0cm9rZTojRkZGRkZGO3N0cm9rZS13aWR0aDowLjM7c3Ryb2tlLWxpbmVjYXA6cm91bmQ7c3Ryb2tlLWxpbmVqb2luOnJvdW5kO3N0cm9rZS1taXRlcmxpbWl0OjM7IiBkPSIgICAgIE03OS4zMiwxODYuNTFsLTIwLjg4LDM4LjRIMGwyMC41OC0zOC40TDc5LjMyLDE4Ni41MXoiLz4mI3hhOwkJPC9nPiYjeGE7CQk8ZyBpZD0ic2hhcGU1NjAxLTE2IiB0cmFuc2Zvcm09InRyYW5zbGF0ZSgwLC05Ny4wMjA4KSI+JiN4YTsJCQk8dGl0bGUgaWQ9InRpdGxlMTAwNjIzIj5TaGVldC41NjAxPC90aXRsZT4mI3hhOwkJCTxwYXRoIGlkPSJwYXRoMTAwNjI1IiBpbmtzY2FwZTpjb25uZWN0b3ItY3VydmF0dXJlPSIwIiBzdHlsZT0iZmlsbDojQzM5ODZGOyIgZD0iTTE3LjIyLDIyNC45MXYtNS4wNEgwdjUuMDRIMTcuMjJ6Ii8+JiN4YTsJCTwvZz4mI3hhOwkJPGcgaWQ9InNoYXBlNTYwMi0xOCIgdHJhbnNmb3JtPSJ0cmFuc2xhdGUoMCwtOTcuMDIwOCkiPiYjeGE7CQkJPHRpdGxlIGlkPSJ0aXRsZTEwMDYyOCI+U2hlZXQuNTYwMjwvdGl0bGU+JiN4YTsJCQkmI3hhOwkJCQk8cGF0aCBpZD0icGF0aDEwMDYzMCIgaW5rc2NhcGU6Y29ubmVjdG9yLWN1cnZhdHVyZT0iMCIgc3R5bGU9ImZpbGw6bm9uZTtzdHJva2U6I0ZGRkZGRjtzdHJva2Utd2lkdGg6MC4zO3N0cm9rZS1saW5lY2FwOnJvdW5kO3N0cm9rZS1saW5lam9pbjpyb3VuZDtzdHJva2UtbWl0ZXJsaW1pdDozOyIgZD0iICAgICBNMTcuMjIsMjI0Ljkxdi01LjA0SDB2NS4wNEgxNy4yMnoiLz4mI3hhOwkJPC9nPiYjeGE7CQk8ZyBpZD0ic2hhcGU1NjAzLTIwIiB0cmFuc2Zvcm09InRyYW5zbGF0ZSg4Ny4xNzc2LC05Ny4wMjA4KSI+JiN4YTsJCQk8dGl0bGUgaWQ9InRpdGxlMTAwNjMzIj5TaGVldC41NjAzPC90aXRsZT4mI3hhOwkJCTxwYXRoIGlkPSJwYXRoMTAwNjM1IiBpbmtzY2FwZTpjb25uZWN0b3ItY3VydmF0dXJlPSIwIiBzdHlsZT0iZmlsbDojQzM5ODZGOyIgZD0iTTE3LjIyLDIyNC45MXYtNS4wNEgwdjUuMDRIMTcuMjJ6Ii8+JiN4YTsJCTwvZz4mI3hhOwkJPGcgaWQ9InNoYXBlNTYwNC0yMiIgdHJhbnNmb3JtPSJ0cmFuc2xhdGUoODcuMTc3NiwtOTcuMDIwOCkiPiYjeGE7CQkJPHRpdGxlIGlkPSJ0aXRsZTEwMDYzOCI+U2hlZXQuNTYwNDwvdGl0bGU+JiN4YTsJCQkmI3hhOwkJCQk8cGF0aCBpZD0icGF0aDEwMDY0MCIgaW5rc2NhcGU6Y29ubmVjdG9yLWN1cnZhdHVyZT0iMCIgc3R5bGU9ImZpbGw6bm9uZTtzdHJva2U6I0ZGRkZGRjtzdHJva2Utd2lkdGg6MC4zO3N0cm9rZS1saW5lY2FwOnJvdW5kO3N0cm9rZS1saW5lam9pbjpyb3VuZDtzdHJva2UtbWl0ZXJsaW1pdDozOyIgZD0iICAgICBNMTcuMjIsMjI0Ljkxdi01LjA0SDB2NS4wNEgxNy4yMnoiLz4mI3hhOwkJPC9nPiYjeGE7CQk8ZyBpZD0ic2hhcGU1NjA1LTI0IiB0cmFuc2Zvcm09InRyYW5zbGF0ZSg0MS44Nzg5LC0xMzcuNTgxKSI+JiN4YTsJCQk8dGl0bGUgaWQ9InRpdGxlMTAwNjQzIj5TaGVldC41NjA1PC90aXRsZT4mI3hhOwkJCTxwYXRoIGlkPSJwYXRoMTAwNjQ1IiBpbmtzY2FwZTpjb25uZWN0b3ItY3VydmF0dXJlPSIwIiBzdHlsZT0iZmlsbDojRTFCQzhGOyIgZD0iTTAsMTkxLjQzaDIwLjI4djI3Ljg0bC0xMC4zMiw1LjY0TDAsMjE5LjI3ICAgICBWMTkxLjQzeiIvPiYjeGE7CQk8L2c+JiN4YTsJCTxnIGlkPSJzaGFwZTU2MDYtMjYiIHRyYW5zZm9ybT0idHJhbnNsYXRlKDIzLjM5OTQsLTE4MC40MjEpIj4mI3hhOwkJCTx0aXRsZSBpZD0idGl0bGUxMDA2NDgiPlNoZWV0LjU2MDY8L3RpdGxlPiYjeGE7CQkJPHBhdGggaWQ9InBhdGgxMDA2NTAiIGlua3NjYXBlOmNvbm5lY3Rvci1jdXJ2YXR1cmU9IjAiIHN0eWxlPSJmaWxsOiNDNDk5NzA7IiBkPSJNNTcuNzIsMjIxLjc5YzAsMS42Mi0xLjIsMy0yLjgyLDMuMTJIMi44OCAgICAgYy0xLjYyLTAuMTItMi44OC0xLjUtMi44OC0zLjEydi02LjI0YzAtMS41NiwxLjMyLTIuODIsMi44OC0yLjgySDU0LjljMS41NiwwLDIuODIsMS4yNiwyLjgyLDIuODJWMjIxLjc5eiIvPiYjeGE7CQk8L2c+JiN4YTsJCTxnIGlkPSJzaGFwZTU2MDctMjgiIHRyYW5zZm9ybT0idHJhbnNsYXRlKDQyLjExODksLTEzNy41ODEpIj4mI3hhOwkJCTx0aXRsZSBpZD0idGl0bGUxMDA2NTMiPlNoZWV0LjU2MDc8L3RpdGxlPiYjeGE7CQkJJiN4YTsJCQkJPHBhdGggaWQ9InBhdGgxMDA2NTUiIGlua3NjYXBlOmNvbm5lY3Rvci1jdXJ2YXR1cmU9IjAiIHN0eWxlPSJmaWxsOm5vbmU7c3Ryb2tlOiNGRkZGRkY7c3Ryb2tlLXdpZHRoOjAuNDg7c3Ryb2tlLWxpbmVjYXA6cm91bmQ7c3Ryb2tlLWxpbmVqb2luOnJvdW5kO3N0cm9rZS1taXRlcmxpbWl0OjM7IiBkPSIgICAgIE0wLDE5MS40M2gyMC4yOHYyNy44NGwtMTAuMjYsNS42NEwwLDIxOS4yN1YxOTEuNDN6Ii8+JiN4YTsJCTwvZz4mI3hhOwkJPGcgaWQ9InNoYXBlNTYwOC0zMCIgdHJhbnNmb3JtPSJ0cmFuc2xhdGUoNDIuMTE4OSwtMTUzLjU0MSkiPiYjeGE7CQkJPHRpdGxlIGlkPSJ0aXRsZTEwMDY1OCI+U2hlZXQuNTYwODwvdGl0bGU+JiN4YTsJCQk8cGF0aCBpZD0icGF0aDEwMDY2MCIgaW5rc2NhcGU6Y29ubmVjdG9yLWN1cnZhdHVyZT0iMCIgc3R5bGU9ImZpbGw6I0M0OTk3MDsiIGQ9Ik0wLDIyMy43MWMzLjMsMC45LDYuNjYsMS4zMiwxMC4wMiwxLjIgICAgIGMzLjQ4LDAuMDYsNi45LTAuMzYsMTAuMjYtMS4ydi0xNi4zMkgwVjIyMy43MXoiLz4mI3hhOwkJPC9nPiYjeGE7CQk8ZyBpZD0ic2hhcGU1NjA5LTMyIiB0cmFuc2Zvcm09InRyYW5zbGF0ZSgyOC43MzkyLC0xNTcuMzIxKSI+JiN4YTsJCQk8dGl0bGUgaWQ9InRpdGxlMTAwNjYzIj5TaGVldC41NjA5PC90aXRsZT4mI3hhOwkJCTxwYXRoIGlkPSJwYXRoMTAwNjY1IiBpbmtzY2FwZTpjb25uZWN0b3ItY3VydmF0dXJlPSIwIiBzdHlsZT0iZmlsbDojRTFCQzhGOyIgZD0iTTAsMTc5Ljk3djM3LjE0YzYuNzgsNC45OCwxNC45NCw3LjY4LDIzLjQsNy44ICAgICBjOC41OC0wLjEyLDE2Ljk4LTIuODIsMjQtNy44di0zNy4xNEgweiIvPiYjeGE7CQk8L2c+JiN4YTsJCTxnIGlkPSJzaGFwZTU2MTAtMzQiIHRyYW5zZm9ybT0idHJhbnNsYXRlKDI4LjQzOTIsLTE4OS4xMjEpIj4mI3hhOwkJCTx0aXRsZSBpZD0idGl0bGUxMDA2NjgiPlNoZWV0LjU2MTA8L3RpdGxlPiYjeGE7CQkJPHBhdGggaWQ9InBhdGgxMDA2NzAiIGlua3NjYXBlOmNvbm5lY3Rvci1jdXJ2YXR1cmU9IjAiIHN0eWxlPSJmaWxsOiM2RDQ4Mjk7IiBkPSJNMzMuNjYsMTkxLjQ5Yy0zLTEuNS02LjMtMi4yOC05LjY2LTIuMjIgICAgIGMtMTMuMi0wLjEyLTI0LDEwLjU2LTI0LDIzLjc2djExLjg4QzE3Ljc2LDIyMi42OSwzMS44LDIwOC45NSwzMy42NiwxOTEuNDl6Ii8+JiN4YTsJCTwvZz4mI3hhOwkJPGcgaWQ9InNoYXBlNTYxMS0zNiIgdHJhbnNmb3JtPSJ0cmFuc2xhdGUoNDIuNDc4OSwtMTg5LjEyMSkiPiYjeGE7CQkJPHRpdGxlIGlkPSJ0aXRsZTEwMDY3MyI+U2hlZXQuNTYxMTwvdGl0bGU+JiN4YTsJCQk8cGF0aCBpZD0icGF0aDEwMDY3NSIgaW5rc2NhcGU6Y29ubmVjdG9yLWN1cnZhdHVyZT0iMCIgc3R5bGU9ImZpbGw6IzZENDgyOTsiIGQ9Ik0wLDE5MS40OWMzLjA2LTEuNTYsNi40OC0yLjI4LDkuOTYtMi4yMiAgICAgYzEzLjA4LDAsMjMuNywxMC42MiwyMy43LDIzLjc2djExLjg4QzE2LjE0LDIyMi43NSwyLjI4LDIwOS4wMSwwLDE5MS40OXoiLz4mI3hhOwkJPC9nPiYjeGE7CQk8ZyBpZD0ic2hhcGU1NjEyLTM4IiB0cmFuc2Zvcm09InRyYW5zbGF0ZSg0Mi4xMTg5LC0xNjYuMDgxKSI+JiN4YTsJCQk8dGl0bGUgaWQ9InRpdGxlMTAwNjc4Ij5TaGVldC41NjEyPC90aXRsZT4mI3hhOwkJCTxwYXRoIGlkPSJwYXRoMTAwNjgwIiBpbmtzY2FwZTpjb25uZWN0b3ItY3VydmF0dXJlPSIwIiBzdHlsZT0iZmlsbDojRkZGRkZGOyIgZD0iTTAsMjE5LjkzYzIuNDYsMy4yNCw2LjMsNS4xLDEwLjMyLDQuOTggICAgIGMzLjk2LDAuMDYsNy42OC0xLjgsMTAuMDItNC45OEgweiIvPiYjeGE7CQk8L2c+JiN4YTsJCTxnIGlkPSJzaGFwZTU2MTMtNDAiIHRyYW5zZm9ybT0idHJhbnNsYXRlKDQ5LjAxODcsLTE3NS4zODEpIj4mI3hhOwkJCTx0aXRsZSBpZD0idGl0bGUxMDA2ODMiPlNoZWV0LjU2MTM8L3RpdGxlPiYjeGE7CQkJPHBhdGggaWQ9InBhdGgxMDA2ODUiIGlua3NjYXBlOmNvbm5lY3Rvci1jdXJ2YXR1cmU9IjAiIHN0eWxlPSJmaWxsOiNDNDk5NzA7IiBkPSJNMCwyMjMuMzVjMC44NCwwLjk2LDIuMSwxLjU2LDMuNDIsMS41NiAgICAgYzEuMjYsMCwyLjQtMC42LDMuMTItMS41NkgweiIvPiYjeGE7CQk8L2c+JiN4YTsJCTxnIGlkPSJzaGFwZTU2MTQtNDIiIHRyYW5zZm9ybT0idHJhbnNsYXRlKDM5LjU4MzksLTE4NS4xMDEpIj4mI3hhOwkJCTx0aXRsZSBpZD0idGl0bGUxMDA2ODgiPlNoZWV0LjU2MTQ8L3RpdGxlPiYjeGE7CQkJPHBhdGggaWQ9InBhdGgxMDA2OTAiIGlua3NjYXBlOmNvbm5lY3Rvci1jdXJ2YXR1cmU9IjAiIHN0eWxlPSJmaWxsOiMzMzMzMzM7IiBkPSJNMy40MywyMjMuMzVjLTAuMDYsMC45Ni0wLjksMS42Mi0xLjg2LDEuNTYgICAgIGMtMi4wOSwwLTIuMDktMy4xMiwwLTMuMTJDMi41MywyMjEuNzMsMy4zNywyMjIuMzksMy40MywyMjMuMzV6Ii8+JiN4YTsJCTwvZz4mI3hhOwkJPGcgaWQ9InNoYXBlNTYxNS00NCIgdHJhbnNmb3JtPSJ0cmFuc2xhdGUoNjEuNzgzMywtMTg1LjEwMSkiPiYjeGE7CQkJPHRpdGxlIGlkPSJ0aXRsZTEwMDY5MyI+U2hlZXQuNTYxNTwvdGl0bGU+JiN4YTsJCQk8cGF0aCBpZD0icGF0aDEwMDY5NSIgaW5rc2NhcGU6Y29ubmVjdG9yLWN1cnZhdHVyZT0iMCIgc3R5bGU9ImZpbGw6IzMzMzMzMzsiIGQ9Ik0zLjQzLDIyMy4zNWMtMC4xMiwwLjk2LTAuOTYsMS42Mi0xLjg2LDEuNTYgICAgIGMtMi4wOSwwLTIuMDktMy4xMiwwLTMuMTJDMi40NywyMjEuNzMsMy4zMSwyMjIuMzksMy40MywyMjMuMzV6Ii8+JiN4YTsJCTwvZz4mI3hhOwkJPGcgaWQ9InNoYXBlNTYxNi00NiIgdHJhbnNmb3JtPSJ0cmFuc2xhdGUoNDYuNDk4NywtODYuNzYwNykiPiYjeGE7CQkJPHRpdGxlIGlkPSJ0aXRsZTEwMDY5OCI+U2hlZXQuNTYxNjwvdGl0bGU+JiN4YTsJCQk8cGF0aCBpZD0icGF0aDEwMDcwMCIgaW5rc2NhcGU6Y29ubmVjdG9yLWN1cnZhdHVyZT0iMCIgc3R5bGU9ImZpbGw6I0ZGRkZGRjsiIGQ9Ik0wLDIwNS45NWgxMS41MnYxOC45NkgwVjIwNS45NXoiLz4mI3hhOwkJPC9nPiYjeGE7CQk8ZyBpZD0ic2hhcGU1NjE3LTQ4IiB0cmFuc2Zvcm09InRyYW5zbGF0ZSg0My4xMzg4LC0xMDUuMzYxKSI+JiN4YTsJCQk8dGl0bGUgaWQ9InRpdGxlMTAwNzAzIj5TaGVldC41NjE3PC90aXRsZT4mI3hhOwkJCSYjeGE7CQkJCTxwYXRoIGlkPSJwYXRoMTAwNzA1IiBpbmtzY2FwZTpjb25uZWN0b3ItY3VydmF0dXJlPSIwIiBzdHlsZT0iZmlsbDpub25lO3N0cm9rZTojRkZGRkZGO3N0cm9rZS13aWR0aDowLjc4O3N0cm9rZS1saW5lY2FwOnJvdW5kO3N0cm9rZS1saW5lam9pbjpyb3VuZDtzdHJva2UtbWl0ZXJsaW1pdDozOyIgZD0iICAgICBNMy45LDIyNC45MUwwLDE4Ny41OSIvPiYjeGE7CQk8L2c+JiN4YTsJCTxnIGlkPSJzaGFwZTU2MTgtNTEiIHRyYW5zZm9ybT0idHJhbnNsYXRlKDU3LjUzODQsLTEwNS40ODEpIj4mI3hhOwkJCTx0aXRsZSBpZD0idGl0bGUxMDA3MDgiPlNoZWV0LjU2MTg8L3RpdGxlPiYjeGE7CQkJJiN4YTsJCQkJPHBhdGggaWQ9InBhdGgxMDA3MTAiIGlua3NjYXBlOmNvbm5lY3Rvci1jdXJ2YXR1cmU9IjAiIHN0eWxlPSJmaWxsOm5vbmU7c3Ryb2tlOiNGRkZGRkY7c3Ryb2tlLXdpZHRoOjAuNzg7c3Ryb2tlLWxpbmVjYXA6cm91bmQ7c3Ryb2tlLWxpbmVqb2luOnJvdW5kO3N0cm9rZS1taXRlcmxpbWl0OjM7IiBkPSIgICAgIE0wLDIyNC45MWwzLjg0LTM3LjIiLz4mI3hhOwkJPC9nPiYjeGE7CQk8ZyBpZD0ic2hhcGU1NjE5LTU0IiB0cmFuc2Zvcm09InRyYW5zbGF0ZSg0OC42NTg3LC05Ni40ODA3KSI+JiN4YTsJCQk8dGl0bGUgaWQ9InRpdGxlMTAwNzEzIj5TaGVldC41NjE5PC90aXRsZT4mI3hhOwkJCTxwYXRoIGlkPSJwYXRoMTAwNzE1IiBpbmtzY2FwZTpjb25uZWN0b3ItY3VydmF0dXJlPSIwIiBzdHlsZT0iZmlsbDojRjA1MTI1OyIgZD0iTTAsMjIxLjQ5aDMuNDJ2My40MkgwVjIyMS40OXoiLz4mI3hhOwkJPC9nPiYjeGE7CQk8ZyBpZD0ic2hhcGU1NjIwLTU2IiB0cmFuc2Zvcm09InRyYW5zbGF0ZSg1Mi40OTg2LC05Ni40ODA3KSI+JiN4YTsJCQk8dGl0bGUgaWQ9InRpdGxlMTAwNzE4Ij5TaGVldC41NjIwPC90aXRsZT4mI3hhOwkJCTxwYXRoIGlkPSJwYXRoMTAwNzIwIiBpbmtzY2FwZTpjb25uZWN0b3ItY3VydmF0dXJlPSIwIiBzdHlsZT0iZmlsbDojN0ZCQjQyOyIgZD0iTTAsMjIxLjQ5aDMuNDJ2My40MkgwVjIyMS40OXoiLz4mI3hhOwkJPC9nPiYjeGE7CQk8ZyBpZD0ic2hhcGU1NjIxLTU4IiB0cmFuc2Zvcm09InRyYW5zbGF0ZSg1Mi40OTg2LC05Mi42NDA3KSI+JiN4YTsJCQk8dGl0bGUgaWQ9InRpdGxlMTAwNzIzIj5TaGVldC41NjIxPC90aXRsZT4mI3hhOwkJCTxwYXRoIGlkPSJwYXRoMTAwNzI1IiBpbmtzY2FwZTpjb25uZWN0b3ItY3VydmF0dXJlPSIwIiBzdHlsZT0iZmlsbDojRkRCODEzOyIgZD0iTTAsMjIxLjQ5aDMuNDJ2My40MkgwVjIyMS40OXoiLz4mI3hhOwkJPC9nPiYjeGE7CQk8ZyBpZD0ic2hhcGU1NjIyLTYwIiB0cmFuc2Zvcm09InRyYW5zbGF0ZSg0OC42NTg3LC05Mi42NDA3KSI+JiN4YTsJCQk8dGl0bGUgaWQ9InRpdGxlMTAwNzI4Ij5TaGVldC41NjIyPC90aXRsZT4mI3hhOwkJCTxwYXRoIGlkPSJwYXRoMTAwNzMwIiBpbmtzY2FwZTpjb25uZWN0b3ItY3VydmF0dXJlPSIwIiBzdHlsZT0iZmlsbDojMzJBMERBOyIgZD0iTTAsMjIxLjQ5aDMuNDJ2My40MkgwVjIyMS40OXoiLz4mI3hhOwkJPC9nPiYjeGE7CTwvZz4mI3hhOzwvZz4mI3hhOzwvc3ZnPg==;" vertex="1" parent="weV_pYgRictKtLWvSeBu-1">
          <mxGeometry x="742" y="704.29" width="46.94" height="55" as="geometry" />
        </mxCell>
        <mxCell id="weV_pYgRictKtLWvSeBu-26" value="" style="shape=image;verticalLabelPosition=bottom;labelBackgroundColor=#ffffff;verticalAlign=top;aspect=fixed;imageAspect=0;image=data:image/svg+xml,PHN2ZyB4bWxuczpjYz0iaHR0cDovL2NyZWF0aXZlY29tbW9ucy5vcmcvbnMjIiB4bWxuczpkYz0iaHR0cDovL3B1cmwub3JnL2RjL2VsZW1lbnRzLzEuMS8iIHhtbG5zOmlua3NjYXBlPSJodHRwOi8vd3d3Lmlua3NjYXBlLm9yZy9uYW1lc3BhY2VzL2lua3NjYXBlIiB4bWxuczpyZGY9Imh0dHA6Ly93d3cudzMub3JnLzE5OTkvMDIvMjItcmRmLXN5bnRheC1ucyMiIHhtbG5zOnNvZGlwb2RpPSJodHRwOi8vc29kaXBvZGkuc291cmNlZm9yZ2UubmV0L0RURC9zb2RpcG9kaS0wLmR0ZCIgeG1sbnM6c3ZnPSJodHRwOi8vd3d3LnczLm9yZy8yMDAwL3N2ZyIgeG1sbnM9Imh0dHA6Ly93d3cudzMub3JnLzIwMDAvc3ZnIiB4bWxuczp4bGluaz0iaHR0cDovL3d3dy53My5vcmcvMTk5OS94bGluayIgdmVyc2lvbj0iMS4xIiBpZD0ic3ZnMTAxMjg5IiBpbmtzY2FwZTp2ZXJzaW9uPSIwLjkyLjMgKDI0MDU1NDYsIDIwMTgtMDMtMTEpIiBzb2RpcG9kaTpkb2NuYW1lPSJtb25nb2RiLnN2ZyIgeD0iMHB4IiB5PSIwcHgiIHZpZXdCb3g9IjAgMCAxMDEuMjggNjQuNDYiIHN0eWxlPSJlbmFibGUtYmFja2dyb3VuZDpuZXcgMCAwIDEwMS4yOCA2NC40NjsiIHhtbDpzcGFjZT0icHJlc2VydmUiPiYjeGE7PHNvZGlwb2RpOm5hbWVkdmlldyBib3JkZXJjb2xvcj0iIzY2NjY2NiIgYm9yZGVyb3BhY2l0eT0iMSIgZml0LW1hcmdpbi1ib3R0b209IjAiIGZpdC1tYXJnaW4tbGVmdD0iMCIgZml0LW1hcmdpbi1yaWdodD0iMCIgZml0LW1hcmdpbi10b3A9IjAiIGdyaWR0b2xlcmFuY2U9IjEwIiBndWlkZXRvbGVyYW5jZT0iMTAiIGlkPSJuYW1lZHZpZXcxMDEyOTEiIGlua3NjYXBlOmN1cnJlbnQtbGF5ZXI9InN2ZzEwMTI4OSIgaW5rc2NhcGU6Y3g9IjY3LjUyMzY1MyIgaW5rc2NhcGU6Y3k9IjQzLjE3NTI0NCIgaW5rc2NhcGU6cGFnZW9wYWNpdHk9IjAiIGlua3NjYXBlOnBhZ2VzaGFkb3c9IjIiIGlua3NjYXBlOndpbmRvdy1oZWlnaHQ9IjEwMTciIGlua3NjYXBlOndpbmRvdy1tYXhpbWl6ZWQ9IjEiIGlua3NjYXBlOndpbmRvdy13aWR0aD0iMTkyMCIgaW5rc2NhcGU6d2luZG93LXg9Ii04IiBpbmtzY2FwZTp3aW5kb3cteT0iLTgiIGlua3NjYXBlOnpvb209IjkuODQ1NDgxNCIgb2JqZWN0dG9sZXJhbmNlPSIxMCIgcGFnZWNvbG9yPSIjZmZmZmZmIiBzaG93Z3JpZD0iZmFsc2UiPiYjeGE7CTwvc29kaXBvZGk6bmFtZWR2aWV3PiYjeGE7PGcgaWQ9ImcxMDEyODciIHRyYW5zZm9ybT0idHJhbnNsYXRlKC0wLjY0NTM3OTIxLC0wLjk0MzY1ODU5KSI+JiN4YTsJPHRpdGxlIGlkPSJ0aXRsZTEwMTIxNyI+UGFnZS0xPC90aXRsZT4mI3hhOwk8ZyBpZD0iZ3JvdXAzOTM5LTEiIHRyYW5zZm9ybT0idHJhbnNsYXRlKDAuNTc1NTk0LC0wLjU4MDQ2NikiPiYjeGE7CQk8dGl0bGUgaWQ9InRpdGxlMTAxMjE5Ij5Nb25nb0RCPC90aXRsZT4mI3hhOwkJPGcgaWQ9Imdyb3VwMzk0MC0yIj4mI3hhOwkJCTx0aXRsZSBpZD0idGl0bGUxMDEyMjEiPkxheWVyIDE8L3RpdGxlPiYjeGE7CQkJPGcgaWQ9Imdyb3VwMzk0MS0zIj4mI3hhOwkJCQk8dGl0bGUgaWQ9InRpdGxlMTAxMjIzIj5zdmdfMTwvdGl0bGU+JiN4YTsJCQkJPGcgaWQ9Imdyb3VwMzk0Mi00IiB0cmFuc2Zvcm09InRyYW5zbGF0ZSgzOS4zOTksLTIwLjUxMTUpIj4mI3hhOwkJCQkJPHRpdGxlIGlkPSJ0aXRsZTEwMTIyNSI+Zzg2MjwvdGl0bGU+JiN4YTsJCQkJCTxnIGlkPSJzaGFwZTM5NDMtNSIgdHJhbnNmb3JtPSJ0cmFuc2xhdGUoOS43MDgzNywtNS44MDEwNykiPiYjeGE7CQkJCQkJPHRpdGxlIGlkPSJ0aXRsZTEwMTIyNyI+cGF0aDI8L3RpdGxlPiYjeGE7CQkJCQkJPHBhdGggaWQ9InBhdGgxMDEyMjkiIGlua3NjYXBlOmNvbm5lY3Rvci1jdXJ2YXR1cmU9IjAiIHN0eWxlPSJmaWxsOiM1OTk2MzY7IiBkPSJNMC4xNCwyNy45NmMwLjM0LDAuNjIsMC43OSwxLjYsMS4xOCwyLjIgICAgICAgIGMwLjI2LDAuNDEsMC41NSwwLjc3LDAuODksMS4xYzAuOTgsMC45OSwxLjkxLDIuMDIsMi43NSwzLjEyYzEuOTksMi42MSwzLjMzLDUuNTEsNC4yOSw4LjY1YzAuNTgsMS45MiwwLjg5LDMuODksMC45MSw1Ljg4ICAgICAgICBjMC4xLDUuOTQtMS45NCwxMS4wNS02LjA2LDE1LjI5Yy0wLjY3LDAuNjctMS4zOSwxLjI5LTIuMTYsMS44NWMtMC40MSwwLTAuNi0wLjMyLTAuNzctMC42Yy0wLjMxLTAuNTMtMC41LTEuMTMtMC41OS0xLjczICAgICAgICBjLTAuMTUtMC43Mi0wLjI0LTEuNDQtMC4yLTIuMThjMC0wLjEyLDAtMC4yMiwwLTAuMzRDMC4zNiw2MS4xMywwLDI4LjEyLDAuMTQsMjcuOTZ6Ii8+JiN4YTsJCQkJCTwvZz4mI3hhOwkJCQkJPGcgaWQ9InNoYXBlMzk0NC03IiB0cmFuc2Zvcm09InRyYW5zbGF0ZSgwLC01LjM5MzU3KSI+JiN4YTsJCQkJCQk8dGl0bGUgaWQ9InRpdGxlMTAxMjMyIj5wYXRoODwvdGl0bGU+JiN4YTsJCQkJCQk8cGF0aCBpZD0icGF0aDEwMTIzNCIgaW5rc2NhcGU6Y29ubmVjdG9yLWN1cnZhdHVyZT0iMCIgc3R5bGU9ImZpbGw6IzZDQUM0ODsiIGQ9Ik05Ljg1LDI3LjQ4Yy0wLjA1LTAuMS0wLjA5LTAuMDMtMC4xNCwwLjAyICAgICAgICBjMC4wMiwwLjQ4LTAuMTUsMC45MS0wLjQxLDEuMzJjLTAuMjksMC40MS0wLjY3LDAuNzItMS4wNSwxLjA1Yy0yLjE0LDEuODUtMy44Miw0LjA4LTUuMTYsNi41NyAgICAgICAgYy0xLjc3LDMuMzYtMi43MSw2Ljk1LTIuOTcsMTAuNzRDMCw0OC41NSwwLjU1LDUzLjM2LDAuOTgsNTQuNzZjMS4xOCwzLjY5LDMuMjksNi43OCw2LjAyLDkuNDYgICAgICAgIGMwLjY3LDAuNjUsMS4zOSwxLjI1LDIuMTMsMS44M2MwLjIyLDAsMC4yNC0wLjIsMC4yOS0wLjM0YzAuMS0wLjMxLDAuMTctMC42MiwwLjIyLTAuOTNjMC4yMS0xLjIsMC4zMy0yLjQsMC40OC0zLjYgICAgICAgIEMxMC4xMiw2MS4wNCw5LjkyLDI3LjYsOS44NSwyNy40OHoiLz4mI3hhOwkJCQkJPC9nPiYjeGE7CQkJCQk8ZyBpZD0ic2hhcGUzOTQ1LTkiIHRyYW5zZm9ybT0idHJhbnNsYXRlKDkuMTMzMDcpIj4mI3hhOwkJCQkJCTx0aXRsZSBpZD0idGl0bGUxMDEyMzciPnBhdGgxMDwvdGl0bGU+JiN4YTsJCQkJCQk8cGF0aCBpZD0icGF0aDEwMTIzOSIgaW5rc2NhcGU6Y29ubmVjdG9yLWN1cnZhdHVyZT0iMCIgc3R5bGU9ImZpbGw6I0MyQkZCRjsiIGQ9Ik0xLjg5LDYxLjcxYzAuMDUtMC41NSwwLjMyLTEuMDEsMC42LTEuNDcgICAgICAgIGMtMC4yOC0wLjEyLTAuNS0wLjM2LTAuNjctMC42MmMtMC4xNC0wLjI0LTAuMjYtMC41My0wLjM2LTAuNzljLTAuMzMtMS4wMS0wLjQxLTIuMDYtMC41LTMuMDlsMCwwYzAtMC4xLDAtMC4yMiwwLTAuMzFsMCwwICAgICAgICBjMC0wLjEsMC0wLjIyLDAtMC4zMmMtMC4xMiwwLjEtMC4xNCwwLjkyLTAuMTQsMS4wNGMtMC4wOCwxLjEtMC4yMiwyLjE4LTAuNDQsMy4yM0MwLjMxLDU5LjgxLDAuMjYsNjAuMjQsMCw2MC42MyAgICAgICAgYzAsMC4wNSwwLDAuMDksMC4wMiwwLjE3YzAuNDQsMS4yNywwLjU2LDIuNTYsMC42MywzLjg4YzAsMC4xNywwLDAuMzEsMCwwLjQ4YzAsMC41Ny0wLjAzLDAuNDUsMC40NSwwLjY1ICAgICAgICBjMC4xOSwwLjA3LDAuNDEsMC4wOSwwLjYsMC4yNGMwLjE1LDAsMC4xNy0wLjEyLDAuMTctMC4yMkMxLjg1LDY1LjU3LDEuOCw2NS4zLDEuOCw2NS4wNGMwLTAuNzQtMC4wMy0xLjQ2LDAtMi4yMSAgICAgICAgQzEuNzcsNjIuNDUsMS44NSw2Mi4wNywxLjg5LDYxLjcxeiIvPiYjeGE7CQkJCQk8L2c+JiN4YTsJCQkJPC9nPiYjeGE7CQkJCTxnIGlkPSJncm91cDM5NDYtMTEiPiYjeGE7CQkJCQk8dGl0bGUgaWQ9InRpdGxlMTAxMjQzIj5nODgwPC90aXRsZT4mI3hhOwkJCQkJPGcgaWQ9InNoYXBlMzk0Ny0xMiIgdHJhbnNmb3JtPSJ0cmFuc2xhdGUoMCwtNi4xMTU1NikiPiYjeGE7CQkJCQkJPHRpdGxlIGlkPSJ0aXRsZTEwMTI0NSI+cGF0aDQ8L3RpdGxlPiYjeGE7CQkJCQkJPHBhdGggaWQ9InBhdGgxMDEyNDciIGlua3NjYXBlOmNvbm5lY3Rvci1jdXJ2YXR1cmU9IjAiIHN0eWxlPSJmaWxsOiM0NzQ3NEE7IiBkPSJNMy44NSw2MS40N2MwLDAuODgsMCwxLjc2LDAsMi42MiAgICAgICAgYzAsMC4xMSwwLDAuMjEsMC4wMiwwLjMxYzAuMDMsMC4zMiwwLjIyLDAuNTEsMC41MiwwLjU5YzAuMjYsMC4wNywwLjUzLDAuMTIsMC43OSwwLjE2YzAuMTYsMC4wMSwwLjIxLDAuMDgsMC4yMywwLjI0ICAgICAgICBjMC4wMSwwLjU5LTAuMDQsMC42Ni0wLjYxLDAuNjJjLTEuMzMtMC4wNy0yLjY2LTAuMDktMy45OSwwYy0wLjA1LDAtMC4xLDAtMC4xNCwwYy0wLjQxLDAuMDItMC40NS0wLjAyLTAuNDUtMC40MyAgICAgICAgYzAtMC4wNywwLjAyLTAuMTYsMC4wMi0wLjIzYzAtMC4xMywwLjA5LTAuMTksMC4yMS0wLjE5YzAuMjgtMC4wMywwLjUzLTAuMSwwLjc5LTAuMTVjMC4zNy0wLjA5LDAuNTctMC4zMSwwLjYxLTAuNjcgICAgICAgIGMwLjA1LTAuNCwwLjA1LTAuODIsMC4wNS0xLjIxYzAuMDUtMS41NCwwLjAzLTMuMSwwLjAyLTQuNjNjMC0wLjMtMC4xMi0wLjUyLTAuMzgtMC42NmMtMC4zMS0wLjE3LTAuNjQtMC4zMS0wLjk5LTAuNDIgICAgICAgIGMtMC4xLTAuMDMtMC4yLTAuMDUtMC4yOS0wLjFDMC4wMiw1Ny4yLDAsNTYuOTgsMC4yNCw1Ni44NGMwLjA5LTAuMDUsMC4xOS0wLjA5LDAuMy0wLjExYzEuMDUtMC4xNSwyLjA3LTAuNDEsMy4wNy0wLjc3ICAgICAgICBjMC4yMS0wLjA3LDAuMjYtMC4wNiwwLjI4LDAuMTVjMC4wMSwwLjE0LDAsMC4yOC0wLjAyLDAuNGMtMC4wMywwLjIyLTAuMDMsMC40NS0wLjAzLDAuNjZjMCwwLjA4LDAuMDEsMC4xNywwLjEsMC4yMiAgICAgICAgYzAuMDksMC4wNSwwLjE3LDAsMC4yNC0wLjA1YzAuMzYtMC4yOCwwLjczLTAuNTQsMS4xMi0wLjc2YzAuNTctMC4zMSwxLjE4LTAuNTksMS44My0wLjY4YzAuOC0wLjEsMS40OSwwLjExLDIuMSwwLjYzICAgICAgICBjMC4yNSwwLjIyLDAuNDYsMC40OCwwLjY1LDAuNzZjMC4xNywwLjI0LDAuMTksMC4yNiwwLjQyLDAuMDhjMC42NS0wLjQ4LDEuMzQtMC45MSwyLjA5LTEuMjJjMC43Ny0wLjMzLDEuNTctMC4zOCwyLjM2LTAuMTEgICAgICAgIGMwLjgyLDAuMywxLjM3LDAuODcsMS43LDEuNjRjMC4yNywwLjYzLDAuMzksMS4yOCwwLjM5LDEuOTRjMCwxLjAyLDAsMi4wNCwwLDMuMDdjMCwwLjUyLDAsMS4wNCwwLDEuNTYgICAgICAgIGMwLDAuMzEsMC4xNCwwLjUyLDAuNDQsMC42NmMwLjMyLDAuMTMsMC42OSwwLjE5LDEuMDMsMC4yNWMwLjIzLDAuMDYsMC4yMywwLjA2LDAuMjMsMC4yOGMtMC4wNCwwLjU3LTAuMDksMC42MS0wLjY0LDAuNTcgICAgICAgIGMtMS4zOC0wLjA5LTIuNzgtMC4wNy00LjE3LDBjLTAuMjcsMC4wMi0wLjI3LDAuMDItMC4yOS0wLjI2YzAtMC4wMywwLTAuMDUsMC0wLjA4Yy0wLjAyLTAuNDctMC4wMi0wLjQ3LDAuNDMtMC41NyAgICAgICAgYzAuMTYtMC4wNCwwLjMtMC4wNywwLjQ1LTAuMTNjMC4zNS0wLjEsMC41Mi0wLjMyLDAuNTQtMC42N2MwLjAxLTAuNDMsMC4wMy0wLjg2LDAuMDUtMS4yOWMwLTEuMTMsMC4wMy0yLjI3LTAuMDQtMy4zOSAgICAgICAgYy0wLjAxLTAuMjktMC4wNi0wLjU5LTAuMTktMC44OGMtMC40My0xLjA2LTEuMzgtMS40NC0yLjI5LTEuMzNjLTAuNjksMC4wNy0xLjMsMC4zNC0xLjg3LDAuNzQgICAgICAgIGMtMC4xMiwwLjA5LTAuMjEsMC4xOS0wLjE5LDAuMzZjMC4xNiwxLjExLDAuMDUsMi4yMSwwLjA3LDMuMzJjMC4wMiwwLjc5LDAsMS42MSwwLDIuNGMwLDAuNDMsMC4xNywwLjY0LDAuNTksMC43NCAgICAgICAgYzAuMjYsMC4wNywwLjUyLDAuMTMsMC43OSwwLjE4YzAuMTIsMC4wMSwwLjE5LDAuMDcsMC4xOSwwLjJjMCwwLjA2LDAsMC4xMSwwLDAuMTRjLTAuMDIsMC40OS0wLjA1LDAuNTItMC41MywwLjUgICAgICAgIGMtMS4zOS0wLjA3LTIuNzctMC4wNS00LjEzLDBjLTAuNDcsMC4wMi0wLjUyLTAuMDMtMC40OS0wLjUxYzAuMDItMC4yOCwwLjA2LTAuMywwLjMxLTAuMzVjMC4xOS0wLjAzLDAuMzgtMC4wNywwLjU3LTAuMSAgICAgICAgYzAuNTItMC4xMSwwLjctMC4zLDAuNzMtMC44M2MwLjAyLTAuMzgsMC4wNS0wLjc4LDAuMDUtMS4xNmMwLjAyLTEuMTYsMC4wNS0yLjMyLTAuMDMtMy40N2MtMC4wNC0wLjQzLTAuMTQtMC44NS0wLjM3LTEuMjUgICAgICAgIGMtMC4zNC0wLjY0LTAuODktMC45Ni0xLjYyLTFjLTAuNzQtMC4wNS0xLjQsMC4yMy0yLjAyLDAuNTdjLTAuNDMsMC4yNC0wLjYyLDAuNTUtMC41OSwxLjA2ICAgICAgICBDMy44Nyw1OS44MSwzLjg0LDYwLjY0LDMuODUsNjEuNDdDMy44NCw2MS40NywzLjg1LDYxLjQ3LDMuODUsNjEuNDdDMy44NSw2MS40NywzLjg1LDYxLjQ3LDMuODUsNjEuNDd6Ii8+JiN4YTsJCQkJCTwvZz4mI3hhOwkJCQkJPGcgaWQ9Imdyb3VwMzk0OC0xNCIgdHJhbnNmb3JtPSJ0cmFuc2xhdGUoMjAuMzY3OSkiPiYjeGE7CQkJCQkJPHRpdGxlIGlkPSJ0aXRsZTEwMTI1MCI+Zzg3MDwvdGl0bGU+JiN4YTsJCQkJCQk8ZyBpZD0ic2hhcGUzOTQ5LTE1IiB0cmFuc2Zvcm09InRyYW5zbGF0ZSgxMS45NzIsLTUuOTYwMDYpIj4mI3hhOwkJCQkJCQk8dGl0bGUgaWQ9InRpdGxlMTAxMjUyIj5wYXRoNjwvdGl0bGU+JiN4YTsJCQkJCQkJPHBhdGggaWQ9InBhdGgxMDEyNTQiIGlua3NjYXBlOmNvbm5lY3Rvci1jdXJ2YXR1cmU9IjAiIHN0eWxlPSJmaWxsOiM0NzQ3NEE7IiBkPSJNNC4wNiw2MS40MmMwLDAuODEsMCwxLjYyLDAsMi40MyAgICAgICAgIGMwLDAuMTcsMC4wMiwwLjM1LDAuMDMsMC41MmMwLjA0LDAuMjYsMC4xOCwwLjQxLDAuNDIsMC40OGMwLjI5LDAuMDksMC42LDAuMTQsMC45MSwwLjE2YzAuMTgsMC4wMiwwLjIxLDAuMDksMC4yMywwLjIyICAgICAgICAgYzAsMC4wNCwwLDAuMDcsMCwwLjEyYy0wLjAyLDAuNjEtMC4wOSwwLjY4LTAuNjcsMC42NGMtMS4zMi0wLjA4LTIuNjMtMC4wNy0zLjk0LDBjLTAuMTgsMC0wLjM1LDAuMDItMC41MiwwLjAyICAgICAgICAgYy0wLjExLDAtMC4xNC0wLjA1LTAuMTYtMC4xMmMtMC4wNS0wLjI0LTAuMDUtMC40OCwwLTAuNzNjMC4wMi0wLjEsMC4wOS0wLjEzLDAuMTktMC4xNWMwLjI0LTAuMDQsMC40Ny0wLjA5LDAuNzEtMC4xNCAgICAgICAgIGMwLjQzLTAuMSwwLjU5LTAuMjgsMC42MS0wLjcyYzAuMDMtMC40OSwwLjA1LTAuOTcsMC4wNS0xLjQ2YzAtMS40MSwwLTIuODMsMC00LjI1YzAtMC4zMS0wLjEyLTAuNS0wLjQtMC42NCAgICAgICAgIGMtMC4zMS0wLjE3LTAuNjQtMC4yOS0wLjk4LTAuNDFjLTAuMTEtMC4wMy0wLjIxLTAuMDctMC4zLTAuMTJDMC4wMiw1Ny4xMSwwLDU2Ljg5LDAuMjEsNTYuNzJjMC4xLTAuMDksMC4yLTAuMTIsMC4zNC0wLjE0ICAgICAgICAgYzEuMTEtMC4xNywyLjE4LTAuNDIsMy4yMi0wLjgzYzAuMTItMC4wNSwwLjE3LTAuMDIsMC4yMiwwLjA5YzAuMDUsMC4xLDAuMDcsMC4yMiwwLjA1LDAuMzRjLTAuMDEsMC4yOC0wLjAzLDAuNTQtMC4wNSwwLjgxICAgICAgICAgYzAsMC4xMS0wLjA1LDAuMjQsMC4wNCwwLjNjMC4xLDAuMDcsMC4xNy0wLjA5LDAuMjUtMC4xNGMwLjUyLTAuNDIsMS4wOC0wLjgsMS42OC0xLjA3YzAuNTQtMC4yNCwxLjA5LTAuNDIsMS43MS0wLjM4ICAgICAgICAgYzEuMTYsMC4wNywxLjk5LDAuNjUsMi41MiwxLjY3YzAuMjgsMC41NCwwLjQsMS4xMywwLjQ1LDEuNzNjMC4wNCwwLjQyLDAuMDUsMC44NSwwLjA1LDEuMjhjMCwxLjE5LDAuMDIsMi4zNywwLjAyLDMuNTYgICAgICAgICBjMCwwLjA4LDAsMC4xNywwLDAuMjZjMC4wMiwwLjI5LDAuMTIsMC40OCwwLjQyLDAuNThjMC4zMSwwLjExLDAuNiwwLjE4LDAuOTMsMC4yM2MwLjI3LDAuMDMsMC4yOSwwLjA5LDAuMzEsMC4zNCAgICAgICAgIGMwLDAuMDQsMCwwLjA2LDAsMC4wOWMtMC4wNCwwLjU5LTAuMDcsMC42MS0wLjY2LDAuNTdjLTEuMjktMC4wNy0yLjU5LTAuMDctMy44NywwYy0wLjE3LDAuMDItMC4zNCwwLTAuNTIsMC4wMiAgICAgICAgIGMtMC4xLDAtMC4xNy0wLjAyLTAuMTktMC4xMmMtMC4wMy0wLjIzLTAuMDYtMC40NS0wLjAxLTAuNjljMC4wMS0wLjExLDAuMDctMC4xNiwwLjE5LTAuMThjMC4yNi0wLjAzLDAuNTMtMC4wNywwLjc5LTAuMTMgICAgICAgICBjMC4yOC0wLjA3LDAuNDMtMC4yNSwwLjQ3LTAuNTJjMC4wMi0wLjE2LDAuMDMtMC4zMywwLjAzLTAuNDljMC0xLjIxLDAtMi40Mi0wLjAxLTMuNjFjMC0wLjQxLTAuMDItMC44My0wLjExLTEuMjQgICAgICAgICBjLTAuMi0wLjktMC44OC0xLjUtMS43OS0xLjYxYy0wLjgtMC4wOC0xLjUxLDAuMTItMi4xOCwwLjU2Yy0wLjMzLDAuMi0wLjQ3LDAuNS0wLjQ3LDAuODZjMCwwLjYsMCwxLjIxLDAsMS44MyAgICAgICAgIGMwLDAuMjYsMCwwLjUyLDAsMC43OEM0LjA0LDYxLjQyLDQuMDQsNjEuNDIsNC4wNiw2MS40MkM0LjA2LDYxLjQyLDQuMDYsNjEuNDIsNC4wNiw2MS40MnoiLz4mI3hhOwkJCQkJCTwvZz4mI3hhOwkJCQkJCTxnIGlkPSJzaGFwZTM5NTAtMTciIHRyYW5zZm9ybT0idHJhbnNsYXRlKDUwLjgwNzYsLTYuMTE1NTIpIj4mI3hhOwkJCQkJCQk8dGl0bGUgaWQ9InRpdGxlMTAxMjU3Ij5wYXRoMTI8L3RpdGxlPiYjeGE7CQkJCQkJCTxwYXRoIGlkPSJwYXRoMTAxMjU5IiBpbmtzY2FwZTpjb25uZWN0b3ItY3VydmF0dXJlPSIwIiBzdHlsZT0iZmlsbDojQzJCRkJGOyIgZD0iTTE1LjgyLDU2LjY4ICAgICAgICAgYy0wLjE5LTEuMjYtMC42NS0yLjM4LTEuNDYtMy4zN2MtMC43My0wLjg4LTEuNjEtMS41My0yLjY2LTEuOTdjLTEuMDktMC40NS0yLjI1LTAuNTgtMy40Mi0wLjYyICAgICAgICAgYy0wLjQ5LTAuMDItNy4wOSwwLjA5LTcuNTcsMGMtMC4xMi0wLjAyLTAuMjEsMC4wMi0wLjI4LDAuMTJjLTAuMDgsMC4xNC0wLjE3LDAuMjYtMC4yMiwwLjRDMCw1MS43MSwwLDUxLjY3LDAuNSw1MS43NCAgICAgICAgIGMwLjQyLDAuMDcsMC44MSwwLjEsMS4yMSwwLjIzYzAuMzYsMC4xMiwwLjYyLDAuMzIsMC43MSwwLjcyYzAuMDMsMC4xOSwwLjA3LDYuMjcsMC4wNyw5LjExYzAsMC42Ny0wLjAyLDEuMzQtMC4wNywyLjAyICAgICAgICAgYy0wLjAyLDAuMTUtMC4wNCwwLjMxLTAuMDksMC40NWMtMC4wNywwLjItMC4xOSwwLjM4LTAuNCwwLjQ2Yy0wLjIyLDAuMTEtMC40NiwwLjE4LTAuNzIsMC4xOSAgICAgICAgIGMtMC40NywwLjA1LTAuNTQsMC4wNy0wLjY5LDAuNTljLTAuMDIsMC4wNy0wLjA0LDAuMTQtMC4wNSwwLjE5Yy0wLjA0LDAuMjItMC4wMiwwLjI2LDAuMiwwLjI2ICAgICAgICAgYzEuMDQsMC4wMiw0LjMxLDAuMDUsNS4xNywwLjA1YzAuNDgtMC4wMiwxLjI2LDAuMDQsMi4wMi0wLjAzYzAuNDctMC4wNiwwLjkzLTAuMDksMS40LTAuMThjMS41OS0wLjI5LDMuMDEtMC45NSw0LjIyLTIgICAgICAgICBjMC43LTAuNjIsMS4yNC0xLjM1LDEuNjUtMi4xOGMwLjQ5LTAuOTYsMC42OS0yLjAyLDAuNzUtMy4wOUMxNS45Niw1Ny45MywxNS45Myw1Ny4zLDE1LjgyLDU2LjY4TDE1LjgyLDU2LjY4eiBNMTMuMzIsNTkuMTQgICAgICAgICBjLTAuMDcsMS4xLTAuMjksMi4xNy0wLjg2LDMuMTRjLTAuNzMsMS4yNi0xLjc3LDIuMTQtMy4yLDIuNDVjLTAuNjIsMC4xNC0xLjI0LDAuMTktMS44OCwwLjExICAgICAgICAgYy0wLjQ3LTAuMDYtMC45Mi0wLjExLTEuMzUtMC4yNmMtMC43OC0wLjI4LTEuMDUtMC43Ni0xLjA3LTEuNTFjLTAuMDQtMS4wOCwwLTguNy0wLjAyLTEwLjQxYzAtMC42MywwLjI4LTAuNzYsMC43My0wLjc4ICAgICAgICAgYzAuNjctMC4wNSwxLjM2LTAuMDQsMi4wMywwLjAzYzAuNzMsMC4wNywxLjQyLDAuMjUsMi4xLDAuNTJjMC41LDAuMjEsMC45NiwwLjUsMS4zNiwwLjg1YzAuOTMsMC43OSwxLjU1LDEuOCwxLjg4LDIuOTcgICAgICAgICBDMTMuMzIsNTcuMiwxMy4zNyw1OC4xNywxMy4zMiw1OS4xNHoiLz4mI3hhOwkJCQkJCTwvZz4mI3hhOwkJCQkJCTxnIGlkPSJzaGFwZTM5NTEtMTkiIHRyYW5zZm9ybT0idHJhbnNsYXRlKDY3Ljg5MzIsLTYuMDExOSkiPiYjeGE7CQkJCQkJCTx0aXRsZSBpZD0idGl0bGUxMDEyNjIiPnBhdGgxNDwvdGl0bGU+JiN4YTsJCQkJCQkJPHBhdGggaWQ9InBhdGgxMDEyNjQiIGlua3NjYXBlOmNvbm5lY3Rvci1jdXJ2YXR1cmU9IjAiIHN0eWxlPSJmaWxsOiNDMkJGQkY7IiBkPSJNMTMuMDksNjAuNzJjMC0wLjEsMC0wLjE5LTAuMDEtMC4yOSAgICAgICAgIGMtMC4xNi0wLjk1LTAuNjYtMS42Ny0xLjQ0LTIuMjNjLTAuNS0wLjM2LTEuMDctMC42LTEuNjUtMC43OGMtMC4xMS0wLjAzLTAuMTktMC4wNi0wLjMtMC4wOGMwLjAyLTAuMDksMC4wNy0wLjExLDAuMTItMC4xMiAgICAgICAgIGMwLjM1LTAuMTgsMC42OC0wLjM3LDAuOTctMC42MmMwLjU0LTAuNDUsMC45LTEuMDEsMS4wNy0xLjY4YzAuMS0wLjM2LDAuMS0wLjczLDAuMDctMS4xMWMtMC4wOS0wLjk1LTAuNS0xLjY5LTEuMjYtMi4yNCAgICAgICAgIGMtMC44LTAuNTktMS43My0wLjgzLTIuNy0wLjg1Yy0xLjg2LTAuMDMtMy43NCwwLTUuNjEsMGMtMC41NCwwLTEuMDcsMC4wNC0xLjYyLTAuMDVjLTAuMTEtMC4wMi0wLjI1LTAuMDUtMC4zMywwLjA3ICAgICAgICAgYy0wLjE0LDAuMjItMC4yOCwwLjQ1LTAuMzMsMC43MWMtMC4wMiwwLjEyLDAuMDIsMC4xOSwwLjE1LDAuMmMwLjQsMC4wNiwwLjgsMC4xMywxLjIsMC4xOGMwLjQ2LDAuMDcsMC43OSwwLjMzLDAuODMsMC43NCAgICAgICAgIGMwLjAzLDAuMjksMC4wNSwwLjU3LDAuMDUsMC44NmMwLDEuMDgtMC4wMiwyLjE2LTAuMDQsMy4yM2MtMC4wMywyLjEzLTAuMDEsNC4yNy0wLjAxLDYuNGMwLDAuMzgtMC4wNiwwLjc0LTAuMTMsMS4xMiAgICAgICAgIGMtMC4wNSwwLjI2LTAuMTksMC40My0wLjQ0LDAuNTJDMS4zMyw2NC44LDEsNjQuOTEsMC42NCw2NC45MWMtMC4yMywwLTAuMzYsMC4wOC0wLjQ1LDAuMjljLTAuMDcsMC4xNS0wLjE0LDAuMzMtMC4xNiwwLjQ4ICAgICAgICAgQzAsNjUuODksMC4wNSw2NS45NiwwLjI2LDY1LjkyYzAuMTUtMC4wMSw1Ljg2LDAuMTMsNi45MywwLjAyYzAuNjQtMC4wNywxLjI4LTAuMTUsMS45LTAuMzRjMS4wOS0wLjM1LDIuMDktMC44NSwyLjg4LTEuNyAgICAgICAgIGMwLjY2LTAuNjksMS4wNC0xLjUyLDEuMDctMi40OEMxMy4wOSw2MS4xOSwxMy4wOSw2MC45NywxMy4wOSw2MC43MnogTTQuNzIsNTMuNjZjMC4wMy0wLjQ3LDAuMDMtMC45MiwwLjA1LTEuMzggICAgICAgICBjMC0wLjI2LDAuMS0wLjM4LDAuMzYtMC40NGMwLjQyLTAuMDgsMC44My0wLjA1LDEuMjQtMC4wM2MwLjQyLDAuMDMsMC44MiwwLjA5LDEuMjMsMC4yMWMwLjc2LDAuMjIsMS4zNSwwLjY1LDEuNjksMS4zOCAgICAgICAgIGMwLjE2LDAuMzMsMC4yNSwwLjY5LDAuMjUsMS4wNWMwLjAxLDAuNDktMC4wMiwwLjk1LTAuMjEsMS40MmMtMC4yOSwwLjY0LTAuNzYsMS4wNS0xLjQ0LDEuMTcgICAgICAgICBjLTAuNjcsMC4xMy0yLjU5LDAuMDctMi44OCwwLjA3Yy0wLjI2LDAtMC4yOC0wLjAzLTAuMjgtMC4yOWMwLTAuNTUsMC0xLjExLDAtMS42NGwwLDBDNC43LDU0LjcsNC42OCw1NC4xOCw0LjcyLDUzLjY2eiAgICAgICAgICBNMTAuMzMsNjIuOTVjLTAuMjksMC43OC0wLjgzLDEuMzItMS41OSwxLjYxYy0wLjQxLDAuMTYtMC44MywwLjI0LTEuMjgsMC4yMmMtMC41My0wLjAxLTEuMDcsMC0xLjYtMC4xICAgICAgICAgYy0wLjczLTAuMTUtMS4wNi0wLjg1LTEuMTEtMS4zNWMtMC4wOS0wLjg4LTAuMDMtMS43OC0wLjA1LTIuNDNjMC0wLjkyLDAtMS41OSwwLTIuMjhjMC0wLjI4LDAuMDMtMC4zNywwLjMzLTAuMzcgICAgICAgICBjMC41My0wLjAxLDEuMDctMC4wMywxLjYyLDAuMDJjMC4zOCwwLjA0LDAuNzQsMC4wNywxLjExLDAuMTRjMC43NywwLjE3LDEuNDgsMC40NywyLjA0LDEuMDdjMC40NCwwLjQ4LDAuNjksMS4wNywwLjc0LDEuNzEgICAgICAgICBDMTAuNTksNjEuOCwxMC41Niw2Mi4zOCwxMC4zMyw2Mi45NUMxMC4zMyw2Mi45NSwxMC4zMyw2Mi45NSwxMC4zMyw2Mi45NXoiLz4mI3hhOwkJCQkJCTwvZz4mI3hhOwkJCQkJCTxnIGlkPSJzaGFwZTM5NTItMjEiIHRyYW5zZm9ybT0idHJhbnNsYXRlKDI1LjU4NTIpIj4mI3hhOwkJCQkJCQk8dGl0bGUgaWQ9InRpdGxlMTAxMjY3Ij5wYXRoMTY8L3RpdGxlPiYjeGE7CQkJCQkJCTxwYXRoIGlkPSJwYXRoMTAxMjY5IiBpbmtzY2FwZTpjb25uZWN0b3ItY3VydmF0dXJlPSIwIiBzdHlsZT0iZmlsbDojNDc0NzRBOyIgZD0iTTguNzQsNTEuNzJjMC4xNiwwLjAyLDAuMzEsMC4wNiwwLjQ1LDAuMDcgICAgICAgICBjMC40OCwwLjAyLDEuMDUtMC4xNSwxLjIzLTAuODNjMC4wOC0wLjMyLDAuMS0wLjY0LDAtMC45OGMtMC4xMSwwLTAuMTYsMC4wOS0wLjIxLDAuMTJjLTAuMjYsMC4yMS0wLjU1LDAuMzMtMC44NiwwLjM2ICAgICAgICAgQzguNzIsNTAuNTMsOC4xLDUwLjUsNy41LDUwLjI3Yy0wLjI4LTAuMS0wLjU2LTAuMi0wLjg1LTAuMjljLTAuNTktMC4xOS0xLjIxLTAuMjgtMS44My0wLjI0ICAgICAgICAgYy0wLjg4LDAuMDctMS43MSwwLjM2LTIuNDksMC43N2MtMC44MywwLjQ1LTEuNDEsMS4xMy0xLjY5LDIuMDRjLTAuMTYsMC41NC0wLjE3LDEuMDktMC4xLDEuNjRjMC4xNywxLjI3LDAuODIsMi4xNSwyLDIuNjEgICAgICAgICBjMC4wNywwLjAyLDAuMTIsMC4wNSwwLjE5LDAuMDdjMC4xNiwwLjA5LDAuMTcsMC4xNywwLjAzLDAuM2MtMC4xMywwLjEtMC4yNywwLjItMC40MywwLjI5Yy0wLjM0LDAuMjEtMC42OSwwLjQxLTEuMDMsMC42NCAgICAgICAgIGMtMC4yNiwwLjE1LTAuMywwLjI4LTAuMjEsMC41NWMwLjEsMC4zMywwLjI5LDAuNjEsMC41NSwwLjgzYzAuMjQsMC4yMSwwLjUsMC4zNiwwLjgsMC40OGMwLjE5LDAuMDksMC4xOSwwLjE0LDAuMDEsMC4yOCAgICAgICAgIGMtMC4zMywwLjI0LTAuNjUsMC40Ny0wLjk4LDAuNzFjLTAuMzMsMC4yNC0wLjY2LDAuNTItMC45MywwLjgzYy0wLjQsMC40NS0wLjU0LDAuOTctMC40MiwxLjU1ICAgICAgICAgYzAuMTQsMC42MywwLjQzLDEuMTMsMC45LDEuNTZDMS40Nyw2NS4zLDIsNjUuNiwyLjYxLDY1Ljc1YzAuOTcsMC4yOCwxLjk3LDAuMywyLjk1LDAuMTFjMS40Mi0wLjI2LDIuNjUtMC45LDMuNjMtMS45NiAgICAgICAgIGMwLjY3LTAuNywxLjA3LTEuNTMsMS4xMS0yLjU0YzAuMDUtMS4yMS0wLjY5LTIuMjItMS44Ny0yLjUyYy0wLjMxLTAuMDctMC42Mi0wLjEyLTAuOTMtMC4xN2MtMC45NS0wLjEyLTEuOS0wLjE3LTIuODUtMC4yNCAgICAgICAgIGMtMC4zMS0wLjAyLTAuNjItMC4wNy0wLjg4LTAuMjNjLTAuMzMtMC4yLTAuNDItMC42LTAuMjEtMC44NmMwLjE1LTAuMTksMC4zNC0wLjMxLDAuNTktMC4zM2MwLjE5LTAuMDIsMC4zNi0wLjAzLDAuNTUtMC4wNSAgICAgICAgIGMxLjEyLTAuMTIsMi4wOS0wLjU3LDIuOTItMS4zM2MwLjQzLTAuNCwwLjcyLTAuOSwwLjg4LTEuNDdjMC4yMS0wLjc0LDAuMjEtMS41LDAuMDMtMi4yNkM4LjQ4LDUxLjcxLDguNSw1MS42OSw4Ljc0LDUxLjcyeiAgICAgICAgICBNNC41MSw2MC4zM2MwLjEsMC4wMSwwLjIxLDAsMC4zMSwwQzUuNTUsNjAuMzYsNi4yOSw2MC40MSw3LDYwLjZjMC4yNCwwLjA3LDAuNDUsMC4xNiwwLjY3LDAuMjYgICAgICAgICBjMC42OSwwLjM4LDAuOTUsMS4wNCwwLjg2LDEuNzVDOC40Myw2My4zOSw4LDYzLjk0LDcuMzIsNjQuM2MtMC40NCwwLjI0LTAuOTUsMC4zNi0xLjQ2LDAuNDJjLTAuMTksMC4wMS0wLjM3LDAtMC41NiwwICAgICAgICAgYy0wLjYsMC4wMS0xLjE5LTAuMDYtMS43Ni0wLjNjLTAuNC0wLjE1LTAuNzItMC4zOC0xLjAyLTAuNjljLTAuNi0wLjYtMC45LTEuNzEsMC4wMi0yLjYxQzMuMDksNjAuNiwzLjcxLDYwLjI2LDQuNTEsNjAuMzN6ICAgICAgICAgIE02LjQ4LDU0Ljk0Yy0wLjM2LDAuOTEtMS4xNiwxLjE5LTEuOTUsMS4wN2MtMC43My0wLjExLTEuMjYtMC41LTEuNjEtMS4xNmMtMC40NS0wLjg4LTAuNTctMS44LTAuMzEtMi43NSAgICAgICAgIGMwLjE5LTAuNywwLjYyLTEuMjQsMS4zOC0xLjM2YzAuOTctMC4xNywxLjg4LDAuMTcsMi4zOCwxLjE0YzAuMjUsMC40NywwLjM3LDEuMDQsMC4zNywxLjg1ICAgICAgICAgQzYuNzIsNTQuMDYsNi42NSw1NC41MSw2LjQ4LDU0Ljk0eiIvPiYjeGE7CQkJCQkJPC9nPiYjeGE7CQkJCQkJPGcgaWQ9InNoYXBlMzk1My0yMyIgdHJhbnNmb3JtPSJ0cmFuc2xhdGUoMCwtNS43NTI3NykiPiYjeGE7CQkJCQkJCTx0aXRsZSBpZD0idGl0bGUxMDEyNzIiPnBhdGgxODwvdGl0bGU+JiN4YTsJCQkJCQkJPHBhdGggaWQ9InBhdGgxMDEyNzQiIGlua3NjYXBlOmNvbm5lY3Rvci1jdXJ2YXR1cmU9IjAiIHN0eWxlPSJmaWxsOiM0NzQ3NEE7IiBkPSJNMTAuMyw1OS41MmMtMC4xNi0wLjk0LTAuNS0xLjc4LTEuMTQtMi40OSAgICAgICAgIEM4LjIxLDU1Ljk3LDcsNTUuNTIsNS42Myw1NS41MWMtMS4xOS0wLjAyLTIuMzEsMC4zMy0zLjMyLDAuOTVjLTEsMC42Mi0xLjY5LDEuNS0yLjAyLDIuNjRjLTAuMjksMS0wLjI3LDIuMDItMC4wNSwzLjA0ICAgICAgICAgYzAuNjEsMi43MywyLjcxLDMuOTEsNS4yNCwzLjczYzAuNzQtMC4wNSwxLjQ1LTAuMjksMi4xMi0wLjYyYzEtMC40NywxLjczLTEuMjEsMi4yMy0yLjE5YzAuNC0wLjgyLDAuNTctMS42OCwwLjU1LTIuNjYgICAgICAgICBDMTAuMzcsNjAuMTUsMTAuMzUsNTkuODMsMTAuMyw1OS41MnogTTcuODQsNjMuMzVjLTAuMzEsMC44My0wLjksMS4zMy0xLjc4LDEuNDVjLTAuNzYsMC4xMS0xLjQ2LTAuMDgtMi4xLTAuNTMgICAgICAgICBjLTAuNDctMC4zNS0wLjgzLTAuNzgtMS4wOS0xLjNDMi4xNiw2MS41MiwyLjA0LDYwLDIuNCw1OC40NGMwLjEyLTAuNDgsMC4zNi0wLjkxLDAuNzMtMS4yNmMwLjY0LTAuNTgsMS4zOC0wLjcyLDIuMjEtMC41NSAgICAgICAgIGMwLjc5LDAuMTcsMS40LDAuNiwxLjg4LDEuMjZzMC43MywxLjQyLDAuODYsMi4yMWMwLjA3LDAuNCwwLjA3LDAuODEsMC4wOSwxLjA3QzguMTcsNjIsOC4xLDYyLjY4LDcuODQsNjMuMzV6Ii8+JiN4YTsJCQkJCQk8L2c+JiN4YTsJCQkJCQk8ZyBpZD0ic2hhcGUzOTU0LTI1IiB0cmFuc2Zvcm09InRyYW5zbGF0ZSgzNy42MjYzLC01LjczNTUpIj4mI3hhOwkJCQkJCQk8dGl0bGUgaWQ9InRpdGxlMTAxMjc3Ij5wYXRoMjA8L3RpdGxlPiYjeGE7CQkJCQkJCTxwYXRoIGlkPSJwYXRoMTAxMjc5IiBpbmtzY2FwZTpjb25uZWN0b3ItY3VydmF0dXJlPSIwIiBzdHlsZT0iZmlsbDojNDc0NzRBOyIgZD0iTTEwLjQyLDU5LjY0ICAgICAgICAgYy0wLjE0LTEuMDEtMC41LTEuOTItMS4yMS0yLjY4Yy0wLjkzLTEuMDItMi4xNC0xLjQ1LTMuNDktMS40N2MtMS4xNi0wLjAyLTIuMjMsMC4zMS0zLjIyLDAuODggICAgICAgICBjLTEuMSwwLjY2LTEuODYsMS41OS0yLjE1LDIuODVjLTAuMzUsMS40Mi0wLjIxLDIuOCwwLjQxLDQuMTFjMC41NywxLjIxLDEuNTQsMS45OSwyLjgyLDIuMzRjMS40MSwwLjM4LDIuNzYsMC4yLDQuMDctMC40NCAgICAgICAgIGMxLjE0LTAuNTUsMS45Ni0xLjQxLDIuNDItMi41OWMwLjI4LTAuNjksMC4zOC0xLjQzLDAuNC0yLjNDMTAuNDksNjAuMTksMTAuNDUsNTkuOTEsMTAuNDIsNTkuNjR6IE04LjAzLDYzLjExICAgICAgICAgYy0wLjI3LDAuOTMtMC44NiwxLjU0LTEuODUsMS42N2MtMC43MiwwLjExLTEuNDEtMC4wNi0yLjAzLTAuNDhjLTAuNTQtMC4zNi0wLjkyLTAuODUtMS4yLTEuNDIgICAgICAgICBjLTAuMzEtMC42LTAuNDgtMS4yNC0wLjU1LTEuOWMtMC4xLTAuODEtMC4xLTEuNiwwLjA5LTIuNDFjMC4wMy0wLjE2LDAuMDgtMC4zMiwwLjE1LTAuNDdjMC40OS0xLjIxLDEuNTYtMS43NiwyLjgyLTEuNDkgICAgICAgICBjMC44NSwwLjE5LDEuNDgsMC42NiwxLjk3LDEuMzdjMC40NiwwLjY5LDAuNjksMS40NSwwLjc5LDIuMjZjMC4wNiwwLjMzLDAuMDcsMC42NywwLjA2LDAuOTcgICAgICAgICBDOC4yOCw2MS44OCw4LjIyLDYyLjUsOC4wMyw2My4xMXoiLz4mI3hhOwkJCQkJCTwvZz4mI3hhOwkJCQkJPC9nPiYjeGE7CQkJCTwvZz4mI3hhOwkJCTwvZz4mI3hhOwkJPC9nPiYjeGE7CTwvZz4mI3hhOzwvZz4mI3hhOzwvc3ZnPg==;" vertex="1" parent="weV_pYgRictKtLWvSeBu-1">
          <mxGeometry x="506" y="703.31" width="85.22" height="54" as="geometry" />
        </mxCell>
        <mxCell id="weV_pYgRictKtLWvSeBu-29" value="" style="aspect=fixed;html=1;points=[];align=center;image;fontSize=12;image=img/lib/mscae/Event_Hub_Clusters.svg;" vertex="1" parent="weV_pYgRictKtLWvSeBu-1">
          <mxGeometry x="110.5" y="646.54" width="75" height="72" as="geometry" />
        </mxCell>
        <mxCell id="weV_pYgRictKtLWvSeBu-30" value="" style="aspect=fixed;html=1;points=[];align=center;image;fontSize=12;image=img/lib/mscae/Stream_Analytics.svg;" vertex="1" parent="weV_pYgRictKtLWvSeBu-1">
          <mxGeometry x="221.98000000000002" y="656.79" width="66.03" height="51.5" as="geometry" />
        </mxCell>
        <mxCell id="weV_pYgRictKtLWvSeBu-31" value="" style="aspect=fixed;html=1;points=[];align=center;image;fontSize=12;image=img/lib/mscae/Machine_Learning_Studio_Workspaces.svg;" vertex="1" parent="weV_pYgRictKtLWvSeBu-1">
          <mxGeometry x="326" y="655.56" width="50" height="50" as="geometry" />
        </mxCell>
        <mxCell id="weV_pYgRictKtLWvSeBu-32" value="&lt;b&gt;&lt;font style=&quot;font-size: 18px&quot;&gt;数据源&lt;/font&gt;&lt;/b&gt;" style="text;html=1;resizable=0;autosize=1;align=center;verticalAlign=middle;points=[];fillColor=none;strokeColor=none;rounded=0;" vertex="1" parent="weV_pYgRictKtLWvSeBu-1">
          <mxGeometry x="10.44" y="790" width="70" height="20" as="geometry" />
        </mxCell>
        <mxCell id="weV_pYgRictKtLWvSeBu-33" value="&lt;b&gt;&lt;font style=&quot;font-size: 18px&quot;&gt;数据获取&lt;/font&gt;&lt;/b&gt;" style="text;html=1;resizable=0;autosize=1;align=center;verticalAlign=middle;points=[];fillColor=none;strokeColor=none;rounded=0;" vertex="1" parent="weV_pYgRictKtLWvSeBu-1">
          <mxGeometry x="100" y="790" width="90" height="20" as="geometry" />
        </mxCell>
        <mxCell id="weV_pYgRictKtLWvSeBu-34" value="&lt;b&gt;&lt;font style=&quot;font-size: 18px&quot;&gt;数据处理&lt;/font&gt;&lt;/b&gt;" style="text;html=1;resizable=0;autosize=1;align=center;verticalAlign=middle;points=[];fillColor=none;strokeColor=none;rounded=0;" vertex="1" parent="weV_pYgRictKtLWvSeBu-1">
          <mxGeometry x="210" y="790" width="90" height="20" as="geometry" />
        </mxCell>
        <mxCell id="weV_pYgRictKtLWvSeBu-35" value="&lt;b&gt;&lt;font style=&quot;font-size: 18px&quot;&gt;数据清洗&lt;/font&gt;&lt;/b&gt;" style="text;html=1;resizable=0;autosize=1;align=center;verticalAlign=middle;points=[];fillColor=none;strokeColor=none;rounded=0;" vertex="1" parent="weV_pYgRictKtLWvSeBu-1">
          <mxGeometry x="310" y="788.02" width="90" height="20" as="geometry" />
        </mxCell>
        <mxCell id="weV_pYgRictKtLWvSeBu-37" value="&lt;b&gt;&lt;font style=&quot;font-size: 18px&quot;&gt;数据存储&lt;/font&gt;&lt;/b&gt;" style="text;html=1;resizable=0;autosize=1;align=center;verticalAlign=middle;points=[];fillColor=none;strokeColor=none;rounded=0;" vertex="1" parent="weV_pYgRictKtLWvSeBu-1">
          <mxGeometry x="461.00000000000006" y="790" width="90" height="20" as="geometry" />
        </mxCell>
        <mxCell id="weV_pYgRictKtLWvSeBu-38" value="&lt;b&gt;&lt;font style=&quot;font-size: 18px&quot;&gt;数据消费&lt;/font&gt;&lt;/b&gt;" style="text;html=1;resizable=0;autosize=1;align=center;verticalAlign=middle;points=[];fillColor=none;strokeColor=none;rounded=0;" vertex="1" parent="weV_pYgRictKtLWvSeBu-1">
          <mxGeometry x="720" y="790" width="90" height="20" as="geometry" />
        </mxCell>
        <mxCell id="weV_pYgRictKtLWvSeBu-57" value="" style="edgeStyle=orthogonalEdgeStyle;shape=flexArrow;rounded=0;orthogonalLoop=1;jettySize=auto;html=1;strokeColor=#FFFFFF;fillColor=#66B2FF;entryX=0;entryY=0.75;entryDx=0;entryDy=0;" edge="1" parent="weV_pYgRictKtLWvSeBu-1" source="weV_pYgRictKtLWvSeBu-39" target="weV_pYgRictKtLWvSeBu-22">
          <mxGeometry relative="1" as="geometry" />
        </mxCell>
        <mxCell id="weV_pYgRictKtLWvSeBu-58" value="" style="edgeStyle=orthogonalEdgeStyle;shape=flexArrow;rounded=0;orthogonalLoop=1;jettySize=auto;html=1;strokeColor=#FFFFFF;fillColor=#66B2FF;entryX=0;entryY=0.5;entryDx=0;entryDy=0;" edge="1" parent="weV_pYgRictKtLWvSeBu-1" source="weV_pYgRictKtLWvSeBu-39" target="weV_pYgRictKtLWvSeBu-23">
          <mxGeometry relative="1" as="geometry" />
        </mxCell>
        <mxCell id="weV_pYgRictKtLWvSeBu-39" value="" style="shape=image;verticalLabelPosition=bottom;labelBackgroundColor=#ffffff;verticalAlign=top;aspect=fixed;imageAspect=0;image=data:image/svg+xml,PHN2ZyB4bWxuczpkYz0iaHR0cDovL3B1cmwub3JnL2RjL2VsZW1lbnRzLzEuMS8iIHhtbG5zOmNjPSJodHRwOi8vY3JlYXRpdmVjb21tb25zLm9yZy9ucyMiIHhtbG5zOnJkZj0iaHR0cDovL3d3dy53My5vcmcvMTk5OS8wMi8yMi1yZGYtc3ludGF4LW5zIyIgeG1sbnM6c3ZnPSJodHRwOi8vd3d3LnczLm9yZy8yMDAwL3N2ZyIgeG1sbnM9Imh0dHA6Ly93d3cudzMub3JnLzIwMDAvc3ZnIiB4bWxuczpzb2RpcG9kaT0iaHR0cDovL3NvZGlwb2RpLnNvdXJjZWZvcmdlLm5ldC9EVEQvc29kaXBvZGktMC5kdGQiIHhtbG5zOmlua3NjYXBlPSJodHRwOi8vd3d3Lmlua3NjYXBlLm9yZy9uYW1lc3BhY2VzL2lua3NjYXBlIiB2ZXJzaW9uPSIxLjEiIGlkPSJzdmc4NTM5NyIgaW5rc2NhcGU6dmVyc2lvbj0iMC45Mi4zICgyNDA1NTQ2LCAyMDE4LTAzLTExKSIgc29kaXBvZGk6ZG9jbmFtZT0ibWljcm9zb2Z0X3N0cmVhbS5zdmciIHg9IjBweCIgeT0iMHB4IiB2aWV3Qm94PSIwIDAgMzIuNTEgMzAuNDYiIHhtbDpzcGFjZT0icHJlc2VydmUiIHdpZHRoPSIzMi41MDk5OTgiIGhlaWdodD0iMzAuNDU5OTk5Ij48bWV0YWRhdGEgaWQ9Im1ldGFkYXRhNDA2NCI+PHJkZjpSREY+PGNjOldvcmsgcmRmOmFib3V0PSIiPjxkYzpmb3JtYXQ+aW1hZ2Uvc3ZnK3htbDwvZGM6Zm9ybWF0PjxkYzp0eXBlIHJkZjpyZXNvdXJjZT0iaHR0cDovL3B1cmwub3JnL2RjL2RjbWl0eXBlL1N0aWxsSW1hZ2UiLz48ZGM6dGl0bGUvPjwvY2M6V29yaz48L3JkZjpSREY+PC9tZXRhZGF0YT48ZGVmcyBpZD0iZGVmczQwNjIiPiYjeGE7CSYjeGE7CSYjeGE7CSYjeGE7JiN4YTsJJiN4YTsJJiN4YTsJJiN4YTsmI3hhOwkJJiN4YTsJJiN4YTsJCSYjeGE7CSYjeGE7CQkJJiN4YTsJCSYjeGE7CQkJJiN4YTsJCTwvZGVmcz4mI3hhOzxmaWx0ZXIgaWQ9ImZpbHRlcl8yIj4mI3hhOwk8ZmVHYXVzc2lhbkJsdXIgaWQ9ImZlR2F1c3NpYW5CbHVyODUzMzIiIHN0ZERldmlhdGlvbj0iMiIvPiYjeGE7PC9maWx0ZXI+JiN4YTs8c29kaXBvZGk6bmFtZWR2aWV3IGJvcmRlcmNvbG9yPSIjNjY2NjY2IiBib3JkZXJvcGFjaXR5PSIxIiBmaXQtbWFyZ2luLWJvdHRvbT0iMCIgZml0LW1hcmdpbi1sZWZ0PSIwIiBmaXQtbWFyZ2luLXJpZ2h0PSIwIiBmaXQtbWFyZ2luLXRvcD0iMCIgZ3JpZHRvbGVyYW5jZT0iMTAiIGd1aWRldG9sZXJhbmNlPSIxMCIgaWQ9Im5hbWVkdmlldzg1Mzk5IiBpbmtzY2FwZTpjdXJyZW50LWxheWVyPSJzdmc4NTM5NyIgaW5rc2NhcGU6Y3g9Ii0zMy4zMDE4MzMiIGlua3NjYXBlOmN5PSIxNC41NzMyNzgiIGlua3NjYXBlOnBhZ2VvcGFjaXR5PSIwIiBpbmtzY2FwZTpwYWdlc2hhZG93PSIyIiBpbmtzY2FwZTp3aW5kb3ctaGVpZ2h0PSIxMDE3IiBpbmtzY2FwZTp3aW5kb3ctbWF4aW1pemVkPSIxIiBpbmtzY2FwZTp3aW5kb3ctd2lkdGg9IjE5MjAiIGlua3NjYXBlOndpbmRvdy14PSItOCIgaW5rc2NhcGU6d2luZG93LXk9Ii04IiBpbmtzY2FwZTp6b29tPSI5LjI3MTE1OTgiIG9iamVjdHRvbGVyYW5jZT0iMTAiIHBhZ2Vjb2xvcj0iI2ZmZmZmZiIgc2hvd2dyaWQ9ImZhbHNlIj4mI3hhOwk8L3NvZGlwb2RpOm5hbWVkdmlldz4mI3hhOyYjeGE7JiN4YTsmI3hhOzxwYXRoIGlkPSJwYXRoODUzNjYiIGlua3NjYXBlOmNvbm5lY3Rvci1jdXJ2YXR1cmU9IjAiIHN0eWxlPSJmaWxsOiM3ZmQxMjciIGQ9Ik0gMzIuNTEsMTUuMjMgOC4xMywwIHYgMTEuNDMgbCA1LjA4LDMuOCB6Ii8+JiN4YTsmI3hhOzxwYXRoIGlkPSJwYXRoODUzNzQiIGlua3NjYXBlOmNvbm5lY3Rvci1jdXJ2YXR1cmU9IjAiIHN0eWxlPSJmaWxsOiM3ZmQxMjciIGQ9Ik0gOC4xMywxNS4yMyAwLDkuMTQgdiA2LjA5IHoiLz4mI3hhOyYjeGE7PHBhdGggaWQ9InBhdGg4NTM4MiIgaW5rc2NhcGU6Y29ubmVjdG9yLWN1cnZhdHVyZT0iMCIgc3R5bGU9ImZpbGw6IzY2YzQzMSIgZD0iTSA4LjEzLDE5LjA0IFYgMzAuNDYgTCAzMi41MSwxNS4yMyBoIC0xOS4zIHoiLz4mI3hhOyYjeGE7PHBhdGggaWQ9InBhdGg4NTM5MCIgaW5rc2NhcGU6Y29ubmVjdG9yLWN1cnZhdHVyZT0iMCIgc3R5bGU9ImZpbGw6IzY2YzQzMSIgZD0iTSAwLDIxLjMyIDguMTMsMTUuMjMgSCAwIFoiLz4mI3hhOzwvc3ZnPg==;" vertex="1" parent="weV_pYgRictKtLWvSeBu-1">
          <mxGeometry x="640" y="655.77" width="52.29" height="47.54" as="geometry" />
        </mxCell>
        <mxCell id="weV_pYgRictKtLWvSeBu-40" value="&lt;b&gt;&lt;font style=&quot;font-size: 18px&quot;&gt;数据发布&lt;/font&gt;&lt;/b&gt;" style="text;html=1;resizable=0;autosize=1;align=center;verticalAlign=middle;points=[];fillColor=none;strokeColor=none;rounded=0;" vertex="1" parent="weV_pYgRictKtLWvSeBu-1">
          <mxGeometry x="620" y="788.02" width="90" height="20" as="geometry" />
        </mxCell>
        <mxCell id="weV_pYgRictKtLWvSeBu-48" value="" style="shape=flexArrow;endArrow=classic;html=1;strokeColor=#FFFFFF;fillColor=#66B2FF;endWidth=6;endSize=6.67;" edge="1" parent="weV_pYgRictKtLWvSeBu-1">
          <mxGeometry width="50" height="50" relative="1" as="geometry">
            <mxPoint x="70.5" y="679.04" as="sourcePoint" />
            <mxPoint x="110.5" y="679.04" as="targetPoint" />
          </mxGeometry>
        </mxCell>
        <mxCell id="weV_pYgRictKtLWvSeBu-49" value="" style="shape=flexArrow;endArrow=classic;html=1;strokeColor=#FFFFFF;fillColor=#66B2FF;endWidth=6;endSize=6.67;" edge="1" parent="weV_pYgRictKtLWvSeBu-1">
          <mxGeometry width="50" height="50" relative="1" as="geometry">
            <mxPoint x="190" y="682.04" as="sourcePoint" />
            <mxPoint x="230" y="682.04" as="targetPoint" />
          </mxGeometry>
        </mxCell>
        <mxCell id="weV_pYgRictKtLWvSeBu-50" value="" style="shape=flexArrow;endArrow=classic;html=1;strokeColor=#FFFFFF;fillColor=#66B2FF;endWidth=6;endSize=6.67;" edge="1" parent="weV_pYgRictKtLWvSeBu-1">
          <mxGeometry width="50" height="50" relative="1" as="geometry">
            <mxPoint x="286" y="682.04" as="sourcePoint" />
            <mxPoint x="326" y="682.04" as="targetPoint" />
          </mxGeometry>
        </mxCell>
        <mxCell id="weV_pYgRictKtLWvSeBu-51" value="" style="shape=flexArrow;endArrow=classic;html=1;strokeColor=#FFFFFF;fillColor=#66B2FF;endWidth=6;endSize=6.67;" edge="1" parent="weV_pYgRictKtLWvSeBu-1">
          <mxGeometry width="50" height="50" relative="1" as="geometry">
            <mxPoint x="376" y="682.04" as="sourcePoint" />
            <mxPoint x="416" y="682.04" as="targetPoint" />
          </mxGeometry>
        </mxCell>
        <mxCell id="weV_pYgRictKtLWvSeBu-52" value="" style="shape=flexArrow;endArrow=classic;html=1;strokeColor=#FFFFFF;fillColor=#66B2FF;endWidth=6;endSize=6.67;exitX=1;exitY=0.25;exitDx=0;exitDy=0;" edge="1" parent="weV_pYgRictKtLWvSeBu-1" source="weV_pYgRictKtLWvSeBu-20">
          <mxGeometry width="50" height="50" relative="1" as="geometry">
            <mxPoint x="474" y="635.04" as="sourcePoint" />
            <mxPoint x="514" y="635.04" as="targetPoint" />
          </mxGeometry>
        </mxCell>
        <mxCell id="weV_pYgRictKtLWvSeBu-53" value="" style="shape=flexArrow;endArrow=classic;html=1;strokeColor=#FFFFFF;fillColor=#66B2FF;endWidth=6;endSize=6.67;" edge="1" parent="weV_pYgRictKtLWvSeBu-1" target="weV_pYgRictKtLWvSeBu-26">
          <mxGeometry width="50" height="50" relative="1" as="geometry">
            <mxPoint x="494.95" y="680.06" as="sourcePoint" />
            <mxPoint x="534.95" y="680.06" as="targetPoint" />
          </mxGeometry>
        </mxCell>
        <mxCell id="weV_pYgRictKtLWvSeBu-54" value="" style="shape=flexArrow;endArrow=classic;html=1;strokeColor=#FFFFFF;fillColor=#66B2FF;endWidth=6;endSize=6.67;" edge="1" parent="weV_pYgRictKtLWvSeBu-1">
          <mxGeometry width="50" height="50" relative="1" as="geometry">
            <mxPoint x="600" y="680.06" as="sourcePoint" />
            <mxPoint x="640" y="680.06" as="targetPoint" />
          </mxGeometry>
        </mxCell>
        <mxCell id="weV_pYgRictKtLWvSeBu-59" value="&lt;b&gt;&lt;font style=&quot;font-size: 14px&quot;&gt;移动数据&lt;/font&gt;&lt;/b&gt;" style="text;html=1;resizable=0;autosize=1;align=center;verticalAlign=middle;points=[];fillColor=none;strokeColor=none;rounded=0;" vertex="1" parent="weV_pYgRictKtLWvSeBu-1">
          <mxGeometry x="200" y="930" width="70" height="20" as="geometry" />
        </mxCell>
        <mxCell id="weV_pYgRictKtLWvSeBu-60" value="&lt;b&gt;&lt;font style=&quot;font-size: 14px&quot;&gt;移动数据&lt;/font&gt;&lt;/b&gt;" style="text;html=1;resizable=0;autosize=1;align=center;verticalAlign=middle;points=[];fillColor=none;strokeColor=none;rounded=0;" vertex="1" parent="weV_pYgRictKtLWvSeBu-1">
          <mxGeometry x="8.939999999999998" y="672.29" width="70" height="20" as="geometry" />
        </mxCell>
        <mxCell id="weV_pYgRictKtLWvSeBu-61" value="&lt;b&gt;&lt;font style=&quot;font-size: 14px&quot;&gt;固定数据&lt;/font&gt;&lt;/b&gt;" style="text;html=1;resizable=0;autosize=1;align=center;verticalAlign=middle;points=[];fillColor=none;strokeColor=none;rounded=0;" vertex="1" parent="weV_pYgRictKtLWvSeBu-1">
          <mxGeometry x="11.939999999999998" y="757.31" width="70" height="20" as="geometry" />
        </mxCell>
        <mxCell id="weV_pYgRictKtLWvSeBu-62" value="&lt;b&gt;&lt;font style=&quot;font-size: 14px&quot;&gt;HDFS&amp;amp;Hive&lt;/font&gt;&lt;/b&gt;" style="text;html=1;resizable=0;autosize=1;align=center;verticalAlign=middle;points=[];fillColor=none;strokeColor=none;rounded=0;" vertex="1" parent="weV_pYgRictKtLWvSeBu-1">
          <mxGeometry x="416" y="708.29" width="90" height="20" as="geometry" />
        </mxCell>
        <mxCell id="weV_pYgRictKtLWvSeBu-63" value="&lt;span style=&quot;font-size: 14px&quot;&gt;&lt;b&gt;Greenplum&lt;/b&gt;&lt;/span&gt;" style="text;html=1;resizable=0;autosize=1;align=center;verticalAlign=middle;points=[];fillColor=none;strokeColor=none;rounded=0;" vertex="1" parent="weV_pYgRictKtLWvSeBu-1">
          <mxGeometry x="503.61" y="667" width="90" height="20" as="geometry" />
        </mxCell>
        <mxCell id="weV_pYgRictKtLWvSeBu-64" value="&lt;span style=&quot;font-size: 14px&quot;&gt;&lt;b&gt;Kafka&lt;/b&gt;&lt;/span&gt;" style="text;html=1;resizable=0;autosize=1;align=center;verticalAlign=middle;points=[];fillColor=none;strokeColor=none;rounded=0;" vertex="1" parent="weV_pYgRictKtLWvSeBu-1">
          <mxGeometry x="640" y="705.56" width="50" height="20" as="geometry" />
        </mxCell>
        <mxCell id="weV_pYgRictKtLWvSeBu-65" value="&lt;span style=&quot;font-size: 14px&quot;&gt;&lt;b&gt;数据可视化&lt;/b&gt;&lt;/span&gt;" style="text;html=1;resizable=0;autosize=1;align=center;verticalAlign=middle;points=[];fillColor=none;strokeColor=none;rounded=0;" vertex="1" parent="weV_pYgRictKtLWvSeBu-1">
          <mxGeometry x="720.47" y="647" width="90" height="20" as="geometry" />
        </mxCell>
      </root>
    </mxGraphModel>
  </diagram>
</mxfile>
